<svg width="14" height="14" viewBox="0 0 14 14" fill="none" xmlns="http://www.w3.org/2000/svg">
<path d="M14.0001 8.0332V5.978C14.0001 5.768 13.8368 5.60467 13.6268 5.60467H12.4835C12.4053 5.60514 12.3291 5.58043 12.266 5.5342C12.203 5.48798 12.1565 5.42269 12.1335 5.348C12.0401 5.068 11.9356 4.7992 11.8068 4.54253C11.7718 4.47224 11.7597 4.39273 11.7723 4.3152C11.7848 4.23767 11.8214 4.16604 11.8768 4.1104L12.6935 3.2928C12.761 3.22198 12.7986 3.1279 12.7986 3.03007C12.7986 2.93223 12.761 2.83815 12.6935 2.76733L12.0187 2.0916L11.2468 1.31973C11.176 1.25251 11.0822 1.21502 10.9845 1.21502C10.8869 1.21502 10.793 1.25251 10.7223 1.31973L9.90561 2.1364C9.85012 2.19208 9.77847 2.22882 9.70088 2.24138C9.62329 2.25395 9.5437 2.24171 9.47348 2.2064C9.21562 2.07365 8.94636 1.96433 8.66894 1.87973C8.59517 1.85518 8.53084 1.80831 8.48486 1.74561C8.43888 1.68291 8.41352 1.60748 8.41228 1.52973V0.373333C8.40889 0.273297 8.36682 0.178476 8.29492 0.10884C8.22302 0.0392033 8.1269 0.000184529 8.02681 0L5.97347 0C5.76347 0 5.60014 0.163333 5.60014 0.373333V1.5176C5.60081 1.59592 5.5762 1.67238 5.52996 1.7356C5.48372 1.79882 5.41832 1.84544 5.34348 1.86853C5.06348 1.96187 4.79561 2.0664 4.53894 2.1952C4.46871 2.23051 4.38913 2.24275 4.31154 2.23018C4.23394 2.21762 4.1623 2.18088 4.10681 2.1252L3.29014 1.30667C3.21932 1.23917 3.12524 1.20151 3.02741 1.20151C2.92957 1.20151 2.83549 1.23917 2.76467 1.30667L1.33014 2.77853C1.26264 2.84935 1.22498 2.94343 1.22498 3.04127C1.22498 3.1391 1.26264 3.23318 1.33014 3.304L2.14681 4.1216C2.26347 4.23827 2.28681 4.41373 2.21681 4.55373C2.08406 4.81192 1.97473 5.08148 1.89014 5.3592C1.86559 5.43297 1.81872 5.4973 1.75602 5.54328C1.69332 5.58926 1.61788 5.61462 1.54014 5.61587H0.373474C0.324649 5.613 0.275762 5.62032 0.229916 5.63735C0.18407 5.65439 0.142267 5.68077 0.10716 5.71482C0.072054 5.74888 0.0444116 5.78986 0.025988 5.83516C0.00756438 5.88047 -0.00123787 5.92911 0.000140054 5.978V8.0332C0.000140054 8.2432 0.163473 8.40653 0.373474 8.40653H1.51681C1.59509 8.40613 1.67142 8.43097 1.73447 8.47737C1.79752 8.52377 1.84393 8.58927 1.86681 8.66413C1.96014 8.94413 2.06561 9.21293 2.19347 9.4696C2.26347 9.6096 2.24014 9.78507 2.12347 9.90173L1.30681 10.7193C1.23958 10.7901 1.2021 10.884 1.2021 10.9816C1.2021 11.0792 1.23958 11.1731 1.30681 11.2439L2.75347 12.6933C2.89347 12.8333 3.13894 12.8333 3.27894 12.6933L4.09561 11.8757C4.15103 11.8203 4.2225 11.7836 4.2999 11.7711C4.3773 11.7585 4.45669 11.7706 4.52681 11.8057C4.78347 11.9345 5.05227 12.0512 5.33227 12.1324C5.48347 12.1791 5.58894 12.3312 5.58894 12.4833V13.6267C5.58894 13.8367 5.75227 14 5.96228 14H8.01561C8.22561 14 8.38894 13.8367 8.38894 13.6267V12.4936C8.38847 12.4154 8.41318 12.3392 8.4594 12.2762C8.50563 12.2131 8.57092 12.1666 8.64561 12.1436C8.92561 12.0503 9.19348 11.9448 9.45014 11.8169C9.52037 11.7816 9.59995 11.7694 9.67755 11.7819C9.75514 11.7945 9.82679 11.8313 9.88228 11.8869L10.6989 12.7036C10.8389 12.8436 11.0835 12.8436 11.2235 12.7036L12.6701 11.256C12.7376 11.1852 12.7753 11.0911 12.7753 10.9933C12.7753 10.8954 12.7376 10.8014 12.6701 10.7305L11.8535 9.91293C11.798 9.85729 11.7615 9.78566 11.7489 9.70813C11.7364 9.63061 11.7484 9.55109 11.7835 9.4808C11.9162 9.22262 12.0256 8.95305 12.1101 8.67533C12.1347 8.60156 12.1816 8.53724 12.2443 8.49126C12.307 8.44528 12.3824 8.41991 12.4601 8.41867H13.6035C13.8368 8.40653 14.0001 8.2432 14.0001 8.0332ZM7.00014 9.18773C6.42007 9.18724 5.8639 8.95659 5.45373 8.54641C5.04355 8.13624 4.8129 7.58007 4.81241 7C4.8129 6.41993 5.04355 5.86376 5.45373 5.45358C5.8639 5.04341 6.42007 4.81276 7.00014 4.81227C7.58021 4.81276 8.13638 5.04341 8.54656 5.45358C8.95673 5.86376 9.18738 6.41993 9.18788 7C9.18591 7.57962 8.95478 8.13493 8.54493 8.54479C8.13508 8.95464 7.57976 9.18577 7.00014 9.18773Z" fill="white"/>
</svg>
