<svg width="14" height="14" viewBox="0 0 14 14" fill="none" xmlns="http://www.w3.org/2000/svg">
<path fill-rule="evenodd" clip-rule="evenodd" d="M5.05512 1.36117C5.05512 1.039 4.79395 0.777832 4.47179 0.777832C4.14962 0.777832 3.88845 1.039 3.88845 1.36117V1.55561H2.3329C1.47379 1.55561 0.777344 2.25206 0.777344 3.11117V11.6667C0.777344 12.5258 1.47379 13.2223 2.3329 13.2223H11.6662C12.5253 13.2223 13.2218 12.5258 13.2218 11.6667V3.11117C13.2218 2.25206 12.5253 1.55561 11.6662 1.55561H9.72179V1.36117C9.72179 1.039 9.46062 0.777832 9.13846 0.777832C8.81629 0.777832 8.55512 1.039 8.55512 1.36117V1.55561H5.05512V1.36117ZM8.55512 3.30561V2.72228H5.05512V3.30561C5.05512 3.62778 4.79395 3.88894 4.47179 3.88894C4.14962 3.88894 3.88845 3.62778 3.88845 3.30561V2.72228H2.3329C2.11812 2.72228 1.94401 2.89639 1.94401 3.11117V11.6667C1.94401 11.8815 2.11812 12.0556 2.3329 12.0556H11.6662C11.881 12.0556 12.0551 11.8815 12.0551 11.6667V3.11117C12.0551 2.89639 11.881 2.72228 11.6662 2.72228H9.72179V3.30561C9.72179 3.62778 9.46062 3.88894 9.13846 3.88894C8.81629 3.88894 8.55512 3.62778 8.55512 3.30561ZM3.71263 8.85119C3.46948 8.63983 3.44372 8.27139 3.65508 8.02824C3.86644 7.7851 4.23489 7.75934 4.47803 7.9707L6.09431 9.47737L9.13179 6.1001C9.34315 5.85696 9.7116 5.8312 9.95474 6.04256C10.1979 6.25392 10.2236 6.62236 10.0123 6.86551L6.73235 10.5378C6.44432 10.8603 5.94857 10.8859 5.62879 10.5949L3.71263 8.85119Z" fill="black"/>
</svg>
