<svg width="14" height="14" viewBox="0 0 14 14" fill="none" xmlns="http://www.w3.org/2000/svg">
<path fill-rule="evenodd" clip-rule="evenodd" d="M8.74957 4.66678C8.74957 5.74066 7.87901 6.61122 6.80512 6.61122C5.73124 6.61122 4.86068 5.74066 4.86068 4.66678C4.86068 3.59289 5.73124 2.72233 6.80512 2.72233C7.87901 2.72233 8.74957 3.59289 8.74957 4.66678ZM8.31773 7.38606C9.27128 6.85451 9.91623 5.83596 9.91623 4.66678C9.91623 2.94856 8.52334 1.55566 6.80512 1.55566C5.0869 1.55566 3.69401 2.94856 3.69401 4.66678C3.69401 5.83589 4.33888 6.85439 5.29233 7.38596C2.69548 8.05714 0.777344 10.4157 0.777344 13.2223H1.94401C1.94401 10.5376 4.1204 8.36122 6.80512 8.36122C7.62968 8.36122 8.40467 8.56604 9.0837 8.9271L9.63143 7.897C9.21953 7.67798 8.77924 7.50537 8.31773 7.38606ZM10.4608 11.6668H9.13846V10.5001H10.4608V9.33344H11.6275V10.5001H13.0273V11.6668H11.6275V13.2223H10.4608V11.6668Z" fill="#333333"/>
</svg>
