<svg width="14" height="14" viewBox="0 0 14 14" fill="none" xmlns="http://www.w3.org/2000/svg">
<path fill-rule="evenodd" clip-rule="evenodd" d="M6.80512 5.83339C7.87901 5.83339 8.74957 4.96283 8.74957 3.88894C8.74957 2.81506 7.87901 1.9445 6.80512 1.9445C5.73123 1.9445 4.86068 2.81506 4.86068 3.88894C4.86068 4.96283 5.73123 5.83339 6.80512 5.83339ZM9.91623 3.88894C9.91623 5.05813 9.27128 6.07668 8.31773 6.60823C8.77924 6.72754 9.21953 6.90015 9.63143 7.11917L9.0837 8.14927C8.40467 7.78821 7.62968 7.58339 6.80512 7.58339C4.1204 7.58339 1.94401 9.75978 1.94401 12.4445H0.777344C0.777344 9.6379 2.69548 7.27931 5.29233 6.60813C4.33888 6.07655 3.69401 5.05806 3.69401 3.88894C3.69401 2.17072 5.0869 0.777832 6.80512 0.777832C8.52334 0.777832 9.91623 2.17072 9.91623 3.88894ZM10.694 8.9445C10.1571 8.9445 9.72179 9.37978 9.72179 9.91672C9.72179 10.4537 10.1571 10.8889 10.694 10.8889C11.231 10.8889 11.6662 10.4537 11.6662 9.91672C11.6662 9.37978 11.231 8.9445 10.694 8.9445ZM8.55512 9.91672C8.55512 8.73544 9.51273 7.77783 10.694 7.77783C11.8753 7.77783 12.8329 8.73544 12.8329 9.91672C12.8329 10.2831 12.7408 10.628 12.5784 10.9294L13.3061 11.6571C13.5339 11.8849 13.5339 12.2542 13.3061 12.4821C13.0783 12.7099 12.709 12.7099 12.4812 12.4821L11.7667 11.7676C11.4514 11.9507 11.0849 12.0556 10.694 12.0556C9.51273 12.0556 8.55512 11.098 8.55512 9.91672Z" fill="#2196F3"/>
</svg>
