<svg width="14" height="14" viewBox="0 0 14 14" fill="none" xmlns="http://www.w3.org/2000/svg">
<path fill-rule="evenodd" clip-rule="evenodd" d="M6.74852 3.48388H8.60993L8.73231 3.33803L7.63999 2.42147L6.74852 3.48388ZM10.1329 3.48388H11.6667C12.5258 3.48388 13.2223 4.18032 13.2223 5.03943V6.59499V7.76165V9.31721V10.4839V12.0394C13.2223 12.8985 12.5258 13.595 11.6667 13.595H2.33339C1.47428 13.595 0.777832 12.8985 0.777832 12.0394V5.03943C0.777832 4.18032 1.47428 3.48388 2.33339 3.48388H2.89536L4.66409 1.37599L5.03905 0.929133L5.48591 1.30409L6.40646 2.07652L7.12123 1.22469L7.49619 0.777832L7.94305 1.15279L9.92909 2.81927L10.3759 3.19423L10.1329 3.48388ZM12.0556 5.03943V6.59499H8.9445C7.87061 6.59499 7.00005 7.46555 7.00005 8.53943C7.00005 9.61332 7.87061 10.4839 8.9445 10.4839H12.0556V12.0394C12.0556 12.2542 11.8815 12.4283 11.6667 12.4283H2.33339C2.11861 12.4283 1.9445 12.2542 1.9445 12.0394V5.03943C1.9445 4.82466 2.11861 4.65054 2.33339 4.65054H11.6667C11.8815 4.65054 12.0556 4.82466 12.0556 5.03943ZM8.9445 7.76165H12.0556V9.31721H8.9445C8.51494 9.31721 8.16672 8.96899 8.16672 8.53943C8.16672 8.10988 8.51494 7.76165 8.9445 7.76165ZM4.41834 3.48388L5.18285 2.57277L5.65654 2.97024L5.22555 3.48388H4.41834ZM9.13894 9.08403C9.46111 9.08403 9.72228 8.82286 9.72228 8.5007C9.72228 8.17853 9.46111 7.91736 9.13894 7.91736C8.81678 7.91736 8.55561 8.17853 8.55561 8.5007C8.55561 8.82286 8.81678 9.08403 9.13894 9.08403Z" fill="#2196F3"/>
</svg>
