<svg width="12" height="14" viewBox="0 0 12 14" fill="none" xmlns="http://www.w3.org/2000/svg">
<path fill-rule="evenodd" clip-rule="evenodd" d="M4.05566 1.36117C4.05566 1.039 3.7945 0.777832 3.47233 0.777832C3.15016 0.777832 2.889 1.039 2.889 1.36117V1.55561H2.11122C1.25211 1.55561 0.555664 2.25206 0.555664 3.11117V12.4445C0.555664 13.3036 1.25211 14.0001 2.11122 14.0001H9.889C10.7481 14.0001 11.4446 13.3036 11.4446 12.4445V3.11117C11.4446 2.25206 10.7481 1.55561 9.889 1.55561H8.72233V1.36117C8.72233 1.039 8.46116 0.777832 8.139 0.777832C7.81683 0.777832 7.55566 1.039 7.55566 1.36117V1.55561H4.05566V1.36117ZM7.55566 3.30561V2.72228H4.05566V3.30561C4.05566 3.62778 3.7945 3.88894 3.47233 3.88894C3.15016 3.88894 2.889 3.62778 2.889 3.30561V2.72228H2.11122C1.89644 2.72228 1.72233 2.89639 1.72233 3.11117V12.4445C1.72233 12.6593 1.89644 12.8334 2.11122 12.8334H9.889C10.1038 12.8334 10.2779 12.6593 10.2779 12.4445V3.11117C10.2779 2.89639 10.1038 2.72228 9.889 2.72228H8.72233V3.30561C8.72233 3.62778 8.46116 3.88894 8.139 3.88894C7.81683 3.88894 7.55566 3.62778 7.55566 3.30561ZM5.81948 7.04723L5.5445 6.77225L5.26951 6.49726C5.11764 6.34539 4.87141 6.34539 4.71954 6.49726C4.56767 6.64913 4.56767 6.89536 4.71954 7.04723L4.99452 7.32222L5.26951 7.59721L5.33613 7.66383C5.36221 7.68991 5.36221 7.73219 5.33613 7.75827C5.32361 7.7708 5.30662 7.77783 5.28891 7.77783H4.8335C4.61872 7.77783 4.44461 7.95194 4.44461 8.16672C4.44461 8.3815 4.61872 8.55561 4.8335 8.55561H5.48165C5.55324 8.55561 5.61128 8.61365 5.61128 8.68524V9.20376C5.61128 9.27535 5.55324 9.33339 5.48165 9.33339H4.8335C4.61872 9.33339 4.44461 9.5075 4.44461 9.72228C4.44461 9.93705 4.61872 10.1112 4.8335 10.1112H5.48165C5.55324 10.1112 5.61128 10.1692 5.61128 10.2408V10.8889C5.61128 11.1037 5.78539 11.2778 6.00017 11.2778C6.21494 11.2778 6.38906 11.1037 6.38906 10.8889V10.2408C6.38906 10.1692 6.44709 10.1112 6.51869 10.1112H7.16683C7.38161 10.1112 7.55572 9.93705 7.55572 9.72228C7.55572 9.5075 7.38161 9.33339 7.16683 9.33339H6.51869C6.44709 9.33339 6.38906 9.27535 6.38906 9.20376V8.68524C6.38906 8.61365 6.44709 8.55561 6.51869 8.55561H7.16683C7.38161 8.55561 7.55572 8.3815 7.55572 8.16672C7.55572 7.95194 7.38161 7.77783 7.16683 7.77783H6.57774C6.56003 7.77783 6.54304 7.7708 6.53052 7.75827C6.50444 7.73219 6.50444 7.68991 6.53052 7.66383L6.59714 7.59721L6.87213 7.32222L7.14712 7.04723C7.29899 6.89536 7.29899 6.64913 7.14712 6.49726C6.99524 6.34539 6.74901 6.34539 6.59714 6.49726L6.32216 6.77225L6.04717 7.04723C5.9843 7.11011 5.88236 7.11011 5.81948 7.04723Z" fill="black"/>
</svg>
