<svg width="13" height="14" viewBox="0 0 13 14" fill="none" xmlns="http://www.w3.org/2000/svg">
<path fill-rule="evenodd" clip-rule="evenodd" d="M6.80561 5.83339C7.8795 5.83339 8.75005 4.96283 8.75005 3.88894C8.75005 2.81506 7.8795 1.9445 6.80561 1.9445C5.73172 1.9445 4.86117 2.81506 4.86117 3.88894C4.86117 4.96283 5.73172 5.83339 6.80561 5.83339ZM9.91672 3.88894C9.91672 5.05806 9.27185 6.07656 8.3184 6.60813C10.9153 7.27931 12.8334 9.6379 12.8334 12.4445H11.6667C11.6667 9.75978 9.49033 7.58339 6.80561 7.58339C4.12089 7.58339 1.9445 9.75978 1.9445 12.4445H0.777832C0.777832 9.6379 2.69596 7.27931 5.29282 6.60813C4.33937 6.07655 3.6945 5.05806 3.6945 3.88894C3.6945 2.17072 5.08739 0.777832 6.80561 0.777832C8.52383 0.777832 9.91672 2.17072 9.91672 3.88894ZM6.81937 9.21949L6.54438 8.9445L6.2694 8.66951C6.11753 8.51764 5.8713 8.51764 5.71943 8.66951C5.56756 8.82138 5.56756 9.06761 5.71943 9.21949L5.99441 9.49447L6.2694 9.76946L6.33602 9.83608C6.3621 9.86216 6.3621 9.90444 6.33602 9.93052C6.3235 9.94305 6.30651 9.95008 6.2888 9.95008H5.83339C5.61861 9.95008 5.4445 10.1242 5.4445 10.339C5.4445 10.5537 5.61861 10.7279 5.83339 10.7279H6.48154C6.55313 10.7279 6.61117 10.7859 6.61117 10.8575V11.376C6.61117 11.4476 6.55313 11.5056 6.48154 11.5056H5.83339C5.61861 11.5056 5.4445 11.6797 5.4445 11.8945C5.4445 12.1093 5.61861 12.2834 5.83339 12.2834H6.48154C6.55313 12.2834 6.61117 12.3415 6.61117 12.413V13.0612C6.61117 13.276 6.78528 13.4501 7.00005 13.4501C7.21483 13.4501 7.38894 13.276 7.38894 13.0612V12.413C7.38894 12.3415 7.44698 12.2834 7.51857 12.2834H8.16672C8.3815 12.2834 8.55561 12.1093 8.55561 11.8945C8.55561 11.6797 8.3815 11.5056 8.16672 11.5056H7.51857C7.44698 11.5056 7.38894 11.4476 7.38894 11.376V10.8575C7.38894 10.7859 7.44698 10.7279 7.51857 10.7279H8.16672C8.3815 10.7279 8.55561 10.5537 8.55561 10.339C8.55561 10.1242 8.3815 9.95008 8.16672 9.95008H7.57763C7.55992 9.95008 7.54293 9.94305 7.53041 9.93052C7.50433 9.90444 7.50433 9.86216 7.53041 9.83608L7.59703 9.76946L7.87202 9.49447L8.147 9.21949C8.29887 9.06761 8.29887 8.82138 8.147 8.66951C7.99513 8.51764 7.7489 8.51764 7.59703 8.66951L7.32204 8.9445L7.04706 9.21949C6.98418 9.28236 6.88224 9.28236 6.81937 9.21949Z" fill="#2196F3"/>
</svg>
