<svg width="13" height="14" viewBox="0 0 13 14" fill="none" xmlns="http://www.w3.org/2000/svg">
<path fill-rule="evenodd" clip-rule="evenodd" d="M2.91672 0.777832C1.73545 0.777832 0.777832 1.73545 0.777832 2.91672V11.4723C0.777832 12.6536 1.73545 13.6112 2.91672 13.6112H6.80561V12.4445H2.91672C2.37978 12.4445 1.9445 12.0092 1.9445 11.4723V2.91672C1.9445 2.37978 2.37978 1.9445 2.91672 1.9445H10.6945C11.2314 1.9445 11.6667 2.37978 11.6667 2.91672V7.92367V9.74658H12.8334V7.92367V2.91672C12.8334 1.73545 11.8758 0.777832 10.6945 0.777832H2.91672ZM3.6945 2.91672V3.6945H2.91672V4.47228H3.6945V5.25005H4.47228V4.47228H5.25005V3.6945H4.47228V2.91672H3.6945ZM8.36117 3.6945H8.75005H9.13894H9.91672V4.47228H9.13894H8.75005H8.36117H7.58339V3.6945H8.36117ZM4.08339 8.36117H3.6945H2.91672V9.13894H3.6945H4.08339H4.47228H5.25005V8.36117H4.47228H4.08339ZM3.6945 9.52783H4.08339H4.47228H5.25005V10.3056H4.47228H4.08339H3.6945H2.91672V9.52783H3.6945ZM9.23498 10.4264L9.28795 10.2633L8.54965 9.91672L8.48329 10.1296C8.30452 10.7032 8.02616 11.196 7.65609 11.6142L7.58339 11.6964L7.85166 12.5548L8.07392 12.3177V13.8936H8.86337V11.2731C9.01359 11.0039 9.13875 10.7228 9.23498 10.4264ZM11.107 10.1517L11.0456 9.98418L10.2547 10.1992L10.3461 10.4061C10.3815 10.4862 10.4151 10.5674 10.4474 10.6503H9.52059V11.4358H10.5278V11.8364H9.64115V12.6103H10.5278V13.1081H9.46615V13.8936H12.3945V13.1081H11.3289V12.6103H12.2V11.8364H11.3289V11.4358H12.305V10.6503H11.2736C11.2281 10.4969 11.1731 10.3318 11.107 10.1517Z" fill="black"/>
</svg>
