<svg width="14" height="14" viewBox="0 0 14 14" fill="none" xmlns="http://www.w3.org/2000/svg">
<path fill-rule="evenodd" clip-rule="evenodd" d="M12.0556 7.00005C12.0556 9.79216 9.79216 12.0556 7.00005 12.0556C4.20795 12.0556 1.9445 9.79216 1.9445 7.00005C1.9445 4.20795 4.20795 1.9445 7.00005 1.9445C9.79216 1.9445 12.0556 4.20795 12.0556 7.00005ZM13.2223 7.00005C13.2223 10.4365 10.4365 13.2223 7.00005 13.2223C3.56362 13.2223 0.777832 10.4365 0.777832 7.00005C0.777832 3.56362 3.56362 0.777832 7.00005 0.777832C10.4365 0.777832 13.2223 3.56362 13.2223 7.00005ZM6.61117 3.88894H7.77783V7.77783H6.61117V3.88894ZM6.61117 8.55561H7.77783V9.72228H6.61117V8.55561Z" fill="#333333"/>
</svg>
