<svg width="14" height="14" viewBox="0 0 14 14" fill="none" xmlns="http://www.w3.org/2000/svg">
<path fill-rule="evenodd" clip-rule="evenodd" d="M12.0556 10.889V4.92603C12.0556 4.71126 11.8815 4.53715 11.6667 4.53715H8.00209C7.31257 4.53715 6.64874 4.27549 6.14466 3.80502L5.0967 2.82692C5.02469 2.75971 4.92986 2.72233 4.83136 2.72233H2.33339C2.11861 2.72233 1.9445 2.89644 1.9445 3.11122V10.889C1.9445 11.1038 2.11861 11.2779 2.33339 11.2779H11.6667C11.8815 11.2779 12.0556 11.1038 12.0556 10.889ZM2.33339 1.55566C1.47428 1.55566 0.777832 2.25211 0.777832 3.11122V10.889C0.777832 11.7481 1.47428 12.4446 2.33339 12.4446H11.6667C12.5258 12.4446 13.2223 11.7481 13.2223 10.889V4.92603C13.2223 4.06692 12.5258 3.37048 11.6667 3.37048H8.00209C7.60808 3.37048 7.22875 3.22096 6.9407 2.95212L5.89274 1.97402C5.6047 1.70518 5.22537 1.55566 4.83136 1.55566H2.33339ZM5.4445 6.41678C5.4445 6.09461 5.70567 5.83344 6.02783 5.83344H9.52783C9.85 5.83344 10.1112 6.09461 10.1112 6.41678C10.1112 6.73894 9.85 7.00011 9.52783 7.00011H6.02783C5.70567 7.00011 5.4445 6.73894 5.4445 6.41678ZM6.02783 8.55566C5.70567 8.55566 5.4445 8.81683 5.4445 9.139C5.4445 9.46116 5.70567 9.72233 6.02783 9.72233H9.52783C9.85 9.72233 10.1112 9.46116 10.1112 9.139C10.1112 8.81683 9.85 8.55566 9.52783 8.55566H6.02783ZM5.05561 6.41678C5.05561 6.73894 4.79444 7.00011 4.47228 7.00011C4.15011 7.00011 3.88894 6.73894 3.88894 6.41678C3.88894 6.09461 4.15011 5.83344 4.47228 5.83344C4.79444 5.83344 5.05561 6.09461 5.05561 6.41678ZM4.47228 9.72233C4.79444 9.72233 5.05561 9.46116 5.05561 9.139C5.05561 8.81683 4.79444 8.55566 4.47228 8.55566C4.15011 8.55566 3.88894 8.81683 3.88894 9.139C3.88894 9.46116 4.15011 9.72233 4.47228 9.72233Z" fill="black"/>
</svg>
