<svg width="13" height="14" viewBox="0 0 13 14" fill="none" xmlns="http://www.w3.org/2000/svg">
<path fill-rule="evenodd" clip-rule="evenodd" d="M2.91672 0.777832C1.73545 0.777832 0.777832 1.73545 0.777832 2.91672V11.4723C0.777832 12.6536 1.73545 13.6112 2.91672 13.6112H6.80561V12.4445H2.91672C2.37978 12.4445 1.9445 12.0092 1.9445 11.4723V2.91672C1.9445 2.37978 2.37978 1.9445 2.91672 1.9445H10.6945C11.2314 1.9445 11.6667 2.37978 11.6667 2.91672V7.92367V9.74658H12.8334V7.92367V2.91672C12.8334 1.73545 11.8758 0.777832 10.6945 0.777832H2.91672ZM3.6945 2.91672V3.6945H2.91672V4.47228H3.6945V5.25005H4.47228V4.47228H5.25005V3.6945H4.47228V2.91672H3.6945ZM8.36117 3.6945H8.75005H9.13894H9.91672V4.47228H9.13894H8.75005H8.36117H7.58339V3.6945H8.36117ZM4.08339 8.36117H3.6945H2.91672V9.13894H3.6945H4.08339H4.47228H5.25005V8.36117H4.47228H4.08339ZM3.6945 9.52783H4.08339H4.47228H5.25005V10.3056H4.47228H4.08339H3.6945H2.91672V9.52783H3.6945ZM8.68939 10.023L8.58758 9.91672L7.79889 10.2342L7.97365 10.4214C8.03078 10.4826 8.08674 10.5469 8.14138 10.6146H7.58339V13.8056H8.42626V11.0185C8.43718 11.0363 8.44802 11.0542 8.45879 11.0723L8.55572 11.2354L9.3194 10.8814L9.31735 10.878H10.6294V13.0375L10.6292 13.047L10.0371 13.0289L10.2759 13.7722H10.7671C10.9647 13.7722 11.151 13.7275 11.2865 13.607C11.422 13.4865 11.4723 13.3209 11.4723 13.1451V10.1507H9.07719V10.4972C8.96021 10.329 8.83146 10.1713 8.68939 10.023Z" fill="black"/>
</svg>
