<svg width="14" height="14" viewBox="0 0 14 14" fill="none" xmlns="http://www.w3.org/2000/svg">
<path fill-rule="evenodd" clip-rule="evenodd" d="M5.05561 1.36117C5.05561 1.039 4.79444 0.777832 4.47228 0.777832C4.15011 0.777832 3.88894 1.039 3.88894 1.36117V1.55561H2.33339C1.47428 1.55561 0.777832 2.25206 0.777832 3.11117V11.6667C0.777832 12.5258 1.47428 13.2223 2.33339 13.2223H11.6667C12.5258 13.2223 13.2223 12.5258 13.2223 11.6667V3.11117C13.2223 2.25206 12.5258 1.55561 11.6667 1.55561H9.72228V1.36117C9.72228 1.039 9.46111 0.777832 9.13894 0.777832C8.81678 0.777832 8.55561 1.039 8.55561 1.36117V1.55561H5.05561V1.36117ZM8.55561 3.30561V2.72228H5.05561V3.30561C5.05561 3.62778 4.79444 3.88894 4.47228 3.88894C4.15011 3.88894 3.88894 3.62778 3.88894 3.30561V2.72228H2.33339C2.11861 2.72228 1.9445 2.89639 1.9445 3.11117V11.6667C1.9445 11.8815 2.11861 12.0556 2.33339 12.0556H11.6667C11.8815 12.0556 12.0556 11.8815 12.0556 11.6667V3.11117C12.0556 2.89639 11.8815 2.72228 11.6667 2.72228H9.72228V3.30561C9.72228 3.62778 9.46111 3.88894 9.13894 3.88894C8.81678 3.88894 8.55561 3.62778 8.55561 3.30561ZM3.71311 8.85119C3.46997 8.63983 3.44421 8.27139 3.65557 8.02824C3.86693 7.7851 4.23538 7.75934 4.47852 7.9707L6.0948 9.47737L9.13228 6.1001C9.34364 5.85696 9.71208 5.8312 9.95523 6.04256C10.1984 6.25392 10.2241 6.62236 10.0128 6.86551L6.73284 10.5378C6.44481 10.8603 5.94906 10.8859 5.62927 10.5949L3.71311 8.85119Z" fill="#2196F3"/>
</svg>
