<svg width="13" height="13" viewBox="0 0 13 13" fill="none" xmlns="http://www.w3.org/2000/svg">
<path fill-rule="evenodd" clip-rule="evenodd" d="M8.75005 3.66678C8.75005 4.74066 7.8795 5.61122 6.80561 5.61122C5.73172 5.61122 4.86117 4.74066 4.86117 3.66678C4.86117 2.59289 5.73172 1.72233 6.80561 1.72233C7.8795 1.72233 8.75005 2.59289 8.75005 3.66678ZM8.3184 6.38596C9.27185 5.85439 9.91672 4.83589 9.91672 3.66678C9.91672 1.94856 8.52383 0.555664 6.80561 0.555664C5.08739 0.555664 3.6945 1.94856 3.6945 3.66678C3.6945 4.83589 4.33937 5.85439 5.29282 6.38596C2.69596 7.05714 0.777832 9.41574 0.777832 12.2223H1.9445C1.9445 9.53761 4.12089 7.36122 6.80561 7.36122C9.49033 7.36122 11.6667 9.53761 11.6667 12.2223H12.8334C12.8334 9.41573 10.9153 7.05714 8.3184 6.38596Z" fill="black"/>
</svg>
