<svg width="14" height="14" viewBox="0 0 14 14" fill="none" xmlns="http://www.w3.org/2000/svg">
<path fill-rule="evenodd" clip-rule="evenodd" d="M2.83015 7.88777L8.39836 2.06463C8.47717 1.98221 8.58817 1.93854 8.70201 1.94516L11.8817 2.13005C12.0769 2.1414 12.2332 2.29582 12.2471 2.49079L12.461 5.50935C12.4687 5.61875 12.4299 5.72633 12.3541 5.8056L6.76513 11.6505C6.61669 11.8057 6.37052 11.8112 6.21529 11.6628L2.84246 8.4376C2.68723 8.28917 2.68172 8.043 2.83015 7.88777ZM2.03616 9.28081C1.41524 8.68707 1.39321 7.7024 1.98694 7.08147L7.55515 1.25833C7.87038 0.92868 8.31439 0.753982 8.76973 0.780459L11.9494 0.965351C12.73 1.01074 13.3555 1.62843 13.4108 2.40833L13.6247 5.42688C13.6557 5.86448 13.5005 6.29483 13.1973 6.61189L7.60834 12.4568C7.0146 13.0777 6.02992 13.0997 5.409 12.506L2.03616 9.28081ZM9.2054 5.51733C9.2054 5.73211 9.03128 5.90622 8.81651 5.90622C8.60173 5.90622 8.42762 5.73211 8.42762 5.51733C8.42762 5.30255 8.60173 5.12844 8.81651 5.12844C9.03128 5.12844 9.2054 5.30255 9.2054 5.51733ZM10.3721 5.51733C10.3721 6.37644 9.67562 7.07289 8.81651 7.07289C7.9574 7.07289 7.26095 6.37644 7.26095 5.51733C7.26095 4.65822 7.9574 3.96178 8.81651 3.96178C9.67562 3.96178 10.3721 4.65822 10.3721 5.51733Z" fill="black"/>
</svg>
