<svg width="60" height="60" viewBox="0 0 60 60" fill="none" xmlns="http://www.w3.org/2000/svg">
<path d="M50.7414 9.25875C62.1974 20.7148 62.1974 39.2854 50.7414 50.7414C39.2854 62.1974 20.7148 62.1974 9.25875 50.7414C-2.19725 39.2854 -2.19725 20.7148 9.25875 9.25875C20.7148 -2.19725 39.2854 -2.19725 50.7414 9.25875ZM6.00008 30.0001C6.00008 36.1414 8.34408 42.2854 13.0294 46.9707C15.2556 49.2027 17.9009 50.9726 20.8133 52.179C23.7257 53.3853 26.8477 54.0042 30.0001 54.0001C35.3068 54.0001 40.6134 52.2508 44.9814 48.7521L11.2481 15.0188C7.84501 19.2699 5.99375 24.5546 6.00008 30.0001ZM30.0001 6.00008C24.6934 6.00008 19.3868 7.74942 15.0188 11.2481L48.7521 44.9814C52.1552 40.7303 54.0064 35.4455 54.0001 30.0001C54.0042 26.8477 53.3853 23.7257 52.179 20.8133C50.9726 17.9009 49.2027 15.2556 46.9707 13.0294C44.7446 10.7975 42.0993 9.02753 39.1869 7.8212C36.2745 6.61487 33.1524 5.99598 30.0001 6.00008Z" fill="#E0E0E0"/>
</svg>
