<svg width="36" height="36" viewBox="0 0 36 36" fill="none" xmlns="http://www.w3.org/2000/svg">
<circle cx="18" cy="18" r="18" fill="url(#paint0_linear)"/>
<path d="M9.45681 10.8C9.66477 10.8 9.8642 10.8826 10.0112 11.0296C10.1583 11.1766 10.2409 11.3759 10.2409 11.5838V18.6374H26.9028C27.0628 18.6374 27.2016 18.6961 27.3168 18.8114C27.3723 18.865 27.4164 18.9293 27.4463 19.0004C27.4762 19.0716 27.4914 19.148 27.4909 19.2252V24.9072C27.4909 25.1151 27.4083 25.3144 27.2612 25.4614C27.1142 25.6084 26.9148 25.691 26.7068 25.691C26.4988 25.691 26.2994 25.6084 26.1524 25.4614C26.0053 25.3144 25.9227 25.1151 25.9227 24.9072V23.3398H10.2409V24.9072C10.2409 25.1151 10.1583 25.3144 10.0112 25.4614C9.8642 25.6084 9.66477 25.691 9.45681 25.691C9.24886 25.691 9.04942 25.6084 8.90238 25.4614C8.75533 25.3144 8.67272 25.1151 8.67272 24.9072V11.5838C8.67272 11.3759 8.75533 11.1766 8.90238 11.0296C9.04942 10.8826 9.24886 10.8 9.45681 10.8ZM23.5704 13.1512C24.6102 13.1512 25.6074 13.5641 26.3426 14.299C27.0778 15.0339 27.4909 16.0306 27.4909 17.0699L11.8091 17.2658V13.1512H23.5704Z" fill="white"/>
<defs>
<linearGradient id="paint0_linear" x1="23.434" y1="-3.39623" x2="18" y2="36" gradientUnits="userSpaceOnUse">
<stop stop-color="#FF7D7D"/>
</linearGradient>
</defs>
</svg>
