<svg width="14" height="14" viewBox="0 0 14 14" fill="none" xmlns="http://www.w3.org/2000/svg">
<circle cx="7" cy="7" r="7" fill="url(#paint0_linear)"/>
<path d="M6.99993 3.30908C6.53656 3.30908 6.16586 3.61754 6.01141 4.01853H4.52862C4.12703 4.01853 3.81812 4.32699 3.81812 4.72798V9.66327C3.81812 10.0643 4.12703 10.3727 4.52862 10.3727H9.47125C9.87284 10.3727 10.1818 10.0643 10.1818 9.66327V4.72798C10.1818 4.32699 9.87284 4.01853 9.47125 4.01853H7.98846C7.86489 3.58669 7.4633 3.30908 6.99993 3.30908ZM8.63718 5.6225L9.13144 6.11603L6.28943 8.92298L4.86842 7.50408L5.36269 7.01055L6.28943 7.90507L8.63718 5.6225ZM6.99993 4.01853C7.18528 4.01853 7.33974 4.17276 7.33974 4.35783C7.33974 4.54291 7.18528 4.69713 6.99993 4.69713C6.81458 4.69713 6.66013 4.54291 6.66013 4.35783C6.66013 4.17276 6.81458 4.01853 6.99993 4.01853Z" fill="white"/>
<defs>
<linearGradient id="paint0_linear" x1="9.11321" y1="-1.32075" x2="7" y2="14" gradientUnits="userSpaceOnUse">
<stop stop-color="#60D4ED"/>
</linearGradient>
</defs>
</svg>
