<svg width="36" height="36" viewBox="0 0 36 36" fill="none" xmlns="http://www.w3.org/2000/svg">
<circle cx="18" cy="18" r="18" fill="url(#paint0_linear)"/>
<path d="M17.4137 8.50909H10.7629C10.3807 8.51124 10.0149 8.66458 9.74578 8.93549C9.47668 9.2064 9.32625 9.57276 9.32749 9.95419V16.9671C9.32141 17.5948 9.44006 18.2175 9.67659 18.7992C9.91312 19.3808 10.2628 19.91 10.7055 20.356C11.1482 20.802 11.6751 21.1561 12.2557 21.3977C12.8364 21.6394 13.4593 21.7638 14.0884 21.7638C14.7175 21.7638 15.3404 21.6394 15.921 21.3977C16.5016 21.1561 17.0285 20.802 17.4712 20.356C17.9139 19.91 18.2636 19.3808 18.5002 18.7992C18.7367 18.2175 18.8553 17.5948 18.8493 16.9671V9.95419C18.8505 9.57274 18.7001 9.20637 18.4309 8.93546C18.1618 8.66454 17.796 8.51121 17.4137 8.50909ZM13.2834 16.1342H16.8926C17.0726 16.1342 17.2453 16.2056 17.3726 16.3326C17.4999 16.4596 17.5714 16.6319 17.5714 16.8115C17.5714 16.9911 17.4999 17.1634 17.3726 17.2904C17.2453 17.4174 17.0726 17.4888 16.8926 17.4888H13.213C12.5008 17.4888 11.9212 16.8406 11.9212 16.0437V13.4296C11.9212 12.6328 12.5007 11.9845 13.213 11.9845H16.8926C17.0726 11.9845 17.2453 12.0559 17.3726 12.1829C17.4999 12.3099 17.5714 12.4822 17.5714 12.6618C17.5714 12.8415 17.4999 13.0138 17.3726 13.1408C17.2453 13.2678 17.0726 13.3392 16.8926 13.3392H13.2834C13.2719 13.368 13.2662 13.3988 13.2667 13.4298V16.0436C13.2662 16.0746 13.2719 16.1054 13.2834 16.1342ZM26.0132 20.2839H25.4367V12.7559C25.439 12.3907 25.3689 12.0287 25.2305 11.6906C25.092 11.3526 24.888 11.0452 24.63 10.7862C24.372 10.5271 24.0653 10.3215 23.7274 10.1812C23.3895 10.041 23.0271 9.96874 22.6611 9.96874C22.2951 9.96874 21.9328 10.041 21.5949 10.1812C21.257 10.3215 20.9502 10.5271 20.6923 10.7862C20.4343 11.0452 20.2302 11.3526 20.0918 11.6906C19.9533 12.0287 19.8832 12.3907 19.8855 12.7559V15.4685C19.7195 15.5805 19.5835 15.7315 19.4897 15.9082C19.3958 16.0849 19.3469 16.282 19.3473 16.4819V19.2287C19.3469 19.4287 19.3958 19.6257 19.4897 19.8024C19.5835 19.9791 19.7195 20.1301 19.8855 20.2421V23.11C19.892 23.7752 19.6495 24.4189 19.2055 24.9152C18.7616 25.4115 18.148 25.7247 17.4849 25.7936C16.8218 25.8625 16.1568 25.6822 15.6199 25.2878C15.0829 24.8934 14.7127 24.3134 14.5817 23.6611H15.2427C15.4228 23.6611 15.5954 23.5898 15.7227 23.4628C15.85 23.3357 15.9215 23.1635 15.9215 22.9838C15.9215 22.8042 15.85 22.6319 15.7227 22.5049C15.5954 22.3779 15.4228 22.3065 15.2427 22.3065H12.4618C12.2817 22.3065 12.1091 22.3779 11.9818 22.5049C11.8545 22.6319 11.783 22.8042 11.783 22.9838C11.783 23.1635 11.8545 23.3357 11.9818 23.4628C12.1091 23.5898 12.2817 23.6611 12.4618 23.6611H13.2176C13.3485 24.6765 13.8631 25.6036 14.6563 26.2528C15.4494 26.9021 16.4612 27.2245 17.4847 27.1541C18.5082 27.0837 19.4661 26.6259 20.1624 25.8741C20.8588 25.1224 21.2411 24.1336 21.2311 23.11V20.2421C21.3972 20.1301 21.5331 19.9791 21.627 19.8024C21.7208 19.6257 21.7697 19.4287 21.7693 19.2287V16.4819C21.7697 16.282 21.7208 16.0849 21.6269 15.9082C21.5331 15.7315 21.3971 15.5805 21.2311 15.4685V12.7553C21.2277 12.5659 21.2622 12.3776 21.3326 12.2016C21.4029 12.0255 21.5077 11.8652 21.6408 11.7301C21.774 11.5949 21.9327 11.4875 22.1079 11.4142C22.283 11.3409 22.471 11.3032 22.661 11.3032C22.8509 11.3032 23.0389 11.3409 23.2141 11.4142C23.3892 11.4875 23.548 11.5949 23.6811 11.7301C23.8142 11.8652 23.919 12.0255 23.9893 12.2016C24.0597 12.3776 24.0942 12.5659 24.0908 12.7553V20.2834H23.514C23.334 20.2834 23.1613 20.3548 23.034 20.4818C22.9067 20.6088 22.8352 20.7811 22.8352 20.9607C22.8352 21.1403 22.9067 21.3126 23.034 21.4396C23.1613 21.5666 23.334 21.638 23.514 21.638H24.0908V23.6322C24.0908 23.8102 24.1617 23.9809 24.2879 24.1068C24.4141 24.2327 24.5852 24.3035 24.7636 24.3035C24.942 24.3035 25.1131 24.2327 25.2393 24.1068C25.3655 23.9809 25.4364 23.8102 25.4364 23.6322V21.638H26.0132C26.1898 21.633 26.3575 21.5595 26.4806 21.4331C26.6038 21.3067 26.6727 21.1374 26.6727 20.9611C26.6728 20.7849 26.6039 20.6155 26.4809 20.4891C26.3578 20.3626 26.1901 20.289 26.0135 20.2839H26.0132Z" fill="white"/>
<defs>
<linearGradient id="paint0_linear" x1="23.434" y1="-3.39623" x2="18" y2="36" gradientUnits="userSpaceOnUse">
<stop stop-color="#5288F5"/>
</linearGradient>
</defs>
</svg>
