<svg width="36" height="36" viewBox="0 0 36 36" fill="none" xmlns="http://www.w3.org/2000/svg">
<circle cx="18" cy="18" r="18" fill="url(#paint0_linear)"/>
<path d="M26.1095 12.5178L19.0506 8.42125C18.7802 8.2644 18.4735 8.18182 18.1613 8.18182C17.8491 8.18182 17.5424 8.2644 17.272 8.42125L10.2153 12.52C9.66466 12.8393 9.32715 13.4286 9.32715 14.0671V22.2602C9.32715 22.8987 9.66688 23.4903 10.2153 23.8095L17.2742 27.906C17.8249 28.2253 18.5021 28.2253 19.0528 27.906L26.1117 23.8073C26.6624 23.488 26.9999 22.8987 26.9999 22.2602V14.0671C26.9977 13.4264 26.6601 12.837 26.1095 12.5178ZM18.3733 21.3717C18.2978 21.3761 18.229 21.3784 18.1557 21.3784C17.383 21.3784 16.6436 21.0993 16.0574 20.5836C15.4157 20.0188 15.0315 19.2374 14.9738 18.3824C14.8583 16.6166 16.1928 15.0851 17.9492 14.9668C18.7952 14.911 19.6213 15.19 20.2652 15.7548C20.9069 16.3196 21.291 17.101 21.3488 17.956C21.4642 19.7197 20.1297 21.2533 18.3733 21.3717Z" fill="white"/>
<path d="M19.0527 17.1804C18.8314 16.9691 18.5469 16.8546 18.2497 16.8546C18.2202 16.8546 18.1949 16.8546 18.1654 16.8568C17.4888 16.9062 16.9766 17.5286 17.0209 18.2499C17.044 18.6004 17.1916 18.9195 17.4361 19.1487C17.6827 19.3778 17.9967 19.4924 18.3256 19.47C19.0021 19.4205 19.5143 18.7981 19.4701 18.0769C19.4469 17.7286 19.3014 17.4095 19.0527 17.1804Z" fill="white"/>
<defs>
<linearGradient id="paint0_linear" x1="23.434" y1="-3.39623" x2="18" y2="36" gradientUnits="userSpaceOnUse">
<stop stop-color="#636B74"/>
</linearGradient>
</defs>
</svg>
