<svg width="16" height="16" viewBox="0 0 16 16" fill="none" xmlns="http://www.w3.org/2000/svg">
<path d="M7.13398 1.5C7.51888 0.833333 8.48112 0.833333 8.86603 1.5L14.0622 10.5C14.4471 11.1667 13.966 12 13.1962 12H2.80385C2.03405 12 1.55292 11.1667 1.93782 10.5L7.13398 1.5Z" fill="#ECF021"/>
<g clip-path="url(#clip0)">
<path d="M10.5 8.36461C10.5007 8.22204 10.4821 8.08002 10.4447 7.94245C10.3965 7.75852 10.3155 7.58479 10.2056 7.42965C10.1385 7.33258 10.0585 7.24801 9.97611 7.16558C9.90721 7.09962 9.83162 7.04102 9.75058 6.99072C9.67921 6.94361 9.60249 6.904 9.52219 6.87474C9.49971 6.86653 9.49079 6.85797 9.49436 6.82799C9.50399 6.74984 9.51506 6.67062 9.51184 6.59246C9.50721 6.48791 9.49757 6.38335 9.47901 6.2795C9.44761 6.10357 9.38123 5.94334 9.30166 5.78954C9.26383 5.71638 9.21601 5.64751 9.16212 5.5847C9.13286 5.55044 9.10717 5.51262 9.07577 5.48121C8.98441 5.39129 8.88735 5.30921 8.78314 5.23641C8.64861 5.1422 8.50016 5.08439 8.34814 5.03586C8.29282 5.01801 8.23394 5.01302 8.17684 5.0016C8.164 4.9991 8.15615 5.0041 8.15615 5.01801C8.1565 5.038 8.14723 5.06405 8.1772 5.06904C8.23573 5.07904 8.29032 5.10366 8.34599 5.12543C8.42525 5.15785 8.50026 5.19979 8.56939 5.25033C8.63291 5.29529 8.69072 5.34811 8.74532 5.40378C8.78528 5.44481 8.81776 5.4937 8.85059 5.54117C8.90132 5.61499 8.94167 5.69545 8.97049 5.78026C8.99739 5.86036 9.01675 5.94279 9.0283 6.02649C9.054 6.1985 9.03187 6.36443 8.9812 6.52609C8.93338 6.67954 8.85237 6.81336 8.74781 6.92934C8.70071 6.98144 8.65717 7.03746 8.60115 7.07922C8.45269 7.1902 8.28747 7.25515 8.11083 7.28655C8.08406 7.29119 8.05694 7.29262 8.02982 7.29369C8.01198 7.29404 8.00377 7.30082 8.00377 7.32045V7.45106C8.00377 7.46605 8.00841 7.47533 8.02375 7.4789C8.07965 7.49318 8.1306 7.52242 8.17113 7.56347C8.20833 7.6023 8.23531 7.64975 8.24964 7.70157C8.26692 7.75764 8.26592 7.81776 8.24679 7.87322C8.24215 7.88643 8.24322 7.89392 8.25464 7.90106C8.29104 7.92354 8.32708 7.94709 8.36348 7.96957C8.3799 7.97956 8.38739 7.96565 8.39488 7.95387C8.43362 7.89475 8.47757 7.83922 8.52621 7.78793C8.59291 7.71862 8.66951 7.65957 8.75352 7.61272C8.87057 7.54527 8.99083 7.49139 9.12466 7.46997C9.26443 7.44703 9.40727 7.45054 9.54575 7.48032C9.63353 7.49924 9.7149 7.53742 9.79626 7.57667C9.8894 7.62501 9.97441 7.68762 10.0482 7.76224C10.1303 7.84075 10.2063 7.92746 10.2559 8.03452C10.3191 8.17048 10.3712 8.31108 10.3836 8.4656C10.3965 8.62262 10.3876 8.77607 10.3383 8.92595C10.3337 8.94022 10.3212 8.95771 10.3394 8.9727C10.3662 8.99446 10.3772 8.99125 10.3908 8.95842C10.4358 8.84423 10.4674 8.7252 10.485 8.60371C10.4975 8.5252 10.495 8.44455 10.4993 8.36461H10.5ZM5.94649 9.50441C5.95577 9.53011 5.97825 9.54152 5.99503 9.55758C6.15561 9.71103 6.33618 9.82523 6.54102 9.89731C6.73104 9.96934 6.93408 10.0006 7.13697 9.98902C7.22766 9.98446 7.31779 9.97216 7.40639 9.95227C7.52794 9.92318 7.64524 9.87856 7.7554 9.81952C7.83319 9.77883 7.90492 9.72745 7.97915 9.68034C7.9952 9.66999 8.00662 9.66892 8.02126 9.68177C8.11404 9.76242 8.22002 9.82023 8.32851 9.86948C8.41377 9.90765 8.50291 9.93648 8.59437 9.95548C8.69681 9.97811 8.80107 9.9916 8.9059 9.9958C9.12453 10.0006 9.3416 9.95803 9.54218 9.8709C9.65493 9.82144 9.76181 9.75956 9.86085 9.68641C9.94788 9.62416 10.0252 9.54936 10.0903 9.46444C10.1099 9.43875 10.1331 9.41627 10.1535 9.39093C10.1631 9.37916 10.1735 9.36488 10.1524 9.35168C10.1367 9.34133 10.1242 9.3242 10.1057 9.34954C10.0271 9.45552 9.92366 9.52547 9.81482 9.58792C9.71632 9.6443 9.61283 9.68462 9.50364 9.70818C9.4626 9.71674 9.42013 9.72174 9.37838 9.72281C9.28274 9.72566 9.18639 9.72959 9.09218 9.70996C8.99226 9.68926 8.89377 9.66357 8.80313 9.60683C8.74353 9.56936 8.68251 9.53403 8.62577 9.49085C8.54976 9.43304 8.49231 9.35596 8.43521 9.27816C8.36776 9.1861 8.3096 9.0876 8.27427 8.97733C8.24786 8.89454 8.22431 8.80961 8.21824 8.72076C8.21467 8.66794 8.2136 8.61548 8.2136 8.56302C8.2143 8.43155 8.23897 8.30131 8.2864 8.17869C8.29782 8.14871 8.30281 8.11624 8.32101 8.08948C8.32922 8.07734 8.32173 8.06842 8.31209 8.06236L8.20504 7.99527C8.19219 7.98742 8.18255 7.99277 8.17363 8.0049C8.12225 8.0727 8.05016 8.09376 7.97451 8.10161C7.9419 8.10515 7.90892 8.10224 7.87744 8.09304C7.8257 8.07806 7.77681 8.06093 7.74184 8.01382C7.73006 7.99741 7.71793 7.99669 7.7008 8.00847C7.67154 8.02845 7.64049 8.04487 7.6098 8.06236C7.59303 8.07199 7.58696 8.08341 7.59767 8.10339C7.65548 8.21331 7.67653 8.33642 7.70116 8.4574C7.71186 8.50878 7.70651 8.56445 7.70579 8.61798C7.7033 8.80248 7.65905 8.97555 7.5759 9.13542C7.50025 9.28173 7.3989 9.40628 7.27543 9.50798C7.23118 9.54438 7.18407 9.57721 7.13126 9.60076C7.08201 9.62253 7.03705 9.65429 6.98566 9.67178C6.88217 9.70675 6.77725 9.72887 6.66877 9.72994C6.5767 9.73102 6.48499 9.72887 6.39435 9.71067C6.34367 9.70033 6.29371 9.68605 6.24554 9.66607C6.15133 9.62681 6.05783 9.58506 5.9779 9.51583C5.96969 9.50869 5.96112 9.49835 5.94649 9.50441ZM6.60739 7.45963C6.77929 7.46111 6.94835 7.50356 7.10057 7.58345C7.22231 7.65009 7.33236 7.73616 7.42638 7.83825C7.45992 7.87394 7.49204 7.91319 7.51595 7.95815C7.5263 7.97742 7.53736 7.98064 7.5552 7.96993C7.58732 7.94923 7.62015 7.92996 7.65227 7.90962C7.67332 7.89677 7.66297 7.8775 7.65905 7.86073C7.64672 7.80959 7.64685 7.75623 7.6594 7.70514C7.66794 7.66512 7.68485 7.62735 7.70902 7.59432C7.73319 7.56129 7.76408 7.53375 7.79965 7.51351C7.8257 7.49781 7.85175 7.48175 7.88208 7.47747C7.89707 7.47533 7.90456 7.46498 7.90456 7.44785C7.90385 7.40503 7.90421 7.3622 7.90456 7.31974C7.90456 7.30225 7.89743 7.29476 7.88065 7.29369C7.75504 7.28762 7.63442 7.25586 7.51809 7.20519C7.4634 7.18066 7.41078 7.15178 7.36071 7.11883C7.25045 7.04746 7.16409 6.94932 7.08808 6.84191C6.97456 6.68726 6.90279 6.50598 6.87967 6.31554C6.85628 6.12064 6.88116 5.92297 6.95211 5.73993C6.99584 5.6302 7.05626 5.52788 7.13126 5.43661C7.20973 5.34315 7.30334 5.26354 7.40818 5.20108C7.50547 5.13825 7.61349 5.09386 7.72685 5.07012C7.75076 5.06548 7.7579 5.04977 7.75219 5.0173C7.7479 4.99303 7.73327 5.00196 7.71971 5.00338C7.59838 5.01766 7.4824 5.05406 7.36999 5.10295C7.1672 5.19362 6.9834 5.32185 6.82828 5.48086C6.76155 5.54973 6.70553 5.63002 6.652 5.7121C6.5817 5.81987 6.53424 5.93906 6.48784 6.05968C6.44359 6.1753 6.42182 6.29627 6.40862 6.41903C6.39792 6.51895 6.39006 6.61994 6.40398 6.72129C6.41112 6.77196 6.41041 6.82406 6.42075 6.87474C6.42432 6.89258 6.41112 6.89722 6.40006 6.90257C6.3501 6.9272 6.29942 6.95003 6.25232 6.98287C6.1367 7.06387 6.02464 7.15059 5.92508 7.25336C5.86263 7.3176 5.81196 7.39325 5.76235 7.46962C5.6685 7.61343 5.59963 7.77009 5.55788 7.93924C5.53646 8.02738 5.51505 8.11588 5.51327 8.20938C5.51256 8.27147 5.50221 8.33428 5.50435 8.39673C5.50613 8.45525 5.5097 8.51378 5.51256 8.5723C5.51256 8.58015 5.51041 8.59193 5.52076 8.59086C5.52933 8.59015 5.5279 8.57837 5.52861 8.57052C5.5329 8.52127 5.53646 8.47167 5.54146 8.42278C5.55432 8.32082 5.58197 8.22128 5.62354 8.1273C5.67278 8.00776 5.73523 7.8982 5.82623 7.8097C5.90224 7.73583 5.97968 7.66339 6.06889 7.60879C6.14049 7.56597 6.21724 7.53239 6.29728 7.50887C6.39744 7.47633 6.50208 7.45971 6.60739 7.45963ZM9.36089 7.78722C9.36589 7.72227 9.35625 7.65697 9.34983 7.59166C9.34662 7.56311 9.33627 7.55062 9.30701 7.54991C9.20638 7.54813 9.10931 7.56775 9.01296 7.59523C8.98834 7.60237 8.97906 7.61593 8.98156 7.64269C8.98793 7.70612 8.99044 7.76988 8.98905 7.83361C8.98512 7.96493 8.96014 8.09055 8.9084 8.21081C8.85594 8.3325 8.78528 8.43777 8.70107 8.53555C8.6222 8.62726 8.52728 8.69185 8.42914 8.75323C8.40416 8.76857 8.37561 8.77643 8.34849 8.78856C8.33672 8.79391 8.32815 8.8014 8.33136 8.81853C8.35239 8.92682 8.39199 9.03065 8.44841 9.12543C8.46126 9.14756 8.47589 9.14827 8.49587 9.13935C8.73213 9.03811 8.93482 8.87192 9.0804 8.66009C9.14869 8.56388 9.20647 8.46064 9.25277 8.35212C9.29789 8.24203 9.32894 8.12669 9.34519 8.00883C9.35483 7.93567 9.36589 7.86252 9.36089 7.78722ZM6.55743 7.71585C6.54316 7.81505 6.55672 7.91462 6.5717 8.01097C6.58727 8.12158 6.6154 8.23005 6.65557 8.33428C6.71248 8.47267 6.78735 8.60297 6.87824 8.72183C6.94652 8.81166 7.02604 8.89237 7.11484 8.96199C7.21298 9.0405 7.32182 9.09902 7.43494 9.14863C7.45064 9.15576 7.45921 9.14827 7.46777 9.13542C7.49112 9.09841 7.51027 9.05891 7.52487 9.01766C7.54983 8.95726 7.57034 8.89512 7.58625 8.83174C7.59089 8.81104 7.58696 8.79926 7.56805 8.79177C7.48847 8.75965 7.41781 8.71076 7.34573 8.6633C7.27507 8.61655 7.22083 8.55089 7.16658 8.48559C7.06559 8.36426 6.99815 8.2208 6.95747 8.0645C6.92549 7.94391 6.91605 7.81845 6.92963 7.69444C6.93784 7.62021 6.93962 7.61807 6.87289 7.5963C6.81472 7.57739 6.75513 7.56525 6.69375 7.56276C6.66377 7.56133 6.63415 7.55919 6.60454 7.55669C6.58098 7.55491 6.56814 7.56204 6.56778 7.59202C6.56671 7.63306 6.561 7.6741 6.55707 7.71549L6.55743 7.71585ZM7.95881 6.32625C7.82927 6.33767 7.70437 6.34516 7.58232 6.38121C7.45492 6.41868 7.33609 6.47613 7.2219 6.54679C7.18086 6.57248 7.14339 6.60495 7.10413 6.63457C7.09057 6.64528 7.08522 6.65706 7.09521 6.67561C7.14589 6.77018 7.21476 6.84797 7.28613 6.92398C7.30397 6.9429 7.31468 6.94468 7.33752 6.92862C7.44565 6.85119 7.55984 6.78588 7.68581 6.75019C7.75485 6.72836 7.8268 6.71705 7.89921 6.71665C7.99663 6.71843 8.0937 6.7138 8.18969 6.74056C8.25964 6.76054 8.32637 6.78909 8.39381 6.81657C8.46019 6.84333 8.51871 6.88509 8.57474 6.93076C8.58866 6.94183 8.59722 6.9429 8.61043 6.93005C8.68737 6.85728 8.75369 6.77402 8.80741 6.68275C8.82561 6.6517 8.82311 6.64492 8.7967 6.62351C8.6763 6.52788 8.54072 6.45309 8.3956 6.40226C8.3153 6.37335 8.23251 6.34945 8.14651 6.34374C8.08228 6.33981 8.01804 6.33196 7.95881 6.32589V6.32625Z" fill="#5A5A5A"/>
</g>
<defs>
<clipPath id="clip0">
<rect width="5" height="5" fill="white" transform="matrix(-1 0 0 1 10.5 5)"/>
</clipPath>
</defs>
</svg>
