<svg width="12" height="12" viewBox="0 0 12 12" fill="none" xmlns="http://www.w3.org/2000/svg">
<path d="M9.59905 0H2.39902C1.07353 0 -0.000976562 1.07452 -0.000976562 2.4V9.60001C-0.000976562 10.9255 1.07353 12 2.39902 12H9.59905C10.9245 12 11.999 10.9255 11.999 9.60001V2.4C11.999 1.07452 10.9245 0 9.59905 0ZM9.59905 5.3C9.59905 5.52092 9.41994 5.70001 9.19902 5.70001C8.97811 5.70001 8.79904 5.52092 8.79904 5.3V3.66601L7.41304 5.05401C8.27572 6.10257 8.18628 7.6384 7.20769 8.57971C6.22909 9.52102 4.69099 9.55079 3.67667 8.64808C2.66238 7.74538 2.51354 6.21414 3.33496 5.13298C4.1564 4.0518 5.67149 3.78479 6.81304 4.52L8.23304 3.09999H6.59903C6.37811 3.09999 6.19903 2.92091 6.19903 2.7C6.19903 2.47908 6.37811 2.29999 6.59903 2.29999H9.19902C9.41994 2.29999 9.59905 2.47908 9.59905 2.7V5.3Z" fill="#427DFF"/>
</svg>
