<svg width="36" height="36" viewBox="0 0 36 36" fill="none" xmlns="http://www.w3.org/2000/svg">
<circle cx="18" cy="18" r="18" fill="url(#paint0_linear)"/>
<path d="M12.7971 8.18182H23.3667C25.7889 8.18182 27.0001 9.38183 27.0001 11.7819V24.2182C27.0001 26.6182 25.7889 27.8182 23.3667 27.8182H12.7971C10.3748 27.8182 9.1637 26.6182 9.1637 24.2182V11.7819C9.1637 9.38183 10.3748 8.18182 12.7971 8.18182Z" fill="white"/>
<path d="M21.9085 12.1091C24.1985 12.1145 26.1158 13.9412 26.234 16.2321C26.2691 16.906 26.1474 17.5788 25.8783 18.1974C25.6093 18.8159 25.2003 19.3632 24.6839 19.7959C25.5542 20.1688 26.3416 20.712 27 21.3937V24.2229C26.5808 23.2129 25.873 22.35 24.9657 21.7425C24.0584 21.1351 22.9922 20.8104 21.9013 20.8092C20.5578 20.8109 19.2609 21.303 18.253 22.1936C17.2451 23.0843 16.5951 24.3125 16.4245 25.6488C16.4004 25.8404 16.3077 26.0167 16.1636 26.1449C16.0195 26.273 15.8339 26.3443 15.6413 26.3454C15.5287 26.3449 15.4176 26.3203 15.3153 26.2733C15.213 26.2263 15.1218 26.158 15.0479 26.0729C14.9739 25.9878 14.9189 25.8879 14.8865 25.7798C14.8541 25.6717 14.845 25.558 14.8599 25.4461C15.0169 24.2137 15.4925 23.0439 16.2396 22.0528C16.9866 21.0617 17.9791 20.2836 19.1187 19.7959C18.4352 19.2223 17.9446 18.4516 17.7134 17.5885C17.4822 16.7255 17.5217 15.812 17.8265 14.9722C18.1313 14.1324 18.6867 13.4072 19.417 12.8951C20.1474 12.383 21.0173 12.1088 21.9085 12.11V12.1091ZM21.9013 13.6915C21.1691 13.6917 20.467 13.9835 19.9492 14.5026C19.4315 15.0218 19.1406 15.7259 19.1403 16.4601C19.1408 17.1941 19.4319 17.8979 19.9496 18.4169C20.4673 18.9358 21.1693 19.2275 21.9013 19.2277C22.6335 19.2275 23.3356 18.9357 23.8533 18.4165C24.371 17.8974 24.662 17.1933 24.6622 16.4591C24.662 15.725 24.371 15.0209 23.8533 14.5017C23.3356 13.9826 22.6335 13.6908 21.9013 13.6906V13.6915ZM15.1974 13.6915H13.225C13.0161 13.6908 12.8159 13.6072 12.6682 13.4591C12.5204 13.311 12.4371 13.1102 12.4364 12.9007C12.4364 12.4655 12.791 12.11 13.225 12.11H15.1965C15.6296 12.11 15.9851 12.4655 15.9851 12.9007C15.9851 13.335 15.6305 13.6915 15.1965 13.6915H15.1974ZM15.1974 17.2499H13.225C13.0161 17.2492 12.8159 17.1656 12.6682 17.0175C12.5204 16.8694 12.4371 16.6686 12.4364 16.4591C12.4364 16.0249 12.791 15.6684 13.225 15.6684H15.1965C15.6296 15.6684 15.9851 16.0249 15.9851 16.4591C15.9851 16.8943 15.6305 17.2499 15.1965 17.2499H15.1974Z" fill="#348FFF"/>
<defs>
<linearGradient id="paint0_linear" x1="23.434" y1="-3.39623" x2="18" y2="36" gradientUnits="userSpaceOnUse">
<stop stop-color="#338EFF"/>
</linearGradient>
</defs>
</svg>
