<svg width="11" height="12" viewBox="0 0 11 12" fill="none" xmlns="http://www.w3.org/2000/svg">
<path d="M9.34015 11.0344H1.65985C0.742711 11.0344 0 10.2889 0 9.36847V1.66588C0 0.745412 0.742711 0 1.65985 0H9.34015C10.2573 0 11 0.745412 11 1.66588V9.37412C10.9944 10.2889 10.2573 11.0344 9.34015 11.0344Z" fill="#00CCA8"/>
<path d="M7.23288 4.37758C7.23288 4.37758 7.21789 4.42479 7.18792 4.42479C7.15794 4.42479 7.25534 4.39107 7.1055 4.23588C6.95562 4.08072 6.49849 3.70966 5.41193 3.70966C4.32538 3.70966 3.83823 4.14819 3.80078 4.38431V4.42479L3.72584 4.37081C3.72584 4.37081 3.52352 4.37081 3.516 4.65418C3.50853 4.93755 3.65837 5.1804 3.84571 5.2411C3.84571 5.2411 4.22038 6.48917 5.44187 6.48917C6.66336 6.48917 7.09799 5.34232 7.10546 5.25459C7.10546 5.25459 7.53352 5.0563 7.42769 4.57995C7.37525 4.34383 7.23288 4.37758 7.23288 4.37758ZM3.66879 2.52083V4.0134C4.26318 3.45302 5.33089 3.43186 5.48011 3.43171C5.62933 3.4319 6.69703 3.45306 7.29146 4.0134V2.52083C7.23097 2.4337 6.32818 2 5.48011 2C4.63204 2 3.72929 2.4337 3.66879 2.52083ZM4.97752 2.64033H5.3761V2.28539H5.58407V2.64033H5.98266V2.81975H5.58407V3.1747H5.3761V2.81975H4.97752V2.64033ZM8.46924 8.19345C8.46924 8.448 8.39853 8.85711 8.03499 8.85711H5.5609V8.48437C5.76285 8.4662 6.22741 7.10248 6.30817 6.85701C6.38896 6.61155 6.54042 6.52064 6.54042 6.52064C8.27738 6.78431 8.46924 7.9389 8.46924 8.19345ZM4.41979 6.52068C4.41979 6.52068 4.57125 6.61159 4.65205 6.85705C4.73285 7.10252 5.19736 8.4662 5.39931 8.4844V8.85714H2.92523C2.56169 8.85714 2.49098 8.44803 2.49098 8.19349C2.49098 7.93894 2.68288 6.78431 4.41979 6.52068Z" fill="white"/>
</svg>
