<svg width="36" height="36" viewBox="0 0 36 36" fill="none" xmlns="http://www.w3.org/2000/svg">
<circle cx="18" cy="18" r="18" fill="url(#paint0_linear)"/>
<path d="M18 8.50903C16.8085 8.50903 15.8552 9.30221 15.4581 10.3333H11.6452C10.6125 10.3333 9.81817 11.1265 9.81817 12.1576V24.8484C9.81817 25.8795 10.6125 26.6727 11.6452 26.6727H24.3548C25.3875 26.6727 26.1818 25.8795 26.1818 24.8484V12.1576C26.1818 11.1265 25.3875 10.3333 24.3548 10.3333H20.5419C20.2242 9.22289 19.1915 8.50903 18 8.50903ZM22.2101 14.4578L23.481 15.7269L16.173 22.9448L12.519 19.2962L13.7899 18.0271L16.173 20.3273L22.2101 14.4578ZM18 10.3333C18.4766 10.3333 18.8738 10.7299 18.8738 11.2058C18.8738 11.6817 18.4766 12.0783 18 12.0783C17.5234 12.0783 17.1262 11.6817 17.1262 11.2058C17.1262 10.7299 17.5234 10.3333 18 10.3333Z" fill="white"/>
<defs>
<linearGradient id="paint0_linear" x1="23.434" y1="-3.39623" x2="18" y2="36" gradientUnits="userSpaceOnUse">
<stop stop-color="#60D4ED"/>
</linearGradient>
</defs>
</svg>
