<svg width="36" height="36" viewBox="0 0 36 36" fill="none" xmlns="http://www.w3.org/2000/svg">
<circle cx="18" cy="18" r="18" fill="url(#paint0_linear)"/>
<path d="M24 13.0909H22.3092C23.2428 13.0909 23.9999 12.3582 23.9999 11.4546V9.81821C23.9999 8.91432 23.2428 8.18182 22.3092 8.18182H13.8546C12.9209 8.18182 12.1638 8.91429 12.1638 9.81821V11.4546C12.1638 12.3583 12.9209 13.0909 13.8546 13.0909H12.1638C11.2299 13.0909 10.4728 13.8236 10.4728 14.7273V26.1818C10.4728 27.0855 11.2299 27.8182 12.1638 27.8182H24C24.9338 27.8182 25.691 27.0855 25.691 26.1818V14.7273C25.691 13.8236 24.9338 13.091 23.9999 13.091L24 13.0909ZM20.6184 22.9091H18.9045V24.5455C18.9045 24.9974 18.5488 25.3637 18.0819 25.3637C17.6152 25.3637 17.2364 24.9974 17.2364 24.5455V22.9091H15.5456C15.0786 22.9091 14.7001 22.5428 14.7001 22.0909C14.7001 21.6391 15.0786 21.2728 15.5456 21.2728H17.2364V19.6364C17.2364 19.1845 17.6151 18.8182 18.0819 18.8182C18.5488 18.8182 18.9045 19.1845 18.9045 19.6364V21.2728H20.6184C21.0851 21.2728 21.4637 21.6391 21.4637 22.0909C21.4637 22.5428 21.0851 22.9091 20.6184 22.9091L20.6184 22.9091ZM24.2514 17.1818H11.9123V14.7273H24.2514V17.1818Z" fill="white"/>
<defs>
<linearGradient id="paint0_linear" x1="23.434" y1="-3.39623" x2="18" y2="36" gradientUnits="userSpaceOnUse">
<stop stop-color="#FF7D7D"/>
</linearGradient>
</defs>
</svg>
