<svg width="36" height="36" viewBox="0 0 36 36" fill="none" xmlns="http://www.w3.org/2000/svg">
<circle cx="18" cy="18" r="18" fill="url(#paint0_linear)"/>
<path d="M21.8371 9.49091H14.3265C14.0996 9.4909 13.882 9.58042 13.7209 9.73995C13.5598 9.89948 13.4685 10.1161 13.4667 10.3426V12.4044H22.6969V10.3426C22.6969 9.87421 22.3139 9.49186 21.8371 9.49186V9.49091ZM22.0793 20.6651H14.0843C13.9864 20.6647 13.8894 20.6836 13.7988 20.7207C13.7082 20.7577 13.6258 20.8123 13.5564 20.8812C13.4869 20.9501 13.4317 21.032 13.394 21.1222C13.3563 21.2123 13.3367 21.3091 13.3365 21.4068V26.6727H22.8272V21.4059C22.8268 21.3082 22.8071 21.2116 22.7694 21.1215C22.7316 21.0314 22.6764 20.9496 22.6069 20.8808C22.5375 20.8121 22.4552 20.7576 22.3646 20.7206C22.2741 20.6835 22.1772 20.6647 22.0793 20.6651ZM26.051 13.4817H10.1164C9.50268 13.4817 9 13.9787 9 14.5876V21.3294C9 21.9373 9.50268 22.4353 10.1164 22.4353H11.8476V21.7758C11.8506 21.1859 12.0877 20.6213 12.507 20.2056C12.9262 19.79 13.4934 19.5571 14.0843 19.5582H22.0793C22.6702 19.5571 23.2374 19.79 23.6567 20.2056C24.0759 20.6213 24.313 21.1859 24.3161 21.7758V22.4353H26.0472C26.661 22.4353 27.1636 21.9383 27.1636 21.3294V14.5876C27.1629 14.2937 27.0453 14.0121 26.8366 13.8047C26.628 13.5974 26.3454 13.4812 26.051 13.4817ZM18.4543 17.1331H12.3503C12.1536 17.1334 11.9649 17.0559 11.8253 16.9176C11.6857 16.7793 11.6066 16.5915 11.6053 16.3952C11.6053 15.9889 11.9405 15.6572 12.3503 15.6572H18.4543C18.8631 15.6572 19.1983 15.9889 19.1983 16.3952C19.1983 16.8005 18.8631 17.1322 18.4543 17.1322V17.1331Z" fill="white"/>
<defs>
<linearGradient id="paint0_linear" x1="23.434" y1="-3.39623" x2="18" y2="36" gradientUnits="userSpaceOnUse">
<stop stop-color="#0AC29C"/>
</linearGradient>
</defs>
</svg>
