<svg width="70" height="57" viewBox="0 0 70 57" fill="none" xmlns="http://www.w3.org/2000/svg">
<mask id="mask0" mask-type="alpha" maskUnits="userSpaceOnUse" x="1" y="0" width="69" height="47">
<path d="M1 0H69.9826V46.9538H1V0Z" fill="white"/>
</mask>
<g mask="url(#mask0)">
<path fill-rule="evenodd" clip-rule="evenodd" d="M68.5431 10.8949C67.75 10.8949 67.1109 11.5345 67.1109 12.3279V18.7228C67.0801 18.7228 67.0492 18.7152 67.0184 18.7152H3.85827V1.43302C3.85827 0.639605 3.21917 0 2.42601 0C1.63323 0 0.994141 0.639605 0.994141 1.43302V45.5208C0.994141 46.3142 1.63323 46.9538 2.42601 46.9538C3.21917 46.9538 3.85827 46.3142 3.85827 45.5208V35.1499H67.0263C67.0571 35.1499 67.088 35.1499 67.1188 35.142V45.5129C67.1188 46.3067 67.7579 46.9462 68.5506 46.9462C69.3434 46.9462 69.9825 46.3067 69.9825 45.5129V12.3279C69.975 11.5345 69.3359 10.8949 68.5431 10.8949ZM64.663 30.8814H6.27538C5.4826 30.8814 4.84351 30.2418 4.84351 29.4484C4.84351 28.6546 5.4826 28.015 6.27538 28.015H64.663C65.4557 28.015 66.0947 28.6546 66.0947 29.4484C66.0947 30.2418 65.4482 30.8814 64.663 30.8814Z" fill="#E0E0E0"/>
</g>
<path fill-rule="evenodd" clip-rule="evenodd" d="M23.9941 14.8614C23.9941 12.7015 22.2176 10.9539 20.0218 10.9539H8.96645C6.77072 10.9539 4.99414 12.7015 4.99414 14.8614V16.9539H23.9941V14.8614Z" fill="#E0E0E0"/>
<ellipse cx="35" cy="54" rx="35" ry="3" fill="#C4C4C4" fill-opacity="0.24"/>
</svg>
