<svg width="14" height="14" viewBox="0 0 14 14" fill="none" xmlns="http://www.w3.org/2000/svg">
<path d="M11.2684 0.898438H2.73169C1.71997 0.898438 0.899658 1.71875 0.899658 2.73047V11.2686C0.899658 12.2803 1.71997 13.1006 2.73169 13.1006H11.2698C12.2815 13.1006 13.1018 12.2803 13.1018 11.2686V2.73184C13.1018 1.71875 12.2815 0.898438 11.2684 0.898438ZM9.53755 7.9832C9.07817 8.44942 8.4561 8.70234 7.80122 8.70234C7.26938 8.70234 6.75806 8.53418 6.33696 8.21699L5.91587 8.63809L6.92622 9.64844C7.06841 9.78516 7.06841 10.0107 6.92622 10.1543C6.7895 10.2965 6.56392 10.2965 6.42036 10.1543L5.41001 9.14395L5.02173 9.53223C4.87954 9.67442 4.65259 9.67442 4.5104 9.53223C4.36821 9.39551 4.36821 9.16992 4.5104 9.02637L4.89868 8.63809L3.88833 7.62774C3.74614 7.49102 3.74614 7.26543 3.88833 7.12188C4.02505 6.97969 4.25063 6.97969 4.39419 7.12188L5.40454 8.13223L5.82563 7.71113C5.50845 7.29004 5.34028 6.78418 5.34028 6.24688C5.34028 5.59199 5.59321 4.97676 6.05942 4.51055C6.5188 4.04434 7.14087 3.79141 7.79575 3.79141C8.45063 3.79141 9.06587 4.04434 9.53208 4.51055C9.99829 4.97676 10.2512 5.59199 10.2581 6.24688C10.2567 6.90176 10.0051 7.51699 9.53755 7.9832Z" fill="#FE5C9E"/>
</svg>
