<svg width="42" height="42" viewBox="0 0 42 42" fill="none" xmlns="http://www.w3.org/2000/svg">
<path fill-rule="evenodd" clip-rule="evenodd" d="M17.0002 0C17.9822 0 18.9448 0.0832633 19.8812 0.243115L20.7599 2.37369C21.3929 3.90879 23.1525 4.63766 24.6857 3.99981L26.8116 3.11533C28.3896 4.23243 29.7688 5.61177 30.8858 7.18988L30.0014 9.31558C29.3636 10.8487 30.0924 12.6083 31.6275 13.2414L33.7572 14.1196C33.871 14.7863 33.946 15.4661 33.9797 16.1568C33.9213 16.1271 33.8594 16.1034 33.7948 16.0865C32.7144 15.8038 31.5829 15.6536 30.4175 15.6536C29.1016 15.6536 27.829 15.845 26.6244 16.2025C26.3758 16.2763 26.1712 16.4517 26.0507 16.6813L25.9978 16.782C25.882 11.9122 21.8981 8.00002 17.0004 8.00002C12.0298 8.00002 8.00039 12.0295 8.00039 17C8.00039 21.9706 12.0298 26 17.0004 26C17.0697 26 17.1389 25.9992 17.2079 25.9977C17.1375 26.2575 17.0741 26.5203 17.0179 26.7859C16.9659 27.0317 17.0167 27.2874 17.151 27.4998L17.6086 28.2238C18.2274 29.2028 18.2274 30.4505 17.6086 31.4295L17.1509 32.1536C17.0167 32.366 16.9658 32.6217 17.0179 32.8675C17.0988 33.2501 17.1947 33.627 17.3049 33.9973C17.2036 33.9991 17.102 34 17.0002 34C16.0188 34 15.0568 33.9168 14.1208 33.7572L13.2422 31.6267C12.6092 30.0916 10.8496 29.3627 9.31644 30.0006L7.18981 30.8853C5.61194 29.7685 4.23278 28.3895 3.1158 26.8117L4.00067 24.6848C4.63852 23.1517 3.90966 21.3921 2.37455 20.759L0.243199 19.8801C0.0834519 18.9439 0.000244141 17.9817 0.000244141 17C0.000244141 16.0185 0.0834278 15.0564 0.24313 14.1203L2.37455 13.2414C3.90966 12.6083 4.63852 10.8487 4.00067 9.31558L3.1157 7.18845C4.23262 5.61074 5.61169 4.23174 7.18947 3.1149L9.31644 3.99981C10.8496 4.63766 12.6092 3.9088 13.2422 2.37369L14.121 0.242819C15.0569 0.0831605 16.0188 0 17.0002 0Z" fill="white"/>
<path fill-rule="evenodd" clip-rule="evenodd" d="M32.2817 18.5763C32.5211 18.6192 32.7376 18.7536 32.8578 18.9651C32.8752 18.9957 32.8922 19.0268 32.9088 19.0584L33.7234 20.6096C34.2618 21.635 35.3424 22.2588 36.4996 22.2124L38.2502 22.1423C38.2848 22.1409 38.3191 22.1401 38.3533 22.1398C38.5964 22.1379 38.8211 22.2579 38.9782 22.4434C39.8514 23.4743 40.5452 24.662 41.0113 25.9582C41.0935 26.1866 41.0853 26.4408 40.9626 26.6503C40.9445 26.6812 40.9257 26.712 40.9063 26.7427L39.9702 28.2238C39.3514 29.2028 39.3514 30.4505 39.9702 31.4294L40.9063 32.9105C40.9257 32.9412 40.9445 32.9721 40.9627 33.0031C41.0853 33.2125 41.0935 33.4667 41.0114 33.6951C40.5453 34.9913 39.8515 36.179 38.9784 37.2098C38.8213 37.3953 38.5967 37.5153 38.3536 37.5134C38.3193 37.5131 38.2849 37.5123 38.2502 37.5109L36.4996 37.4408C35.3424 37.3944 34.2618 38.0182 33.7234 39.0436L32.9088 40.5948C32.8921 40.6265 32.8751 40.6578 32.8576 40.6886C32.7374 40.9 32.5209 41.0343 32.2815 41.0772C31.623 41.1952 30.945 41.2568 30.2526 41.2568C29.5603 41.2568 28.8824 41.1952 28.224 41.0773C27.9847 41.0344 27.7682 40.9001 27.648 40.6887C27.6304 40.6578 27.6133 40.6266 27.5967 40.5948L26.7821 39.0436C26.2437 38.0182 25.1631 37.3944 24.0059 37.4408L22.2552 37.5109C22.2204 37.5123 22.1859 37.5131 22.1514 37.5134C21.9084 37.5153 21.6838 37.3953 21.5267 37.2098C20.6537 36.1791 19.96 34.9915 19.4939 33.6954C19.4117 33.4671 19.4199 33.213 19.5425 33.0036C19.5608 32.9724 19.5796 32.9414 19.5992 32.9105L20.5353 31.4294C21.154 30.4505 21.154 29.2028 20.5353 28.2238L19.5992 26.7427C19.5797 26.7119 19.5608 26.6809 19.5426 26.6498C19.42 26.4404 19.4118 26.1862 19.4939 25.9579C19.9601 24.6617 20.6538 23.4742 21.527 22.4434C21.6841 22.2579 21.9087 22.1379 22.1518 22.1398C22.1861 22.1401 22.2206 22.1409 22.2552 22.1423L24.0059 22.2124C25.1631 22.2588 26.2437 21.635 26.7821 20.6096L27.5967 19.0584C27.6133 19.0268 27.6303 18.9956 27.6477 18.965C27.7679 18.7535 27.9844 18.6191 28.2239 18.5762C28.8823 18.4583 29.5602 18.3967 30.2526 18.3967C30.945 18.3967 31.6231 18.4583 32.2817 18.5763ZM34.6488 29.8266C34.6488 32.2546 32.6806 34.2228 30.2526 34.2228C27.8247 34.2228 25.8565 32.2546 25.8565 29.8266C25.8565 27.3987 27.8247 25.4305 30.2526 25.4305C32.6806 25.4305 34.6488 27.3987 34.6488 29.8266Z" fill="white"/>
</svg>
