<svg width="42" height="42" viewBox="0 0 42 42" fill="none" xmlns="http://www.w3.org/2000/svg">
<path fill-rule="evenodd" clip-rule="evenodd" d="M29.5235 27.3698C31.9344 24.4758 33.3846 20.7534 33.3846 16.6923C33.3846 7.4734 25.9112 0 16.6923 0C7.4734 0 0 7.4734 0 16.6923C0 25.9112 7.4734 33.3846 16.6923 33.3846C19.2356 33.3846 21.6461 32.8158 23.8035 31.7985C22.9615 30.6044 21.9922 29.2204 21.5385 28.5385C20.6475 27.1996 20.1159 25 22.0768 23.6923C24.0378 22.3847 25.846 23.6921 26.3845 24.2307L29.5235 27.3698ZM14.8054 22.1285H10.8894C10.5242 22.1023 10.2435 21.9548 10.0474 21.6859C9.85127 21.4171 9.73285 21.1188 9.69231 20.791C9.73285 20.4631 9.85127 20.1943 10.0474 19.9844C10.2435 19.7746 10.5242 19.6567 10.8894 19.6305H14.8054V18.3912L10.8894 18.3716C10.5242 18.3453 10.2435 18.2208 10.0474 17.9979C9.85127 17.7749 9.73285 17.493 9.69231 17.152C9.73285 16.8242 9.85127 16.5554 10.0474 16.3456C10.2435 16.1358 10.5242 16.0178 10.8894 15.9915H13.8111L11.0923 11.3494C10.957 11.1921 10.8285 10.9922 10.7068 10.7495C10.585 10.507 10.5309 10.2414 10.5445 9.95296C10.6121 9.58576 10.7474 9.2874 10.9502 9.05798C11.1531 8.82848 11.5319 8.68093 12.0865 8.61539C12.4112 8.64165 12.702 8.74977 12.959 8.93989C13.216 9.13011 13.4257 9.33662 13.5879 9.55949L16.672 15.0277L20.0604 9.52019C20.2227 9.29725 20.4324 9.10057 20.6894 8.93005C20.9464 8.75964 21.2372 8.65469 21.5618 8.61539C21.7648 8.62852 21.9508 8.65469 22.1199 8.69407C22.2889 8.73337 22.4377 8.79892 22.5662 8.89077C22.6947 8.98258 22.803 9.11371 22.8909 9.28411C22.9788 9.45464 23.0431 9.67758 23.0836 9.95296C23.0836 10.3332 22.9484 10.6938 22.6778 11.0348L19.5329 15.9915H22.5155C22.8672 16.0178 23.1445 16.1358 23.3474 16.3456C23.5503 16.5554 23.6653 16.8242 23.6923 17.152C23.6653 17.493 23.547 17.7814 23.3372 18.0175C23.1276 18.2535 22.8469 18.3847 22.4952 18.4109L18.6199 18.4306V19.6305H22.5155C22.8672 19.6567 23.1445 19.7878 23.3474 20.0238C23.5503 20.2598 23.6653 20.5418 23.6923 20.8697C23.6653 21.2106 23.5503 21.4958 23.3474 21.7253C23.1445 21.9548 22.8672 22.0826 22.5155 22.1089L18.6199 22.0892V24.1742C18.5657 25.2888 17.9368 25.8462 16.7329 25.8462C16.1378 25.8462 15.6744 25.7085 15.3431 25.433C15.0116 25.1576 14.8324 24.7381 14.8054 24.1742V22.1285ZM39.3553 28.5116C40.13 29.5806 41.4887 31.7192 41.8847 34.0321C42.2868 36.3797 41.6364 38.297 39.9513 39.7301C38.3807 41.0662 36.6333 41.8201 34.7581 41.9715C33.2464 42.0932 31.6486 41.8246 30.0086 41.173C27.4498 40.1566 25.5122 38.5049 24.7981 37.842C24.7937 37.8379 24.7898 37.8343 24.7863 37.831C24.7784 37.8237 24.7727 37.8183 24.769 37.815C24.2857 37.3953 24.0413 36.9766 24.0431 36.5716C24.0445 36.2904 24.1691 36.0298 24.3943 35.8382C24.9569 35.3598 26.0716 35.3562 26.7334 35.8302C27.4575 36.349 29.2515 37.31 29.8661 36.7871C29.8993 36.7587 29.9284 36.7263 29.9543 36.6886L23.5444 28.1877C23.5429 28.1858 23.5396 28.1817 23.5346 28.1755C23.3949 28.0035 21.9429 26.2164 22.9957 25.1077C24.0091 24.1163 25.3673 25.5523 25.8938 26.2276C26.9423 27.5723 29.0783 29.9566 29.8433 30.6705C30.1476 30.3092 30.8357 29.5334 31.7473 28.7579C33.0371 27.6606 34.2629 26.9954 35.3909 26.7801C36.9704 26.4787 38.3045 27.061 39.3553 28.5116Z" fill="white"/>
</svg>
