<svg width="42" height="42" viewBox="0 0 42 42" fill="none" xmlns="http://www.w3.org/2000/svg">
<path fill-rule="evenodd" clip-rule="evenodd" d="M12 2C12 0.89543 12.8954 0 14 0H28C29.1046 0 30 0.895431 30 2V4C30 5.10457 29.1046 6 28 6H14C12.8954 6 12 5.10457 12 4V2ZM10 3H8C5.79086 3 4 4.79086 4 7V37C4 39.2091 5.79086 41 8 41H34C36.2091 41 38 39.2091 38 37V7C38 4.79086 36.2091 3 34 3H32V5C32 6.65685 30.6569 8 29 8H13C11.3431 8 10 6.65685 10 5V3ZM20.1475 25.0385C19.5952 25.0385 19.1475 24.5908 19.1475 24.0385V19.8909H15C14.4477 19.8909 14 19.4432 14 18.8909V17.1473C14 16.595 14.4477 16.1473 15 16.1473H19.1475V12C19.1475 11.4477 19.5952 11 20.1475 11H21.8911C22.4434 11 22.8911 11.4477 22.8911 12V16.1473H27.0385C27.5908 16.1473 28.0385 16.595 28.0385 17.1473V18.8909C28.0385 19.4432 27.5908 19.8909 27.0385 19.8909H22.8911V24.0385C22.8911 24.5908 22.4434 25.0385 21.8911 25.0385H20.1475ZM12 30.5C12 29.6716 12.6716 29 13.5 29H29.5C30.3284 29 31 29.6716 31 30.5C31 31.3284 30.3284 32 29.5 32H13.5C12.6716 32 12 31.3284 12 30.5ZM15.5 34C14.6716 34 14 34.6716 14 35.5C14 36.3284 14.6716 37 15.5 37H27.5C28.3284 37 29 36.3284 29 35.5C29 34.6716 28.3284 34 27.5 34H15.5Z" fill="white"/>
</svg>
