<svg width="42" height="42" viewBox="0 0 42 42" fill="none" xmlns="http://www.w3.org/2000/svg">
<path fill-rule="evenodd" clip-rule="evenodd" d="M7 5C3.68629 5 1 7.68629 1 11V29C1 32.3137 3.68629 35 7 35H35C38.3137 35 41 32.3137 41 29V11C41 7.68629 38.3137 5 35 5H7ZM14.92 25.76V18.96H9.74V21.58H11.92V24.12C11.36 24.2933 10.7933 24.38 10.22 24.38C8.95333 24.38 7.95333 24.0067 7.22 23.26C6.48667 22.5133 6.12 21.5067 6.12 20.24C6.12 18.9867 6.49333 17.9867 7.24 17.24C7.98667 16.48 8.99333 16.1 10.26 16.1C11.6067 16.1 12.92 16.4667 14.2 17.2V14.12C13.0933 13.56 11.78 13.28 10.26 13.28C8.1 13.28 6.31333 13.9133 4.9 15.18C3.5 16.4467 2.8 18.1333 2.8 20.24C2.8 22.3733 3.47333 24.06 4.82 25.3C6.16667 26.54 7.92 27.16 10.08 27.16C12.0267 27.16 13.64 26.6933 14.92 25.76ZM27.1811 17.06V14.1C26.3678 13.5933 25.2011 13.34 23.6811 13.34C21.6144 13.34 19.9344 13.9867 18.6411 15.28C17.3611 16.5733 16.7211 18.2467 16.7211 20.3C16.7211 22.3267 17.3811 23.98 18.7011 25.26C20.0344 26.5267 21.6878 27.16 23.6611 27.16C25.1944 27.16 26.3678 26.9067 27.1811 26.4V23.38C26.2878 24.02 25.2144 24.34 23.9611 24.34C22.8011 24.34 21.8544 23.98 21.1211 23.26C20.3878 22.5267 20.0211 21.54 20.0211 20.3C20.0211 19.0333 20.3878 18.0267 21.1211 17.28C21.8544 16.52 22.7611 16.14 23.8411 16.14C25.0678 16.14 26.1811 16.4467 27.1811 17.06ZM33.3867 20.2H32.3667V15.98H33.5667C35.0734 15.98 35.8267 16.6467 35.8267 17.98C35.8267 19.46 35.0134 20.2 33.3867 20.2ZM33.9267 13.52H29.2867V27H32.3667V22.64H33.9267C35.3401 22.64 36.5267 22.2333 37.4867 21.42C38.4601 20.6067 38.9467 19.46 38.9467 17.98C38.9467 16.6867 38.4801 15.62 37.5467 14.78C36.6267 13.94 35.4201 13.52 33.9267 13.52Z" fill="white"/>
</svg>
