<svg width="42" height="42" viewBox="0 0 42 42" fill="none" xmlns="http://www.w3.org/2000/svg">
<g clip-path="url(#clip0_4190_113)">
<path fill-rule="evenodd" clip-rule="evenodd" d="M16 33C16 33.3441 16.0434 33.678 16.1251 33.9965C15.9156 33.9988 15.7061 34 15.4968 34C7.88194 34 -0.0823902 32.4797 0.000643725 32.3968C0.139034 31.401 0.619938 29.8309 1.23577 29.0177C1.80317 28.2509 2.57469 27.6501 3.38082 27.1456C4.47697 26.4834 5.6684 26.0189 6.86008 25.5543C7.69948 25.2271 8.53899 24.8998 9.34542 24.5034L9.34555 24.5033L9.34565 24.5032C9.47013 24.4369 9.59459 24.3706 9.71561 24.3009C9.82632 24.2378 9.96471 24.3142 9.96471 24.437V27.3713C9.29006 27.7464 8.84029 28.4534 8.85759 29.26C8.88527 30.3952 9.85746 31.318 11.0407 31.3346C12.2793 31.3512 13.2861 30.3952 13.2861 29.2102C13.2861 28.221 12.5803 27.3879 11.6254 27.1522V24.4303C11.6254 23.9889 11.4386 23.5905 11.1376 23.3051C11.103 23.2719 11.0995 23.2221 11.1272 23.1856C11.3002 22.9698 11.4455 22.7275 11.5424 22.4553C11.6491 21.573 11.6411 20.6843 11.6331 19.7977V19.7977V19.7976C11.631 19.5636 11.6288 19.3297 11.6288 19.0962C11.1964 18.7775 10.9092 18.3095 10.6463 17.8481C10.2069 17.0349 9.8886 16.1585 9.75367 15.249C9.75021 15.2225 9.72945 15.1993 9.69831 15.1926C9.21395 15.0864 8.85759 14.6881 8.67076 14.2532C8.4528 13.7587 8.34555 13.2276 8.31095 12.6965C8.28327 12.1853 8.49432 11.6675 8.88873 11.3322C8.92679 11.299 8.94409 11.2492 8.93025 11.2028C8.52892 9.60285 8.23484 7.95978 8.30403 6.30675C8.34901 5.26779 8.54276 4.21556 9.0029 3.27619C9.38001 2.5061 9.94395 1.819 10.6532 1.3211C12.0717 0.312018 13.8811 0.0265547 15.5972 0C16.5659 0.0165967 17.5796 0.14937 18.4203 0.657229C18.7317 0.839793 18.9843 1.10534 19.1849 1.39744C20.0014 1.52026 20.8214 1.80904 21.4407 2.36669C22.3368 3.16997 22.7485 4.35829 22.8696 5.51674C23.0737 7.43864 22.6897 9.36386 22.1326 11.1961C22.1188 11.2459 22.1326 11.299 22.1742 11.3322C22.5893 11.6841 22.7969 12.2384 22.7416 12.7761C22.7015 13.1858 22.6329 13.6063 22.4889 14H20C17.7909 14 16 15.7909 16 18V33ZM16.8706 39.9993H41.0955C41.3263 40.0088 41.5514 39.9252 41.7211 39.7675C41.8909 39.6097 41.9912 39.3909 42 39.1593V37.9766C42 37.4937 41.6102 37.1023 41.1294 37.1023H39.6617V28.874C39.6617 28.0509 39.3372 27.1596 38.4836 27.1596H34.7767C34.6112 27.1402 34.4457 27.1923 34.3215 27.304C34.1974 27.4158 34.127 27.5755 34.1279 27.7427V37.2053H32.9502V18.3487C32.9502 17.0515 31.9029 16 30.6119 16H20.6771C19.4117 16 18.3756 17.0097 18.3379 18.28V37.1362H16.8706C16.7561 37.1363 16.6428 37.159 16.5372 37.2031C16.4315 37.2471 16.3356 37.3116 16.2549 37.3928C16.0919 37.5566 16 37.7793 16 38.011V39.1936C16.0167 39.413 16.1157 39.6179 16.2772 39.7673C16.4386 39.9167 16.6506 39.9996 16.8706 39.9993ZM27.3164 36.2975C27.2076 36.1882 27.1463 36.0397 27.1463 35.8853L27.1124 34.171C27.1124 34.0162 27.1737 33.8681 27.2825 33.7588C27.3362 33.7048 27.4001 33.6618 27.4705 33.6325C27.5409 33.6032 27.6163 33.588 27.6926 33.5879H28.3074C28.3838 33.588 28.4593 33.6031 28.5297 33.6324C28.6002 33.6618 28.6641 33.7047 28.7179 33.7588C28.8263 33.8681 28.8876 34.0162 28.8876 34.171V35.8853C28.8876 36.0397 28.8263 36.1882 28.7175 36.2975C28.6637 36.3515 28.5998 36.3943 28.5295 36.4236C28.4591 36.4528 28.3837 36.4679 28.3074 36.4679H27.7269C27.6506 36.4679 27.5751 36.4529 27.5047 36.4236C27.4342 36.3944 27.3702 36.3515 27.3164 36.2975ZM27.7269 32.354C27.4062 32.354 27.1463 32.0929 27.1463 31.771L27.1124 30.0566C27.1124 29.9023 27.1737 29.7541 27.2825 29.6445C27.3363 29.5905 27.4002 29.5476 27.4705 29.5184C27.5409 29.4891 27.6163 29.474 27.6926 29.474H28.3074C28.6277 29.474 28.8876 29.7351 28.8876 30.0566V31.771C28.8876 32.0933 28.6277 32.354 28.3074 32.354H27.7269ZM22.6393 36.2975C22.5305 36.1882 22.4692 36.0397 22.4692 35.8853L22.4353 34.171C22.4353 34.0162 22.4966 33.8681 22.6054 33.7588C22.6591 33.7048 22.723 33.6618 22.7934 33.6325C22.8637 33.6032 22.9392 33.588 23.0154 33.5879H23.6303C23.7066 33.588 23.7822 33.6031 23.8526 33.6324C23.9231 33.6618 23.987 33.7047 24.0408 33.7588C24.1492 33.8681 24.2105 34.0162 24.2105 34.171V35.8853C24.2105 36.0397 24.1492 36.1882 24.0404 36.2975C23.9866 36.3515 23.9227 36.3943 23.8524 36.4236C23.782 36.4528 23.7066 36.4679 23.6303 36.4679H23.0498C22.9735 36.4679 22.898 36.4529 22.8276 36.4236C22.7571 36.3944 22.6931 36.3515 22.6393 36.2975ZM23.0498 32.354C22.7291 32.354 22.4692 32.0929 22.4692 31.771L22.4353 30.0566C22.4353 29.9023 22.4966 29.7541 22.6054 29.6445C22.6592 29.5905 22.7231 29.5476 22.7934 29.5184C22.8638 29.4891 22.9392 29.474 23.0154 29.474H23.6303C23.7066 29.474 23.7821 29.489 23.8526 29.5183C23.923 29.5475 23.987 29.5904 24.0408 29.6445C24.1492 29.7541 24.2105 29.9023 24.2105 30.0566V31.771C24.2105 31.9257 24.1492 32.0739 24.0404 32.1831C23.9867 32.2372 23.9228 32.2801 23.8524 32.3094C23.782 32.3387 23.7066 32.3539 23.6303 32.354H23.0498ZM28.7598 21.0393C28.9014 21.1816 28.9807 21.3743 28.9803 21.5751L28.9509 22.6762C28.9509 22.8773 28.871 23.0701 28.7291 23.2124C28.588 23.3548 28.3956 23.4347 28.1953 23.4347H26.9217V24.7141C26.9219 24.8135 26.9025 24.9121 26.8646 25.004C26.8268 25.096 26.7712 25.1796 26.701 25.25C26.6309 25.3205 26.5475 25.3765 26.4557 25.4147C26.3639 25.453 26.2655 25.4728 26.1661 25.473H25.144C24.9432 25.4725 24.7509 25.3922 24.6093 25.2499C24.4677 25.1076 24.3884 24.9149 24.3888 24.7141V23.4347H23.1152C23.0157 23.4344 22.9173 23.4146 22.8255 23.3764C22.7337 23.3381 22.6504 23.2822 22.5802 23.2117C22.51 23.1412 22.4544 23.0576 22.4166 22.9657C22.3787 22.8737 22.3594 22.7752 22.3596 22.6758V21.6495C22.3594 21.5501 22.3787 21.4516 22.4166 21.3596C22.4544 21.2677 22.51 21.1841 22.5802 21.1136C22.6504 21.0431 22.7337 20.9872 22.8255 20.9489C22.9173 20.9107 23.0157 20.8909 23.1152 20.8906H24.3888V19.6112C24.3888 19.4097 24.4683 19.2168 24.6102 19.0745C24.7517 18.9321 24.9437 18.8523 25.144 18.8523H26.1661C26.2655 18.8525 26.3639 18.8723 26.4557 18.9106C26.5475 18.9488 26.6309 19.0048 26.701 19.0752C26.7712 19.1457 26.8268 19.2293 26.8646 19.3213C26.9025 19.4132 26.9219 19.5117 26.9217 19.6112V20.8162H28.2251C28.4259 20.8167 28.6182 20.897 28.7598 21.0393Z" fill="white"/>
</g>
<defs>
<clipPath id="clip0_4190_113">
<rect width="42" height="42" fill="white"/>
</clipPath>
</defs>
</svg>
