<svg width="42" height="42" viewBox="0 0 42 42" fill="none" xmlns="http://www.w3.org/2000/svg">
<path fill-rule="evenodd" clip-rule="evenodd" d="M13.5891 0C7.584 0 5.69238 5.03194 5.69238 5.94238C5.69238 6.36277 6.03808 7.1107 6.47525 7.79406C4.93409 9.36777 4 11.8211 4 15.5206C4 18.135 5.82001 20.0495 8.57066 21.0939C9.20947 22.0897 10.0284 22.8883 11 23.3944V25.2689C8.1357 25.7135 4.90062 26.6204 2.68434 27.3052C1.0662 27.8052 0 29.3154 0 31.0091V32.8775C0 32.8775 8.45428 35 14 35C14.7773 35 15.6117 34.9583 16.472 34.8866C16.1708 34.3246 16 33.6822 16 33V18C16 15.7909 17.7909 14 20 14H23.943C23.7005 10.901 22.6982 8.82424 21.1954 7.47911C21.5626 6.77338 21.8462 6.0233 21.8462 5.55219C21.8462 4.44666 19.5942 0 13.5891 0ZM13.6489 1C13.396 1 13.1909 1.20507 13.1909 1.45804V2.19118H12.458C12.2051 2.19118 12 2.39625 12 2.64922C12 2.90219 12.2051 3.10726 12.458 3.10726H13.1909V3.83985C13.1909 4.09281 13.396 4.29789 13.6489 4.29789C13.9019 4.29789 14.107 4.09282 14.107 3.83985V3.10726H14.8398C15.0928 3.10726 15.2979 2.90219 15.2979 2.64922C15.2979 2.39625 15.0928 2.19118 14.8398 2.19118H14.107V1.45804C14.107 1.20507 13.9019 1 13.6489 1ZM20 7.5C20 7.5 18.1538 5.5 14 5.5C9.84615 5.5 8 7.5 8 7.5C8 7.5 10.1878 6.66667 14 6.66667C17.8122 6.66667 20 7.5 20 7.5ZM16.8706 39.9993H41.0955C41.3263 40.0088 41.5514 39.9252 41.7211 39.7675C41.8909 39.6097 41.9912 39.3909 42 39.1593V37.9766C42 37.4937 41.6102 37.1023 41.1294 37.1023H39.6617V28.874C39.6617 28.0509 39.3372 27.1596 38.4836 27.1596H34.7767C34.6112 27.1402 34.4457 27.1923 34.3215 27.304C34.1974 27.4158 34.127 27.5755 34.1279 27.7427V37.2053H32.9502V18.3487C32.9502 17.0515 31.9029 16 30.6119 16H20.6771C19.4117 16 18.3756 17.0097 18.3379 18.28V37.1362H16.8706C16.7561 37.1363 16.6428 37.159 16.5372 37.2031C16.4315 37.2471 16.3356 37.3116 16.2549 37.3928C16.0919 37.5566 16 37.7793 16 38.011V39.1936C16.0167 39.413 16.1157 39.6179 16.2772 39.7673C16.4386 39.9167 16.6506 39.9996 16.8706 39.9993ZM27.3164 36.2975C27.2076 36.1882 27.1463 36.0397 27.1463 35.8853L27.1124 34.171C27.1124 34.0162 27.1737 33.8681 27.2825 33.7588C27.3362 33.7048 27.4001 33.6618 27.4705 33.6325C27.5409 33.6032 27.6163 33.588 27.6926 33.5879H28.3074C28.3838 33.588 28.4593 33.6031 28.5297 33.6324C28.6002 33.6618 28.6641 33.7047 28.7179 33.7588C28.8263 33.8681 28.8876 34.0162 28.8876 34.171V35.8853C28.8876 36.0397 28.8263 36.1882 28.7175 36.2975C28.6637 36.3515 28.5998 36.3943 28.5295 36.4236C28.4591 36.4528 28.3837 36.4679 28.3074 36.4679H27.7269C27.6506 36.4679 27.5751 36.4529 27.5047 36.4236C27.4342 36.3944 27.3702 36.3515 27.3164 36.2975ZM27.7269 32.354C27.4062 32.354 27.1463 32.0929 27.1463 31.771L27.1124 30.0566C27.1124 29.9023 27.1737 29.7541 27.2825 29.6445C27.3363 29.5905 27.4002 29.5476 27.4705 29.5184C27.5409 29.4891 27.6163 29.474 27.6926 29.474H28.3074C28.6277 29.474 28.8876 29.7351 28.8876 30.0566V31.771C28.8876 32.0933 28.6277 32.354 28.3074 32.354H27.7269ZM22.6393 36.2975C22.5305 36.1882 22.4692 36.0397 22.4692 35.8853L22.4353 34.171C22.4353 34.0162 22.4966 33.8681 22.6054 33.7588C22.6591 33.7048 22.723 33.6618 22.7934 33.6325C22.8637 33.6032 22.9392 33.588 23.0154 33.5879H23.6303C23.7066 33.588 23.7822 33.6031 23.8526 33.6324C23.9231 33.6618 23.987 33.7047 24.0408 33.7588C24.1492 33.8681 24.2105 34.0162 24.2105 34.171V35.8853C24.2105 36.0397 24.1492 36.1882 24.0404 36.2975C23.9866 36.3515 23.9227 36.3943 23.8524 36.4236C23.782 36.4528 23.7066 36.4679 23.6303 36.4679H23.0498C22.9735 36.4679 22.898 36.4529 22.8276 36.4236C22.7571 36.3944 22.6931 36.3515 22.6393 36.2975ZM23.0498 32.354C22.7291 32.354 22.4692 32.0929 22.4692 31.771L22.4353 30.0566C22.4353 29.9023 22.4966 29.7541 22.6054 29.6445C22.6592 29.5905 22.7231 29.5476 22.7934 29.5184C22.8638 29.4891 22.9392 29.474 23.0154 29.474H23.6303C23.7066 29.474 23.7821 29.489 23.8526 29.5183C23.923 29.5475 23.987 29.5904 24.0408 29.6445C24.1492 29.7541 24.2105 29.9023 24.2105 30.0566V31.771C24.2105 31.9257 24.1492 32.0739 24.0404 32.1831C23.9867 32.2372 23.9228 32.2801 23.8524 32.3094C23.782 32.3387 23.7066 32.3539 23.6303 32.354H23.0498ZM28.7598 21.0393C28.9014 21.1816 28.9807 21.3743 28.9803 21.5751L28.9509 22.6762C28.9509 22.8773 28.871 23.0701 28.7291 23.2124C28.588 23.3548 28.3956 23.4347 28.1953 23.4347H26.9217V24.7141C26.9219 24.8135 26.9025 24.9121 26.8646 25.004C26.8268 25.096 26.7712 25.1796 26.701 25.25C26.6309 25.3205 26.5475 25.3765 26.4557 25.4147C26.3639 25.453 26.2655 25.4728 26.1661 25.473H25.144C24.9432 25.4725 24.7509 25.3922 24.6093 25.2499C24.4677 25.1076 24.3884 24.9149 24.3888 24.7141V23.4347H23.1152C23.0157 23.4344 22.9173 23.4146 22.8255 23.3764C22.7337 23.3381 22.6504 23.2822 22.5802 23.2117C22.51 23.1412 22.4544 23.0576 22.4166 22.9657C22.3787 22.8737 22.3594 22.7752 22.3596 22.6758V21.6495C22.3594 21.5501 22.3787 21.4516 22.4166 21.3596C22.4544 21.2677 22.51 21.1841 22.5802 21.1136C22.6504 21.0431 22.7337 20.9872 22.8255 20.9489C22.9173 20.9107 23.0157 20.8909 23.1152 20.8906H24.3888V19.6112C24.3888 19.4097 24.4683 19.2168 24.6102 19.0745C24.7517 18.9321 24.9437 18.8523 25.144 18.8523H26.1661C26.2655 18.8525 26.3639 18.8723 26.4557 18.9106C26.5475 18.9488 26.6309 19.0048 26.701 19.0752C26.7712 19.1457 26.8268 19.2293 26.8646 19.3213C26.9025 19.4132 26.9219 19.5117 26.9217 19.6112V20.8162H28.2251C28.4259 20.8167 28.6182 20.897 28.7598 21.0393Z" fill="white"/>
</svg>
