<svg width="42" height="42" viewBox="0 0 42 42" fill="none" xmlns="http://www.w3.org/2000/svg">
<g clip-path="url(#clip0_4190_297)">
<path fill-rule="evenodd" clip-rule="evenodd" d="M35.6724 19.7133C34.3675 19.2514 32.9631 19 31.5 19C29.4457 19 27.5071 19.4956 25.7973 20.3737V13.6354C25.7962 13.3986 25.8963 13.1723 26.0729 13.0141C26.2496 12.8558 26.4851 12.7819 26.7207 12.8095H33.9959C35.2107 12.8095 35.6724 14.0722 35.6724 15.2381V19.7133ZM19.4963 34.999C19.1732 33.8887 19 32.7146 19 31.5C19 27.3562 21.0164 23.6833 24.1215 21.409V4.32732C24.1215 2.48956 22.631 1 20.7938 1H6.65588C4.85515 1 3.38064 2.43035 3.32706 4.23001V30.943H1.23896C1.07606 30.9431 0.914792 30.9753 0.764422 31.0377C0.614052 31.1 0.477544 31.1914 0.362737 31.3064C0.130727 31.5386 0 31.8539 0 32.1822V33.8576C0.023773 34.1684 0.164675 34.4587 0.394452 34.6704C0.62423 34.882 0.925895 34.9994 1.23896 34.999H19.4963ZM18.1582 8.13896C18.3597 8.34056 18.4726 8.61358 18.4719 8.898L18.4301 10.4579C18.4301 10.7428 18.3165 11.016 18.1145 11.2176C17.9137 11.4193 17.6399 11.5324 17.3549 11.5324H15.5424V13.345C15.5427 13.4859 15.5151 13.6254 15.4612 13.7557C15.4074 13.886 15.3282 14.0044 15.2284 14.1042C15.1285 14.2041 15.0099 14.2833 14.8793 14.3375C14.7487 14.3917 14.6086 14.4198 14.4671 14.4201H13.0126C12.7269 14.4193 12.4532 14.3056 12.2517 14.104C12.0502 13.9024 11.9373 13.6294 11.9379 13.345V11.5324H10.1254C9.98392 11.5321 9.84386 11.5041 9.71323 11.4499C9.58261 11.3957 9.46399 11.3164 9.36414 11.2166C9.26429 11.1167 9.18518 10.9983 9.13131 10.868C9.07744 10.7377 9.04987 10.5982 9.05018 10.4573V9.00351C9.04987 8.86264 9.07744 8.72308 9.13131 8.59281C9.18518 8.46253 9.26429 8.3441 9.36414 8.24427C9.46399 8.14443 9.58261 8.06516 9.71323 8.01096C9.84386 7.95677 9.98392 7.92871 10.1254 7.92841H11.9379V6.11585C11.9379 5.83036 12.051 5.55719 12.253 5.35553C12.4544 5.15388 12.7276 5.04074 13.0126 5.04074H14.4671C14.6086 5.04105 14.7487 5.0691 14.8793 5.1233C15.0099 5.17749 15.1285 5.25677 15.2284 5.3566C15.3282 5.45644 15.4074 5.57487 15.4612 5.70514C15.5151 5.83541 15.5427 5.97497 15.5424 6.11585V7.82289H17.3973C17.683 7.82367 17.9567 7.93735 18.1582 8.13896Z" fill="white"/>
<path fill-rule="evenodd" clip-rule="evenodd" d="M31.4999 41.619C37.0885 41.619 41.619 37.0886 41.619 31.5C41.619 25.9114 37.0885 21.381 31.4999 21.381C25.9113 21.381 21.3809 25.9114 21.3809 31.5C21.3809 37.0886 25.9113 41.619 31.4999 41.619ZM34.2215 25.3007C33.7564 25.0029 33.1379 25.1385 32.8401 25.6036C32.5423 26.0687 32.6779 26.6872 33.143 26.985L34.6311 27.9379H26.1425C25.5903 27.9379 25.1425 28.3856 25.1425 28.9379C25.1425 29.4902 25.5903 29.9379 26.1425 29.9379H38.0473C38.4914 29.9379 38.8823 29.645 39.007 29.2188C39.1318 28.7926 38.9605 28.3352 38.5865 28.0957L34.2215 25.3007ZM26.1425 33.0621C25.6823 33.0621 25.2815 33.3763 25.1715 33.8232C25.0615 34.2701 25.2708 34.7343 25.6785 34.9479L31.0136 37.743C31.5028 37.9992 32.1071 37.8104 32.3634 37.3212C32.6197 36.832 32.4309 36.2276 31.9417 35.9714L30.2062 35.0621H38.0473C38.5996 35.0621 39.0473 34.6144 39.0473 34.0621C39.0473 33.5098 38.5996 33.0621 38.0473 33.0621H26.1425Z" fill="white"/>
</g>
<defs>
<clipPath id="clip0_4190_297">
<rect width="42" height="42" fill="white"/>
</clipPath>
</defs>
</svg>
