<svg width="42" height="42" viewBox="0 0 42 42" fill="none" xmlns="http://www.w3.org/2000/svg">
<path d="M36.5922 6.63718C36.1325 6.1974 35.5128 5.95752 34.8731 5.95752H34.6932C34.6532 5.95752 34.2534 5.97751 33.6137 5.97751C32.5542 5.97751 30.5153 5.89755 28.5762 5.43778C26.0775 4.81809 23.1789 1.97951 22.3394 1.41979C21.9196 1.13993 21.4198 1 20.9401 1C20.4603 1 19.9406 1.09995 19.5408 1.41979C18.8211 1.97951 16.4023 4.69815 13.4438 5.43778C11.5048 5.91754 9.40582 5.97751 8.36634 5.97751C7.72666 5.97751 7.32686 5.95752 7.28688 5.95752H7.12696C6.48728 5.95752 5.86759 6.1974 5.40782 6.63718C4.88808 7.11694 4.60822 7.77661 4.60822 8.45627V14.7131C4.60822 37.8616 19.8606 40.8401 20.5003 40.94C20.6402 40.96 20.8001 40.98 20.9401 40.98C21.08 40.98 21.2399 40.96 21.3798 40.94C22.0195 40.8201 37.3918 37.8416 37.3918 14.7131V8.45627C37.3918 7.77661 37.112 7.09695 36.5922 6.63718ZM16.1424 18.5312V28.926H13.4038V20.0505H12.5043L14.0435 12.4343H16.4423L15.4628 18.5312H16.1424ZM20.4203 28.7261H17.8016L18.6012 22.6692H21.2399L20.4203 28.7261ZM26.0375 28.7261L25.2779 22.6692H27.9166L28.7162 28.7261H26.0375ZM29.056 21.9695H24.7382V28.966H21.6197V22.0095H17.3019V20.4503H21.6197V19.6107H18.0015V12.7941H28.3963V19.6107H24.7182V20.4503H29.036V21.9695H29.056Z" fill="white"/>
<path d="M20.8801 14.2934H25.4978V18.0515H20.8801V14.2934Z" fill="white"/>
</svg>
