<svg width="42" height="42" viewBox="0 0 42 42" fill="none" xmlns="http://www.w3.org/2000/svg">
<path fill-rule="evenodd" clip-rule="evenodd" d="M10.5001 1C9.67167 1 9.00009 1.67157 9.00009 2.5V6.5C9.00009 7.32843 9.67167 8 10.5001 8C11.3285 8 12.0001 7.32843 12.0001 6.5V2.5C12.0001 1.67157 11.3285 1 10.5001 1ZM7.00007 6.3V4H6C3.79086 4 2 5.79086 2 8V30C2 32.2091 3.79086 34 6 34H16.2824L22.2609 23.4164V18C22.2609 18 20.5 17.5048 20.5 15.5C20.5 13.5 22.5 13 22.5 13H32.5C32.5 13 35 13 35.5 15C36 17 33.7391 18 33.7391 18V23.4164L36 27.3783V8C36 5.79086 34.2091 4 32 4H31.0001V6.3C31.0001 8.233 29.4331 9.8 27.5001 9.8C25.5671 9.8 24.0001 8.233 24.0001 6.3V4H14.0001V6.3C14.0001 8.233 12.4331 9.8 10.5001 9.8C8.56707 9.8 7.00007 8.233 7.00007 6.3ZM26.0001 2.5C26.0001 1.67157 26.6717 1 27.5001 1C28.3285 1 29.0001 1.67157 29.0001 2.5V6.5C29.0001 7.32843 28.3285 8 27.5001 8C26.6717 8 26.0001 7.32843 26.0001 6.5V2.5Z" fill="white"/>
<path fill-rule="evenodd" clip-rule="evenodd" d="M31.6106 16.8488H32.3853C33.0187 16.8488 33.4832 16.3935 33.4832 15.9244C33.4832 15.4553 33.0046 15 32.5401 15H23.6297C23.1511 15 22.6865 15.4553 22.6865 15.9244C22.6865 16.3935 23.1651 16.8488 23.6297 16.8488H24.4034V22.8366L19.716 31.4183C21.2784 30.7974 25.0369 30.1903 28.3167 31.57C31.7514 33.1015 35.8195 31.8736 36.453 31.57L31.6106 22.6848V16.8488ZM31.4558 27.2792C31.4558 26.6583 30.9913 26.0513 30.203 26.0513C29.5695 26.0513 28.9502 26.5066 28.9502 27.2792C28.9502 28.0518 29.5836 28.5071 30.203 28.5071C30.8364 28.5071 31.4558 27.9001 31.4558 27.2792ZM27.8522 28.9624C27.8522 28.4933 27.3736 28.038 26.9091 28.038C26.4445 28.038 25.9659 28.4933 25.9659 28.9624C25.9659 29.4315 26.4305 29.8868 26.9091 29.8868C27.3877 29.8868 27.8522 29.4315 27.8522 28.9624ZM37.2413 32.9497L38.6489 35.5573C39.7328 37.5441 38.1703 39.8482 35.8336 39.9999H20.0397C17.6889 39.9999 16.2813 37.5441 17.3792 35.5573L18.7869 32.9497C18.804 32.9497 18.8805 32.9291 19.008 32.8947C20.0326 32.6184 24.3548 31.4528 27.6974 32.9497C29.105 33.7223 30.6675 33.8741 32.0752 33.8741C34.3557 33.8741 36.1281 33.2676 36.8016 33.0371C36.9595 32.9831 37.057 32.9497 37.0864 32.9497H37.2413Z" fill="white"/>
</svg>
