<svg width="42" height="42" viewBox="0 0 42 42" fill="none" xmlns="http://www.w3.org/2000/svg">
<path fill-rule="evenodd" clip-rule="evenodd" d="M16 2C14.8954 2 14 2.89543 14 4V14C14 15.1046 14.8954 16 16 16H20V20H9C8.44772 20 8 20.4477 8 21V26H4C2.89543 26 2 26.8954 2 28V38C2 39.1046 2.89543 40 4 40H14C15.1046 40 16 39.1046 16 38V28C16 26.8954 15.1046 26 14 26H10V22H21H32V26H28C26.8954 26 26 26.8954 26 28V38C26 39.1046 26.8954 40 28 40H38C39.1046 40 40 39.1046 40 38V28C40 26.8954 39.1046 26 38 26H34V21C34 20.4477 33.5523 20 33 20H22V16H26C27.1046 16 28 15.1046 28 14V4C28 2.89543 27.1046 2 26 2H16Z" fill="white"/>
</svg>
