<svg width="42" height="42" viewBox="0 0 42 42" fill="none" xmlns="http://www.w3.org/2000/svg">
<g clip-path="url(#clip0_4190_42)">
<path fill-rule="evenodd" clip-rule="evenodd" d="M16.729 32.7287L17.9501 33.9499C17.1359 33.982 16.3148 34 15.4968 34C7.88194 34 -0.0823902 32.4797 0.000643725 32.3968C0.139034 31.401 0.619938 29.8309 1.23577 29.0177C1.80317 28.2509 2.57469 27.6501 3.38082 27.1456C4.47697 26.4834 5.6684 26.0189 6.86008 25.5543C7.69948 25.2271 8.53899 24.8998 9.34542 24.5034C9.46997 24.437 9.59452 24.3706 9.71561 24.3009C9.82632 24.2378 9.96471 24.3142 9.96471 24.437V27.3713C9.29006 27.7464 8.84029 28.4534 8.85759 29.26C8.88527 30.3952 9.85746 31.318 11.0407 31.3346C12.2793 31.3512 13.2861 30.3952 13.2861 29.2102C13.2861 28.221 12.5803 27.3879 11.6254 27.1522V24.4303C11.6254 23.9889 11.4386 23.5905 11.1376 23.3051C11.103 23.2719 11.0995 23.2221 11.1272 23.1856C11.3002 22.9698 11.4455 22.7275 11.5424 22.4553C11.6491 21.573 11.6411 20.6843 11.6331 19.7977V19.7977V19.7976C11.631 19.5636 11.6288 19.3297 11.6288 19.0962C11.1964 18.7775 10.9092 18.3095 10.6463 17.8481C10.2069 17.0349 9.8886 16.1585 9.75367 15.249C9.75021 15.2225 9.72945 15.1993 9.69831 15.1926C9.21395 15.0864 8.85759 14.6881 8.67076 14.2532C8.4528 13.7587 8.34555 13.2276 8.31095 12.6965C8.28327 12.1853 8.49432 11.6675 8.88873 11.3322C8.92679 11.299 8.94409 11.2492 8.93025 11.2028C8.52892 9.60285 8.23484 7.95978 8.30403 6.30675C8.34901 5.26779 8.54276 4.21556 9.0029 3.27619C9.38001 2.5061 9.94395 1.819 10.6532 1.3211C12.0717 0.312018 13.8811 0.0265547 15.5972 0C16.5659 0.0165967 17.5796 0.14937 18.4203 0.657229C18.7317 0.839793 18.9843 1.10534 19.1849 1.39744C20.0014 1.52026 20.8214 1.80904 21.4407 2.36669C22.3368 3.16997 22.7485 4.35829 22.8696 5.51674C23.0737 7.43864 22.6897 9.36386 22.1326 11.1961C22.1188 11.2459 22.1326 11.299 22.1742 11.3322C22.5893 11.6841 22.7969 12.2384 22.7416 12.7761C22.6793 13.4135 22.5478 14.0773 22.1707 14.625C21.9804 14.9005 21.6898 15.103 21.3577 15.1827C21.33 15.1893 21.3092 15.2092 21.3058 15.2391C21.1639 16.2017 20.8318 17.1344 20.3578 17.9908C20.1225 18.3991 19.863 18.8041 19.4755 19.0895C19.4749 19.3089 19.4724 19.5286 19.47 19.7485V19.7487C19.4636 20.3287 19.4572 20.9101 19.4827 21.4897L16.729 24.2434C14.3858 26.5866 14.3858 30.3856 16.729 32.7287ZM18.1476 31.3284C16.5856 29.7663 16.5855 27.2337 18.1476 25.6716L26.6718 17.1474C28.2339 15.5853 30.7666 15.5853 32.3287 17.1474L40.8529 25.6716C42.415 27.2337 42.415 29.7663 40.8529 31.3284L32.3287 39.8526C30.7666 41.4147 28.2339 41.4147 26.6718 39.8526L18.1476 31.3284ZM27.4858 34.5193C27.4858 35.0716 27.9335 35.5193 28.4858 35.5193H30.2294C30.7817 35.5193 31.2294 35.0716 31.2294 34.5193V30.3717H35.3768C35.9291 30.3717 36.3768 29.924 36.3768 29.3717V27.6281C36.3768 27.0758 35.9291 26.6281 35.3768 26.6281H31.2294V22.4808C31.2294 21.9285 30.7817 21.4808 30.2294 21.4808H28.4858C27.9335 21.4808 27.4858 21.9285 27.4858 22.4808V26.6281H23.3383C22.786 26.6281 22.3383 27.0758 22.3383 27.6281V29.3717C22.3383 29.924 22.786 30.3717 23.3383 30.3717H27.4858V34.5193Z" fill="white"/>
</g>
<defs>
<clipPath id="clip0_4190_42">
<rect width="42" height="42" fill="white"/>
</clipPath>
</defs>
</svg>
