<svg width="42" height="42" viewBox="0 0 42 42" fill="none" xmlns="http://www.w3.org/2000/svg">
<g clip-path="url(#clip0_4190_125)">
<path fill-rule="evenodd" clip-rule="evenodd" d="M13.5891 0C7.584 0 5.69238 5.03194 5.69238 5.94238C5.69238 6.36277 6.03808 7.1107 6.47525 7.79406C4.93409 9.36777 4 11.8211 4 15.5206C4 18.135 5.82001 20.0495 8.57066 21.0939C9.20947 22.0897 10.0284 22.8883 11 23.3944V25.2689C8.1357 25.7135 4.90062 26.6204 2.68434 27.3052C1.0662 27.8052 0 29.3154 0 31.0091V32.8775C0 32.8775 8.45428 35 14 35C15.4233 35 17.0382 34.8602 18.6526 34.6523L16.729 32.7287C14.3858 30.3856 14.3858 26.5866 16.729 24.2434L17 23.9724V22.7292C17.4248 22.3788 17.8096 21.965 18.151 21.4995C18.8903 21.3069 19.5812 21.0602 20.2106 20.7619L23.7007 17.2718C23.8962 16.7295 24 16.145 24 15.5206C24 11.5644 22.9318 9.03336 21.1954 7.47911C21.5626 6.77338 21.8462 6.0233 21.8462 5.55219C21.8462 4.44666 19.5942 0 13.5891 0ZM13.6489 1C13.396 1 13.1909 1.20507 13.1909 1.45804V2.19118H12.458C12.2051 2.19118 12 2.39625 12 2.64922C12 2.90219 12.2051 3.10726 12.458 3.10726H13.1909V3.83985C13.1909 4.09281 13.396 4.29789 13.6489 4.29789C13.9019 4.29789 14.107 4.09282 14.107 3.83985V3.10726H14.8398C15.0928 3.10726 15.2979 2.90219 15.2979 2.64922C15.2979 2.39625 15.0928 2.19118 14.8398 2.19118H14.107V1.45804C14.107 1.20507 13.9019 1 13.6489 1ZM20 7.5C20 7.5 18.1538 5.5 14 5.5C9.84615 5.5 8 7.5 8 7.5C8 7.5 10.1878 6.66667 14 6.66667C17.8122 6.66667 20 7.5 20 7.5ZM18.1476 31.3284C16.5856 29.7663 16.5855 27.2337 18.1476 25.6716L26.6718 17.1474C28.2339 15.5853 30.7666 15.5853 32.3287 17.1474L40.8529 25.6716C42.415 27.2337 42.415 29.7663 40.8529 31.3284L32.3287 39.8526C30.7666 41.4147 28.2339 41.4147 26.6718 39.8526L18.1476 31.3284ZM27.4858 34.5193C27.4858 35.0716 27.9335 35.5193 28.4858 35.5193H30.2294C30.7817 35.5193 31.2294 35.0716 31.2294 34.5193V30.3717H35.3768C35.9291 30.3717 36.3768 29.924 36.3768 29.3717V27.6281C36.3768 27.0758 35.9291 26.6281 35.3768 26.6281H31.2294V22.4808C31.2294 21.9285 30.7817 21.4808 30.2294 21.4808H28.4858C27.9335 21.4808 27.4858 21.9285 27.4858 22.4808V26.6281H23.3383C22.786 26.6281 22.3383 27.0758 22.3383 27.6281V29.3717C22.3383 29.924 22.786 30.3717 23.3383 30.3717H27.4858V34.5193Z" fill="white"/>
</g>
<defs>
<clipPath id="clip0_4190_125">
<rect width="42" height="42" fill="white"/>
</clipPath>
</defs>
</svg>
