<svg width="42" height="42" viewBox="0 0 42 42" fill="none" xmlns="http://www.w3.org/2000/svg">
<path fill-rule="evenodd" clip-rule="evenodd" d="M8.00009 2.5C8.00009 1.67157 8.67167 1 9.5001 1C10.3285 1 11.0001 1.67157 11.0001 2.5V6.5C11.0001 7.32843 10.3285 8 9.5001 8C8.67167 8 8.00009 7.32843 8.00009 6.5V2.5ZM6.00007 4V6.3C6.00007 8.233 7.56707 9.8 9.50007 9.8C11.4331 9.8 13.0001 8.233 13.0001 6.3V4H23.0001V6.3C23.0001 8.233 24.5671 9.8 26.5001 9.8C28.4331 9.8 30.0001 8.233 30.0001 6.3V4H31C33.2091 4 35 5.79086 35 8V18L32.7287 15.7287C30.3856 13.3856 26.5866 13.3856 24.2434 15.7287L15.7287 24.2434C13.3856 26.5866 13.3856 30.3856 15.7287 32.7287L17 34H5C2.79086 34 1 32.2091 1 30V8C1 5.79086 2.79086 4 5 4H6.00007ZM26.5001 1C25.6717 1 25.0001 1.67157 25.0001 2.5V6.5C25.0001 7.32843 25.6717 8 26.5001 8C27.3285 8 28.0001 7.32843 28.0001 6.5V2.5C28.0001 1.67157 27.3285 1 26.5001 1ZM17.1475 31.3284C15.5854 29.7663 15.5854 27.2337 17.1475 25.6716L25.6717 17.1474C27.2338 15.5853 29.7664 15.5853 31.3285 17.1474L39.8527 25.6716C41.4148 27.2337 41.4148 29.7663 39.8527 31.3284L31.3285 39.8526C29.7665 41.4147 27.2338 41.4147 25.6717 39.8526L17.1475 31.3284ZM26.4857 34.5193C26.4857 35.0716 26.9334 35.5193 27.4857 35.5193H29.2293C29.7816 35.5193 30.2293 35.0716 30.2293 34.5193V30.3717H34.3767C34.9289 30.3717 35.3767 29.924 35.3767 29.3717V27.6281C35.3767 27.0758 34.9289 26.6281 34.3767 26.6281H30.2293V22.4808C30.2293 21.9285 29.7816 21.4808 29.2293 21.4808H27.4857C26.9334 21.4808 26.4857 21.9285 26.4857 22.4808V26.6281H22.3381C21.7859 26.6281 21.3381 27.0758 21.3381 27.6281V29.3717C21.3381 29.924 21.7859 30.3717 22.3381 30.3717H26.4857V34.5193Z" fill="white"/>
</svg>
