<svg width="42" height="42" viewBox="0 0 42 42" fill="none" xmlns="http://www.w3.org/2000/svg">
<path fill-rule="evenodd" clip-rule="evenodd" d="M23.5081 12.6366C23.3673 12.5746 23.215 12.5433 23.0613 12.5448V12.5474H7.48491C7.22423 12.547 6.97248 12.643 6.7776 12.8174L3.75681 15.1109C3.40551 15.4613 3.07308 15.8304 2.76094 16.2166C2.26301 16.8157 2 17.713 2 18.901V33.6162C2.03272 34.3443 2.20166 35.0597 2.49793 35.7247C2.77367 36.3026 3.17099 36.8133 3.66233 37.2211C4.37093 37.7756 5.25643 38.0499 6.15199 37.9925H15.997C14.8827 35.0153 15.5228 31.5308 17.9173 29.1363L27.021 20.0326C27.3302 19.7234 27.6576 19.4435 27.9997 19.1928V18.8984C27.9742 17.6951 27.7239 16.8131 27.2132 16.214C26.9094 15.8566 26.5927 15.5095 26.2608 15.1752L23.8784 12.9048C23.7752 12.7901 23.649 12.6987 23.5081 12.6366ZM15.2169 19.4538H15.3242C15.6113 19.4538 15.8867 19.5686 16.0897 19.7731C16.2928 19.9776 16.4068 20.2549 16.4068 20.544V23.8172H19.8745C20.1616 23.8173 20.4369 23.9321 20.6399 24.1366C20.8429 24.341 20.957 24.6183 20.957 24.9074C20.957 25.1965 20.8429 25.4738 20.6399 25.6782C20.4369 25.8827 20.1616 25.9976 19.8745 25.9976H16.4068V29.2708C16.4068 29.8725 15.9217 30.361 15.3242 30.361H15.2169C14.6194 30.361 14.1342 29.8725 14.1342 29.2708V25.9976H10.6666C10.3795 25.9976 10.1041 25.8827 9.90112 25.6782C9.69812 25.4738 9.58408 25.1965 9.58408 24.9074C9.58408 24.6183 9.69812 24.341 9.90112 24.1366C10.1041 23.9321 10.3795 23.8173 10.6666 23.8172H14.1342V20.544C14.1342 20.2549 14.2483 19.9776 14.4513 19.7731C14.6544 19.5686 14.9298 19.4538 15.2169 19.4538ZM24.7593 2.97206C24.1286 2.3421 23.2732 1.99241 22.3846 2.00012H7.67387C6.78848 1.99986 5.9391 2.35307 5.31189 2.98234C5.00207 3.2928 4.75619 3.66181 4.58836 4.0682C4.42053 4.47458 4.33406 4.91034 4.3339 5.35047V9.11221C4.33423 9.29286 4.3699 9.47167 4.43886 9.63844C4.50783 9.80521 4.60874 9.95667 4.73583 10.0842C4.86292 10.2117 5.01371 10.3127 5.17959 10.3815C5.34546 10.4503 5.52317 10.4856 5.70257 10.4853H24.3763C25.1321 10.4878 25.7424 9.8733 25.745 9.11221V5.35047C25.745 4.45567 25.39 3.59944 24.7593 2.97206Z" fill="white"/>
<path d="M39.0966 20.8808C40.3655 22.1346 41 23.8586 41 25.5827C41 27.3067 40.3655 29.0307 39.0966 30.2845L29.4207 40.0017C26.7241 42.6661 22.4414 42.6661 19.9034 40.0017C18.6345 38.7479 18 37.0238 18 35.2998C18 33.5758 18.6345 31.8518 19.9034 30.5979L29.4207 20.8808C30.6897 19.6269 32.4345 19 34.1793 19C36.0828 19 37.8276 19.6269 39.0966 20.8808V20.8808ZM20.3563 35.6792C20.3563 37.4179 21.7743 38.7562 22.9288 39.3275C24.3657 40.0385 26.46 39.569 28.5234 37.6713L32.375 33.8758L26.0745 27.5432L22.2229 31.3386C21.26 32.2874 20.3563 33.9404 20.3563 35.6792ZM36.9519 22.0134C36.7698 22.1893 36.7183 22.6953 37.0345 22.9182C37.8729 23.5096 38.1448 24.6423 38.1448 25.5827C38.1448 26.6797 37.669 27.6201 37.0345 28.2471L33.8621 31.2249C33.5585 31.5724 33.6757 31.8168 33.8621 32.0086C34.0207 32.1653 34.3379 32.1653 34.4965 32.0086L37.669 28.874C38.6207 27.9336 39.0966 26.8365 39.0966 25.4259C39.0966 24.1721 38.6207 22.9538 37.669 22.0134C37.5479 21.8805 37.1339 21.8375 36.9519 22.0134Z" fill="white"/>
</svg>
