<svg width="42" height="42" viewBox="0 0 42 42" fill="none" xmlns="http://www.w3.org/2000/svg">
<g clip-path="url(#clip0_4190_152)">
<path fill-rule="evenodd" clip-rule="evenodd" d="M15.2437 10.9922C15.5702 11.0669 15.9291 11.0151 16.2442 10.8481C16.385 10.7752 16.5106 10.676 16.6123 10.5574C16.7139 10.4389 16.7892 10.3037 16.8329 10.1614C16.8941 10.0143 16.9241 9.86036 16.9211 9.70882C16.9181 9.55728 16.8821 9.4113 16.8154 9.27968C16.7486 9.14807 16.6524 9.03356 16.5326 8.94307C16.4128 8.85259 16.2719 8.788 16.1184 8.7532L11.8196 7.77661C12.1584 7.37319 12.5676 7.03143 13.0274 6.76841C13.7768 6.33578 14.6334 6.12784 15.489 6.17089C16.3446 6.21393 17.1607 6.50603 17.8341 7.01025C18.5076 7.51446 19.0081 8.20814 19.2724 9.00358C19.5368 9.79901 19.553 10.6605 19.3191 11.479C19.0852 12.2975 18.6117 13.0364 17.9584 13.6021C17.3051 14.1679 16.5014 14.5351 15.649 14.6574C14.7965 14.7797 13.9335 14.6515 13.1692 14.2891C12.4049 13.9266 11.7735 13.3462 11.355 12.6213C11.0747 12.1406 10.8956 11.6072 10.828 11.0521C10.7851 10.6999 10.7876 10.3432 10.835 9.99061L15.2437 10.9922ZM6.6927 9.04957L4.79707 15.6834C4.53941 16.7115 4.51524 17.7764 4.7263 18.8015C4.76813 19.2056 4.89674 19.594 5.10366 19.9412L16.4687 39.626C16.6528 39.9481 16.901 40.2293 17.199 40.4534C17.4969 40.6775 17.8388 40.84 18.2048 40.9316C18.5707 41.0232 18.9536 41.0421 19.3313 40.9871C19.709 40.9322 20.0741 40.8045 20.4054 40.6114L38.5772 30.1199C38.91 29.9295 39.2031 29.6773 39.4396 29.3776C39.676 29.078 39.8512 28.737 39.9548 28.3742C40.0585 28.0115 40.0886 27.6342 40.0435 27.2641C39.9985 26.894 39.879 26.5385 39.6922 26.218L28.1311 6.19373C28.0816 6.06554 27.9874 5.95978 27.865 5.89485C27.0942 4.95853 26.0265 4.30392 24.824 4.03035L14.9824 1.56695C13.4478 1.21859 11.8182 1.47745 10.4409 2.2884C9.7436 2.67925 9.13064 3.20366 8.63951 3.82957C8.14838 4.45548 7.7894 5.16973 7.58451 5.92865L7.34681 6.76049L3.07886 5.7909C2.92671 5.749 2.76374 5.73716 2.59953 5.75608C2.43532 5.77499 2.27318 5.82429 2.12263 5.90106C1.97209 5.97783 1.83617 6.08054 1.72288 6.20314C1.60959 6.32574 1.5212 6.46576 1.4629 6.61498C1.40461 6.7642 1.37759 6.91961 1.38343 7.07207C1.38928 7.22453 1.42786 7.37096 1.49692 7.50278C1.56598 7.63459 1.66412 7.74912 1.78558 7.83964C1.90704 7.93016 2.04937 7.99484 2.2042 8.02988L6.6927 9.04957ZM23.8004 28.8395L20.8015 30.5709C20.5101 30.7121 20.2289 30.7214 19.958 30.599C19.6871 30.4767 19.4624 30.297 19.2842 30.06C19.168 29.787 19.138 29.5256 19.1939 29.2757C19.2499 29.0258 19.4119 28.8099 19.6798 28.6281L22.6787 26.8967L22.1222 25.9328L19.1145 27.649C18.823 27.79 18.5522 27.8172 18.3019 27.7306C18.0516 27.6439 17.8343 27.4769 17.6501 27.2297C17.534 26.9568 17.5039 26.6953 17.5599 26.4454C17.6159 26.1956 17.7778 25.9797 18.0457 25.7978L20.2832 24.506L16.1166 22.0976C15.9424 22.035 15.7542 21.9363 15.552 21.8014C15.3498 21.6666 15.1891 21.484 15.07 21.2536C14.9569 20.9381 14.9265 20.6463 14.9788 20.3781C15.0312 20.1099 15.255 19.8277 15.6502 19.5315C15.9107 19.4084 16.182 19.3639 16.4641 19.3982C16.7464 19.4324 16.9997 19.5004 17.224 19.602L22.0413 22.4914L22.163 16.7097C22.1873 16.4645 22.2595 16.2188 22.3798 15.9725C22.5 15.7264 22.6756 15.5162 22.9066 15.3421C23.0679 15.2626 23.2221 15.2007 23.3693 15.1565C23.5163 15.1124 23.6597 15.0976 23.7994 15.1122C23.939 15.1268 24.0808 15.1809 24.2247 15.2746C24.3686 15.3683 24.5179 15.5133 24.6726 15.7096C24.8433 16.0053 24.9017 16.3456 24.8476 16.7304L24.665 21.9761L26.9491 20.6574C27.2303 20.5223 27.4956 20.4915 27.7452 20.565C27.9948 20.6385 28.2036 20.7967 28.3715 21.0397C28.5039 21.3168 28.5428 21.5935 28.4882 21.8699C28.4336 22.1461 28.2776 22.3723 28.02 22.5481L25.0611 24.2769L25.5999 25.2101L28.5832 23.4877C28.8643 23.3526 29.1355 23.3319 29.3969 23.4258C29.6582 23.5197 29.8729 23.6881 30.0409 23.9312C30.1733 24.2083 30.2133 24.481 30.1609 24.7492C30.1086 25.0174 29.9537 25.2394 29.6961 25.4153L26.704 27.1224L27.6403 28.7441C28.0993 29.635 27.8679 30.3466 26.946 30.8788C26.4902 31.142 26.0736 31.2397 25.6961 31.172C25.3186 31.1043 24.993 30.8573 24.719 30.4307L23.8004 28.8395Z" fill="white"/>
</g>
<defs>
<clipPath id="clip0_4190_152">
<rect width="42" height="42" fill="white"/>
</clipPath>
</defs>
</svg>
