<svg width="42" height="42" viewBox="0 0 42 42" fill="none" xmlns="http://www.w3.org/2000/svg">
<g clip-path="url(#clip0_4190_59)">
<path d="M37.8638 2.59169C38.7802 2.59349 39.6586 2.95832 40.3066 3.60633C40.9546 4.25434 41.3194 5.13271 41.3212 6.04913V29.903C41.3209 30.8195 40.9569 31.6985 40.3092 32.3469C39.6615 32.9954 38.783 33.3604 37.8665 33.3618H25.4606L31.1887 39.1928C31.5816 39.5939 31.5816 40.2347 31.1887 40.6357C31.0006 40.8197 30.748 40.9227 30.4849 40.9227C30.2218 40.9227 29.9692 40.8197 29.7811 40.6357L22.6372 33.3605H19.3614L12.2175 40.6357C12.0294 40.8197 11.7768 40.9227 11.5137 40.9227C11.2506 40.9227 10.998 40.8197 10.8099 40.6357C10.6227 40.4422 10.5181 40.1835 10.5181 39.9143C10.5181 39.6451 10.6227 39.3864 10.8099 39.1928L16.538 33.3618H4.1321C3.21535 33.3604 2.33664 32.9952 1.68891 32.3464C1.04117 31.6977 0.677367 30.8184 0.677368 29.9017V6.04913C0.678085 5.13285 1.04221 4.25427 1.68986 3.6061C2.33752 2.95794 3.21582 2.59313 4.1321 2.59169H20.0157L20.0306 0.980843C20.0257 0.849236 20.0474 0.717994 20.0944 0.594962C20.1414 0.471931 20.2127 0.359638 20.3041 0.264798C20.3955 0.169958 20.505 0.0945182 20.6262 0.0429904C20.7474 -0.00853732 20.8778 -0.0350952 21.0095 -0.0350952C21.1412 -0.0350952 21.2715 -0.00853732 21.3927 0.0429904C21.5139 0.0945182 21.6235 0.169958 21.7148 0.264798C21.8062 0.359638 21.8775 0.471931 21.9245 0.594962C21.9715 0.717994 21.9932 0.849236 21.9883 0.980843L21.9734 2.59169H37.8651H37.8638ZM36.2272 16.7683C35.4495 16.7683 35.0052 17.214 35.0052 17.9903V28.3613C35.0052 29.1389 35.4495 29.5833 36.2272 29.5833C37.0048 29.5833 37.4506 29.1389 37.4506 28.3613V17.9903C37.4519 17.2154 37.0076 16.7683 36.2272 16.7683ZM15.9974 18.5878C15.2197 18.5878 14.774 19.0321 14.774 19.8098V28.3626C14.774 29.1403 15.2211 29.586 15.9974 29.586C16.775 29.586 17.2208 29.1403 17.2208 28.3626V19.8098C17.2221 19.0321 16.7737 18.5878 15.9974 18.5878ZM5.93939 25.3225C5.1631 25.3225 4.71737 25.7668 4.71737 26.5445V28.3613C4.71737 29.1389 5.16309 29.5846 5.93939 29.5846C6.71705 29.5846 7.16277 29.1389 7.16277 28.3613V26.5445C7.16548 25.7668 6.71705 25.3225 5.93939 25.3225ZM25.8725 21.5182C25.0948 21.5182 24.6491 21.9639 24.6491 22.7402V28.3599C24.6491 29.1376 25.0962 29.5819 25.8725 29.5819C26.6502 29.5819 27.0959 29.1376 27.0959 28.3599V22.7402C27.0972 21.9653 26.6488 21.5182 25.8725 21.5182ZM4.15513 18.9603C4.5995 19.5456 5.00729 19.8369 5.37444 19.8355C5.65317 19.8357 5.92434 19.7449 6.14668 19.5768L15.4528 12.5752L20.9112 14.3703L31.3594 11.3328L33.2765 14.7469L37.4492 7.08826L28.7636 5.38122L30.5384 8.91588L21.3028 11.8002L14.9799 9.71927L4.60221 17.527C4.30686 17.7478 4.15648 18.226 4.15513 18.9603Z" fill="white"/>
</g>
<defs>
<clipPath id="clip0_4190_59">
<rect width="42" height="42" fill="white"/>
</clipPath>
</defs>
</svg>
