<svg width="42" height="42" viewBox="0 0 42 42" fill="none" xmlns="http://www.w3.org/2000/svg">
<path fill-rule="evenodd" clip-rule="evenodd" d="M7.16223 3.12272L2.39244 11.25H20.0952V2H9.10182C8.71143 2.00109 8.32789 2.10496 7.98818 2.30161C7.64846 2.49825 7.36401 2.78104 7.16223 3.12272ZM39.6076 11.25H21.9048V2H32.8982C33.2886 2.00109 33.6721 2.10496 34.0118 2.30161C34.3515 2.49825 34.636 2.78104 34.8378 3.12272L39.6076 11.25ZM40 21.6191V13.1H2V36.6875C2.00067 37.3006 2.2392 37.8884 2.66324 38.3219C3.08728 38.7555 3.66222 38.9993 4.2619 39H20.7523C19.0278 36.7941 18 34.0171 18 31C18 23.8203 23.8203 18 31 18C34.493 18 37.6642 19.3776 40 21.6191Z" fill="white"/>
<path fill-rule="evenodd" clip-rule="evenodd" d="M31.119 41.2381C36.7076 41.2381 41.2381 36.7076 41.2381 31.119C41.2381 25.5305 36.7076 21 31.119 21C25.5305 21 21 25.5305 21 31.119C21 36.7076 25.5305 41.2381 31.119 41.2381ZM37.2347 32.0568H38.9418C38.9858 32.0568 39.0152 32.1065 38.9917 32.1473L36.2839 36.9694C36.2619 37.0102 36.2047 37.0102 36.1827 36.9694L33.4748 32.1473C33.4528 32.1065 33.4807 32.0568 33.5262 32.0568H35.1875C35.3166 32.0568 35.4222 31.9481 35.4222 31.8153V28.3692C35.4222 28.2364 35.3166 28.1278 35.1875 28.1278H28.7383C28.706 28.1278 28.6796 28.1006 28.6796 28.0675L28.7383 26.5C28.7383 26.4668 28.7647 26.4396 28.797 26.4396H36.058C36.5758 26.4396 37.0587 26.8727 37.0587 27.4053L37 31.8153C37 31.9481 37.1056 32.0568 37.2347 32.0568ZM25.8281 30.9432H24.059C24.0135 30.9432 23.9857 30.8935 24.0077 30.8527L26.7155 26.0306C26.7375 25.9898 26.7947 25.9898 26.8167 26.0306L29.526 30.8527C29.548 30.8935 29.5201 30.9432 29.4747 30.9432H27.7056C27.5766 30.9432 27.4709 31.0519 27.4709 31.1847V34.6308C27.4709 34.7636 27.5766 34.8722 27.7056 34.8722H34.2625C34.2948 34.8722 34.3212 34.8994 34.3212 34.9325V36.2603C34.3212 36.2935 34.2948 36.3207 34.2625 36.3207H27.0015C26.4837 36.3207 26.0627 35.8876 26.0627 35.355V31.1847C26.0627 31.0519 25.9571 30.9432 25.8281 30.9432Z" fill="white"/>
</svg>
