<svg width="42" height="42" viewBox="0 0 42 42" fill="none" xmlns="http://www.w3.org/2000/svg">
<g clip-path="url(#clip0_4190_281)">
<path fill-rule="evenodd" clip-rule="evenodd" d="M20.5608 2.61183H21.6552C22.5501 2.61183 23.2063 1.96862 23.2063 1.30591C23.2063 0.643211 22.5302 0 21.8739 0H9.28587C8.60973 0 7.95348 0.643211 7.95348 1.30591C7.95348 1.96862 8.62962 2.61183 9.28587 2.61183H10.379V11.0708L3.75682 23.1944L2.44432 25.3579L0.45569 29.0418C-1.09545 31.8485 0.89319 35.3179 4.21421 35.3179H16.0925C15.7745 34.5071 15.521 33.6621 15.3386 32.7897C15.2871 32.5437 15.3378 32.2881 15.4721 32.0757L16.0869 31.1029C16.7057 30.124 16.7057 28.8762 16.0869 27.8973L15.4721 26.9245C15.3378 26.712 15.2871 26.4564 15.3385 26.2104C15.9475 23.2988 17.348 20.6918 19.2958 18.6417C19.4874 18.4401 19.7586 18.3361 20.0365 18.3473L21.5652 18.4085C22.5408 18.4476 23.4618 18.0104 24.0495 17.2579L20.5608 10.8564V2.61183ZM32.0378 17.1962C32.3287 17.2483 32.5745 17.4381 32.7119 17.6998L33.6978 19.5774C34.2363 20.6027 35.3168 21.2266 36.474 21.1802L38.5905 21.0954C38.8853 21.0836 39.1721 21.2011 39.3628 21.4262C40.3173 22.5533 41.0757 23.8517 41.5854 25.2687C41.6853 25.5465 41.6437 25.8537 41.486 26.1032L40.3521 27.8972C39.7333 28.8762 39.7333 30.1239 40.3521 31.1029L41.486 32.8968C41.6437 33.1463 41.6853 33.4536 41.5854 33.7313C41.0757 35.1484 40.3173 36.4468 39.3628 37.5738C39.1721 37.799 38.8853 37.9165 38.5905 37.9047L36.474 37.8199C35.3168 37.7735 34.2363 38.3973 33.6978 39.4227L32.7119 41.3002C32.5745 41.5619 32.3288 41.7517 32.0378 41.8038C31.3179 41.9327 30.5767 42 29.8197 42C29.0628 42 28.3216 41.9327 27.6018 41.8038C27.3108 41.7517 27.0651 41.5619 26.9277 41.3003L25.9417 39.4227C25.4033 38.3973 24.3227 37.7735 23.1655 37.8199L21.0489 37.9047C20.7541 37.9165 20.4673 37.799 20.2766 37.5738C19.3222 36.4468 18.5638 35.1485 18.0541 33.7315C17.9542 33.4538 17.9958 33.1465 18.1535 32.897L19.2875 31.1029C19.9062 30.1239 19.9062 28.8762 19.2875 27.8972L18.1535 26.103C17.9958 25.8535 17.9542 25.5463 18.0541 25.2686C18.5638 23.8516 19.3221 22.5532 20.2766 21.4262C20.4673 21.2011 20.754 21.0836 21.0489 21.0954L23.1655 21.1802C24.3227 21.2266 25.4033 20.6027 25.9417 19.5774L26.9277 17.6997C27.0651 17.438 27.3109 17.2483 27.6018 17.1962C28.3216 17.0673 29.0628 17 29.8197 17C30.5767 17 31.3179 17.0673 32.0378 17.1962ZM29.8198 34.3077C32.475 34.3077 34.6275 32.1552 34.6275 29.5C34.6275 26.8448 32.475 24.6923 29.8198 24.6923C27.1646 24.6923 25.0121 26.8448 25.0121 29.5C25.0121 32.1552 27.1646 34.3077 29.8198 34.3077Z" fill="white"/>
</g>
<defs>
<clipPath id="clip0_4190_281">
<rect width="42" height="42" fill="white"/>
</clipPath>
</defs>
</svg>
