<svg width="22" height="22" viewBox="0 0 22 22" fill="none" xmlns="http://www.w3.org/2000/svg">
<path d="M0 4C0 1.79086 1.79086 0 4 0H18C20.2091 0 22 1.79086 22 4V18C22 20.2091 20.2091 22 18 22H4C1.79086 22 0 20.2091 0 18V4Z" fill="#FFEBEE"/>
<path d="M6.996 11.52V17.414H7.976V11.562C8.676 12.15 9.362 12.85 10.048 13.69L10.608 12.822C10.216 12.43 9.81 12.052 9.376 11.688C9.824 11.38 10.244 10.96 10.622 10.456L10.02 9.868C9.614 10.442 9.18 10.876 8.732 11.17C8.48 10.988 8.228 10.806 7.976 10.638V10.4C8.718 9.462 9.264 8.524 9.614 7.572V6.746H7.654L8.144 6.55C7.948 5.948 7.682 5.276 7.332 4.548L6.352 4.814C6.688 5.43 6.968 6.074 7.206 6.746H4.924V7.67H8.62C7.948 9.21 6.59 10.806 4.546 12.444L4.84 13.452C5.652 12.808 6.366 12.164 6.996 11.52ZM12.498 4.59V17.386H13.492V10.232C14.402 10.876 15.522 11.8 16.838 12.976L17.44 12.108C16.096 11.016 14.78 10.036 13.492 9.196V4.59H12.498Z" fill="#E53935"/>
<path d="M4 1H18V-1H4V1ZM21 4V18H23V4H21ZM18 21H4V23H18V21ZM1 18V4H-1V18H1ZM4 21C2.34315 21 1 19.6569 1 18H-1C-1 20.7614 1.23858 23 4 23V21ZM21 18C21 19.6569 19.6569 21 18 21V23C20.7614 23 23 20.7614 23 18H21ZM18 1C19.6569 1 21 2.34315 21 4H23C23 1.23858 20.7614 -1 18 -1V1ZM4 -1C1.23858 -1 -1 1.23858 -1 4H1C1 2.34315 2.34315 1 4 1V-1Z" fill="#EF9A9A"/>
</svg>
