<svg width="19" height="17" viewBox="0 0 19 17" fill="none" xmlns="http://www.w3.org/2000/svg">
<path fill-rule="evenodd" clip-rule="evenodd" d="M0.500031 0.500031C0.776173 0.500031 1.00003 0.723888 1.00003 1.00003V15.4878H17.5551C17.8312 15.4878 18.0551 15.7117 18.0551 15.9878C18.0551 16.2639 17.8312 16.4878 17.5551 16.4878H0.500031C0.223888 16.4878 3.05176e-05 16.2639 3.05176e-05 15.9878V1.00003C3.05176e-05 0.723888 0.223888 0.500031 0.500031 0.500031ZM17.8032 1.08273C18.0429 1.21973 18.1262 1.52516 17.9892 1.76492L14.5828 7.72617C14.8243 7.99956 14.9709 8.35881 14.9709 8.75231C14.9709 9.6086 14.2767 10.3028 13.4204 10.3028C12.5642 10.3028 11.87 9.6086 11.87 8.75231C11.87 8.7124 11.8715 8.67285 11.8745 8.63371L7.33716 6.68915C7.05338 7.00396 6.64239 7.20186 6.18519 7.20186C6.09805 7.20186 6.0126 7.19467 5.92938 7.18085L3.00755 12.6071C2.87663 12.8503 2.5734 12.9412 2.33026 12.8103C2.08712 12.6794 1.99616 12.3762 2.12707 12.133L5.04906 6.70647C4.79196 6.42973 4.63473 6.05893 4.63473 5.6514C4.63473 4.7951 5.32889 4.10094 6.18519 4.10094C7.04148 4.10094 7.73565 4.7951 7.73565 5.6514C7.73565 5.69132 7.73414 5.73089 7.73117 5.77005L12.2684 7.71459C12.5522 7.39976 12.9632 7.20185 13.4204 7.20185C13.5211 7.20185 13.6194 7.21143 13.7147 7.22973L17.121 1.26878C17.258 1.02902 17.5634 0.945724 17.8032 1.08273Z" fill="#BFBFBF"/>
</svg>
