<svg width="24" height="25" viewBox="0 0 24 25" fill="none" xmlns="http://www.w3.org/2000/svg">
<path fill-rule="evenodd" clip-rule="evenodd" d="M3.50012 4.49997C3.77626 4.49997 4.00012 4.72383 4.00012 4.99997V19.4874H20.5548C20.831 19.4874 21.0548 19.7113 21.0548 19.9874C21.0548 20.2636 20.831 20.4874 20.5548 20.4874H3.50012C3.22398 20.4874 3.00012 20.2636 3.00012 19.9874V4.99997C3.00012 4.72383 3.22398 4.49997 3.50012 4.49997ZM20.8029 5.08266C21.0426 5.21966 21.1259 5.52509 20.9889 5.76485L17.5825 11.7261C17.8241 11.9994 17.9706 12.3587 17.9706 12.7521C17.9706 13.6084 17.2765 14.3026 16.4202 14.3026C15.5639 14.3026 14.8698 13.6084 14.8698 12.7521C14.8698 12.7122 14.8713 12.6726 14.8742 12.6335L10.3369 10.6889C10.0532 11.0037 9.64218 11.2016 9.18497 11.2016C9.0979 11.2016 9.01252 11.1945 8.92937 11.1807L6.00759 16.6068C5.87667 16.85 5.57344 16.9409 5.33031 16.81C5.08717 16.6791 4.9962 16.3759 5.12712 16.1327L8.04899 10.7064C7.79182 10.4296 7.63454 10.0588 7.63454 9.65121C7.63454 8.79493 8.32869 8.10078 9.18497 8.10078C10.0412 8.10078 10.7354 8.79493 10.7354 9.65121C10.7354 9.69111 10.7339 9.73066 10.7309 9.7698L15.2683 11.7144C15.5521 11.3996 15.963 11.2017 16.4202 11.2017C16.5208 11.2017 16.6192 11.2113 16.7145 11.2296L20.1207 5.26871C20.2577 5.02895 20.5631 4.94565 20.8029 5.08266Z" fill="#1890FF"/>
</svg>
