<svg width="16" height="16" viewBox="0 0 16 16" fill="none" xmlns="http://www.w3.org/2000/svg">
<path fill-rule="evenodd" clip-rule="evenodd" d="M12.336 0.537278C11.9455 0.146754 11.3123 0.146754 10.9218 0.537278L2.95512 8.50395C2.84535 8.61373 2.76264 8.74755 2.71355 8.89483L1.91688 11.2848C1.7971 11.6442 1.89062 12.0403 2.15846 12.3082C2.42629 12.576 2.82246 12.6695 3.18179 12.5497L5.57179 11.7531C5.71907 11.704 5.8529 11.6213 5.96267 11.5115L13.9293 3.54483C14.3199 3.1543 14.3199 2.52114 13.9293 2.13061L12.336 0.537278ZM3.66223 9.21106L3.26085 10.4152L2.86556 11.6011L4.05142 11.2058L5.25557 10.8044L12.5151 3.54483L13.2222 2.83772L12.5151 2.13061L12.336 1.95149L11.6289 1.24438L10.9218 1.95149L3.66223 9.21106ZM2.81025 13.8977C2.5341 13.8977 2.31025 14.1216 2.31025 14.3977C2.31025 14.6739 2.5341 14.8977 2.81025 14.8977H14.4053C14.6815 14.8977 14.9053 14.6739 14.9053 14.3977C14.9053 14.1216 14.6815 13.8977 14.4053 13.8977H2.81025Z" fill="#BDBDBD"/>
</svg>
