<svg width="16" height="17" viewBox="0 0 16 17" fill="none" xmlns="http://www.w3.org/2000/svg">
<path d="M14.0999 2.4C12.9499 1.2 10.9999 1.2 9.84985 2.4L8.09985 4.2C7.89985 4.4 7.89985 4.75 8.09985 4.95C8.29985 5.15 8.59985 5.15 8.79985 4.95L10.5499 3.15C11.3499 2.35 12.5999 2.35 13.3999 3.15C14.1999 3.95 14.1999 5.25 13.3999 6.05L10.5499 8.95C9.74985 9.75 8.49985 9.75 7.69985 8.95C7.49985 8.75 7.19985 8.75 6.99985 8.95C6.79985 9.15 6.79985 9.5 6.99985 9.7C8.14985 10.9 10.0999 10.9 11.2499 9.7L14.0999 6.8C15.2999 5.55 15.2999 3.6 14.0999 2.4Z" fill="#BFBFBF"/>
<path d="M7.20003 12.05L5.45003 13.85C4.65003 14.65 3.40003 14.65 2.60003 13.85C1.80003 13.05 1.80003 11.75 2.60003 10.95L5.45003 8.05002C6.25003 7.25002 7.50003 7.25002 8.30003 8.05002C8.50003 8.25002 8.80003 8.25002 9.00003 8.05002C9.20003 7.85002 9.20003 7.50002 9.00003 7.30002C7.85003 6.10002 5.90003 6.10002 4.75003 7.30002L1.90003 10.2C0.700026 11.4 0.750026 13.35 1.90003 14.55C3.05003 15.75 5.00003 15.75 6.15003 14.55L7.90003 12.75C8.10003 12.55 8.10003 12.2 7.90003 12C7.70003 11.85 7.40003 11.85 7.20003 12.05Z" fill="#BFBFBF"/>
</svg>
