<svg width="16" height="16" viewBox="0 0 16 16" fill="none" xmlns="http://www.w3.org/2000/svg">
<path d="M14.0999 1.9C12.9499 0.7 10.9999 0.7 9.84991 1.9L8.09991 3.7C7.89991 3.9 7.89991 4.25 8.09991 4.45C8.29991 4.65 8.59991 4.65 8.79991 4.45L10.5499 2.65C11.3499 1.85 12.5999 1.85 13.3999 2.65C14.1999 3.45 14.1999 4.75 13.3999 5.55L10.5499 8.45C9.74991 9.25 8.49991 9.25 7.69991 8.45C7.49991 8.25 7.19991 8.25 6.99991 8.45C6.79991 8.65 6.79991 9 6.99991 9.2C8.14991 10.4 10.0999 10.4 11.2499 9.2L14.0999 6.3C15.2999 5.05 15.2999 3.1 14.0999 1.9V1.9Z" fill="#1890FF"/>
<path d="M7.20008 11.5504L5.45007 13.3504C4.65007 14.1504 3.40007 14.1504 2.60007 13.3504C1.80007 12.5504 1.80007 11.2504 2.60007 10.4504L5.45007 7.55039C6.25007 6.75039 7.50008 6.75039 8.30008 7.55039C8.50008 7.75039 8.80008 7.75039 9.00008 7.55039C9.20008 7.35039 9.20008 7.00039 9.00008 6.80039C7.85008 5.60039 5.90007 5.60039 4.75007 6.80039L1.90007 9.70039C0.700072 10.9004 0.750072 12.8504 1.90007 14.0504C3.05007 15.2504 5.00007 15.2504 6.15008 14.0504L7.90008 12.2504C8.10008 12.0504 8.10008 11.7004 7.90008 11.5004C7.70008 11.3504 7.40008 11.3504 7.20008 11.5504V11.5504Z" fill="#1890FF"/>
</svg>
