<svg width="59" height="44" viewBox="0 0 59 44" fill="none" xmlns="http://www.w3.org/2000/svg">
<ellipse cx="29.5" cy="39.027" rx="29.5" ry="4" fill="#EBF0F3"/>
<mask id="path-2-inside-1_1375_16674" fill="white">
<path fill-rule="evenodd" clip-rule="evenodd" d="M8 0C6.89543 0 6 0.89543 6 2V5.40548V5.78396V37.027C6 38.1316 6.89543 39.027 8 39.027H51.0062C52.1108 39.027 53.0062 38.1316 53.0062 37.027V5.40549C53.0062 4.30092 52.1108 3.40549 51.0062 3.40549H22.5409V2C22.5409 0.895431 21.6455 0 20.5409 0H8Z"/>
</mask>
<path fill-rule="evenodd" clip-rule="evenodd" d="M8 0C6.89543 0 6 0.89543 6 2V5.40548V5.78396V37.027C6 38.1316 6.89543 39.027 8 39.027H51.0062C52.1108 39.027 53.0062 38.1316 53.0062 37.027V5.40549C53.0062 4.30092 52.1108 3.40549 51.0062 3.40549H22.5409V2C22.5409 0.895431 21.6455 0 20.5409 0H8Z" fill="#E5ECF1"/>
<path d="M22.5409 3.40549H21.5409V4.40549H22.5409V3.40549ZM7 2C7 1.44772 7.44771 1 8 1V-1C6.34315 -1 5 0.343145 5 2H7ZM7 5.40548V2H5V5.40548H7ZM7 5.78396V5.40548H5V5.78396H7ZM7 37.027V5.78396H5V37.027H7ZM8 38.027C7.44772 38.027 7 37.5793 7 37.027H5C5 38.6839 6.34315 40.027 8 40.027V38.027ZM51.0062 38.027H8V40.027H51.0062V38.027ZM52.0062 37.027C52.0062 37.5793 51.5585 38.027 51.0062 38.027V40.027C52.663 40.027 54.0062 38.6839 54.0062 37.027H52.0062ZM52.0062 5.40549V37.027H54.0062V5.40549H52.0062ZM51.0062 4.40549C51.5585 4.40549 52.0062 4.8532 52.0062 5.40549H54.0062C54.0062 3.74863 52.663 2.40549 51.0062 2.40549V4.40549ZM22.5409 4.40549H51.0062V2.40549H22.5409V4.40549ZM21.5409 2V3.40549H23.5409V2H21.5409ZM20.5409 1C21.0932 1 21.5409 1.44772 21.5409 2H23.5409C23.5409 0.343145 22.1978 -1 20.5409 -1V1ZM8 1H20.5409V-1H8V1Z" fill="#B6C9DB" mask="url(#path-2-inside-1_1375_16674)"/>
<path d="M11.9565 11.7084C12.0957 11.006 12.7119 10.5 13.4279 10.5H56.1064C57.052 10.5 57.7616 11.3642 57.5778 12.2916L52.5852 37.4815C52.446 38.1838 51.8299 38.6899 51.1139 38.6899H8.4353C7.48979 38.6899 6.7801 37.8257 6.96392 36.8982L11.9565 11.7084Z" fill="white" stroke="#B6C9DB"/>
<mask id="mask0_1375_16674" style="mask-type:alpha" maskUnits="userSpaceOnUse" x="6" y="10" width="51" height="29">
<path d="M11.7836 11.732C11.9242 11.0313 12.5396 10.527 13.2543 10.527H54.5591C55.506 10.527 56.216 11.3936 56.0298 12.322L51.2164 36.322C51.0758 37.0227 50.4604 37.527 49.7457 37.527H8.44094C7.49404 37.527 6.78403 36.6605 6.97023 35.732L11.7836 11.732Z" fill="white" stroke="#99B1C9"/>
</mask>
<g mask="url(#mask0_1375_16674)">
<path d="M13.9883 16.2666C14.3525 14.3856 15.9994 13.027 17.9154 13.027H55.1511C57.6653 13.027 59.5562 15.3191 59.0782 17.7875L55.0117 38.7874C54.6475 40.6684 53.0006 42.027 51.0846 42.027H13.8489C11.3347 42.027 9.44384 39.7349 9.92182 37.2666L13.9883 16.2666Z" fill="#F2F6FA"/>
</g>
<circle cx="27" cy="21.027" r="1" fill="#8EA7BE"/>
<circle cx="43" cy="21.027" r="1" fill="#8EA7BE"/>
<path d="M41.3887 30.96C40.7821 29.4986 39.7558 28.25 38.4396 27.3719C37.1233 26.4939 35.5762 26.0258 33.994 26.027C32.4117 26.0282 30.8654 26.4986 29.5504 27.3786C28.2355 28.2586 27.2111 29.5088 26.6067 30.9711L27.346 31.2767C27.89 29.9607 28.812 28.8355 29.9954 28.0434C31.1788 27.2514 32.5706 26.8281 33.9946 26.827C35.4186 26.8259 36.811 27.2472 37.9956 28.0374C39.1802 28.8277 40.1039 29.9515 40.6499 31.2667L41.3887 30.96Z" fill="#8EA7BE"/>
</svg>
