<svg width="59" height="44" viewBox="0 0 59 44" fill="none" xmlns="http://www.w3.org/2000/svg">
<ellipse cx="29.5" cy="39.5137" rx="29.5" ry="4" fill="#EBF0F3"/>
<mask id="path-2-inside-1" fill="white">
<path fill-rule="evenodd" clip-rule="evenodd" d="M8 0.486572C6.89543 0.486572 6 1.382 6 2.48657V5.89206V6.27053V37.5136C6 38.6181 6.89543 39.5136 8 39.5136H51.0062C52.1108 39.5136 53.0062 38.6182 53.0062 37.5136V5.89206C53.0062 4.78749 52.1108 3.89206 51.0062 3.89206H22.5409V2.48657C22.5409 1.382 21.6455 0.486572 20.5409 0.486572H8Z"/>
</mask>
<path fill-rule="evenodd" clip-rule="evenodd" d="M8 0.486572C6.89543 0.486572 6 1.382 6 2.48657V5.89206V6.27053V37.5136C6 38.6181 6.89543 39.5136 8 39.5136H51.0062C52.1108 39.5136 53.0062 38.6182 53.0062 37.5136V5.89206C53.0062 4.78749 52.1108 3.89206 51.0062 3.89206H22.5409V2.48657C22.5409 1.382 21.6455 0.486572 20.5409 0.486572H8Z" fill="#D1DDE7"/>
<path d="M22.5409 3.89206H21.5409V4.89206H22.5409V3.89206ZM7 2.48657C7 1.93429 7.44771 1.48657 8 1.48657V-0.513428C6.34315 -0.513428 5 0.829717 5 2.48657H7ZM7 5.89206V2.48657H5V5.89206H7ZM7 6.27053V5.89206H5V6.27053H7ZM7 37.5136V6.27053H5V37.5136H7ZM8 38.5136C7.44772 38.5136 7 38.0659 7 37.5136H5C5 39.1704 6.34315 40.5136 8 40.5136V38.5136ZM51.0062 38.5136H8V40.5136H51.0062V38.5136ZM52.0062 37.5136C52.0062 38.0659 51.5585 38.5136 51.0062 38.5136V40.5136C52.663 40.5136 54.0062 39.1704 54.0062 37.5136H52.0062ZM52.0062 5.89206V37.5136H54.0062V5.89206H52.0062ZM51.0062 4.89206C51.5585 4.89206 52.0062 5.33977 52.0062 5.89206H54.0062C54.0062 4.2352 52.663 2.89206 51.0062 2.89206V4.89206ZM22.5409 4.89206H51.0062V2.89206H22.5409V4.89206ZM21.5409 2.48657V3.89206H23.5409V2.48657H21.5409ZM20.5409 1.48657C21.0932 1.48657 21.5409 1.93429 21.5409 2.48657H23.5409C23.5409 0.829717 22.1978 -0.513428 20.5409 -0.513428V1.48657ZM8 1.48657H20.5409V-0.513428H8V1.48657Z" fill="#B6C9DB" mask="url(#path-2-inside-1)"/>
<path d="M11.9565 11.9249C12.0957 11.2226 12.7119 10.7166 13.4279 10.7166H56.1064C57.052 10.7166 57.7616 11.5807 57.5778 12.5082L52.5852 37.698C52.446 38.4004 51.8299 38.9064 51.1139 38.9064H8.4353C7.48979 38.9064 6.7801 38.0423 6.96392 37.1148L11.9565 11.9249Z" fill="white" stroke="#B6C9DB"/>
<mask id="mask0" mask-type="alpha" maskUnits="userSpaceOnUse" x="6" y="10" width="51" height="29">
<path d="M11.7836 12.2187C11.9242 11.5179 12.5396 11.0137 13.2543 11.0137H54.5591C55.506 11.0137 56.216 11.8802 56.0298 12.8086L51.2164 36.8086C51.0758 37.5094 50.4604 38.0137 49.7457 38.0137H8.44094C7.49404 38.0137 6.78403 37.1471 6.97023 36.2187L11.7836 12.2187Z" fill="white" stroke="#99B1C9"/>
</mask>
<g mask="url(#mask0)">
<path d="M13.9883 16.7532C14.3525 14.8722 15.9994 13.5137 17.9154 13.5137H55.1511C57.6653 13.5137 59.5562 15.8058 59.0782 18.2741L55.0117 39.2741C54.6475 41.1551 53.0006 42.5137 51.0846 42.5137H13.8489C11.3347 42.5137 9.44384 40.2216 9.92182 37.7532L13.9883 16.7532Z" fill="#E1EBF3"/>
</g>
<circle cx="27" cy="21.5137" r="1" fill="#8EA7BE"/>
<circle cx="43" cy="21.5137" r="1" fill="#8EA7BE"/>
<path d="M26.6113 27.5807C27.2179 29.042 28.2442 30.2907 29.5604 31.1688C30.8767 32.0468 32.4238 32.5149 34.006 32.5137C35.5883 32.5125 37.1346 32.0421 38.4496 31.1621C39.7645 30.282 40.7889 29.0318 41.3933 27.5696L40.654 27.264C40.11 28.58 39.188 29.7052 38.0046 30.4972C36.8212 31.2893 35.4294 31.7126 34.0054 31.7137C32.5814 31.7147 31.189 31.2935 30.0044 30.5033C28.8198 29.713 27.8961 28.5892 27.3501 27.274L26.6113 27.5807Z" fill="#8EA7BE"/>
</svg>
