<svg width="24" height="24" viewBox="0 0 24 24" fill="none" xmlns="http://www.w3.org/2000/svg">
<g clip-path="url(#clip0)">
<g filter="url(#filter0_d)">
<rect x="2" y="2" width="20" height="20" rx="4" fill="#52C41A"/>
</g>
<path fill-rule="evenodd" clip-rule="evenodd" d="M16.0962 5.73933C15.5104 5.15354 14.5607 5.15354 13.9749 5.73933L6.90381 12.8104C6.73915 12.9751 6.61509 13.1758 6.54145 13.3967L5.83434 15.518C5.65467 16.057 5.79496 16.6513 6.1967 17.053C6.59845 17.4548 7.1927 17.5951 7.73171 17.4154L9.85303 16.7083C10.0739 16.6347 10.2747 16.5106 10.4393 16.3459L17.5104 9.27486C18.0962 8.68907 18.0962 7.73933 17.5104 7.15354L16.0962 5.73933ZM7.96447 13.8711L7.85029 14.2136L7.25736 15.9924L9.03615 15.3994L9.37868 15.2853L15.3891 9.27486L16.4498 8.2142L16.0962 7.86065L15.3891 7.15354L15.0355 6.79999L13.9749 7.86065L7.96447 13.8711ZM12 16.9996C11.5858 16.9996 11.25 17.3354 11.25 17.7496C11.25 18.1639 11.5858 18.4996 12 18.4996H17.5C17.9142 18.4996 18.25 18.1639 18.25 17.7496C18.25 17.3354 17.9142 16.9996 17.5 16.9996H12Z" fill="white"/>
</g>
<defs>
<filter id="filter0_d" x="0" y="1" width="24" height="24" filterUnits="userSpaceOnUse" color-interpolation-filters="sRGB">
<feFlood flood-opacity="0" result="BackgroundImageFix"/>
<feColorMatrix in="SourceAlpha" type="matrix" values="0 0 0 0 0 0 0 0 0 0 0 0 0 0 0 0 0 0 127 0"/>
<feOffset dy="1"/>
<feGaussianBlur stdDeviation="1"/>
<feColorMatrix type="matrix" values="0 0 0 0 0 0 0 0 0 0 0 0 0 0 0 0 0 0 0.05 0"/>
<feBlend mode="normal" in2="BackgroundImageFix" result="effect1_dropShadow"/>
<feBlend mode="normal" in="SourceGraphic" in2="effect1_dropShadow" result="shape"/>
</filter>
<clipPath id="clip0">
<rect width="24" height="24" fill="white"/>
</clipPath>
</defs>
</svg>
