<svg width="24" height="24" viewBox="0 0 24 24" fill="none" xmlns="http://www.w3.org/2000/svg">
<g clip-path="url(#clip0)">
<g filter="url(#filter0_d)">
<rect x="2" y="2" width="20" height="20" rx="4" fill="#BFBFBF"/>
</g>
<path d="M9.17647 6V8.11765M14.8235 6V8.11765M6 10.9412V9.05882C6 7.95425 6.89543 7.05882 8 7.05882H16C17.1046 7.05882 18 7.95425 18 9.05882V10.9412V15.6471C18 16.7516 17.1046 17.6471 16 17.6471H8C6.89543 17.6471 6 16.7516 6 15.6471V10.9412Z" stroke="white" stroke-width="1.2" stroke-linecap="round" stroke-linejoin="round"/>
<path fill-rule="evenodd" clip-rule="evenodd" d="M12 9C11.4477 9 11 9.44772 11 10V12C11 12.5523 11.4477 13 12 13C12.5523 13 13 12.5523 13 12V10C13 9.44772 12.5523 9 12 9ZM12 15.8C12.5523 15.8 13 15.3523 13 14.8C13 14.2477 12.5523 13.8 12 13.8C11.4477 13.8 11 14.2477 11 14.8C11 15.3523 11.4477 15.8 12 15.8Z" fill="white"/>
</g>
<defs>
<filter id="filter0_d" x="0" y="1" width="24" height="24" filterUnits="userSpaceOnUse" color-interpolation-filters="sRGB">
<feFlood flood-opacity="0" result="BackgroundImageFix"/>
<feColorMatrix in="SourceAlpha" type="matrix" values="0 0 0 0 0 0 0 0 0 0 0 0 0 0 0 0 0 0 127 0"/>
<feOffset dy="1"/>
<feGaussianBlur stdDeviation="1"/>
<feColorMatrix type="matrix" values="0 0 0 0 0 0 0 0 0 0 0 0 0 0 0 0 0 0 0.05 0"/>
<feBlend mode="normal" in2="BackgroundImageFix" result="effect1_dropShadow"/>
<feBlend mode="normal" in="SourceGraphic" in2="effect1_dropShadow" result="shape"/>
</filter>
<clipPath id="clip0">
<rect width="24" height="24" fill="white"/>
</clipPath>
</defs>
</svg>
