<svg width="24" height="25" viewBox="0 0 24 25" fill="none" xmlns="http://www.w3.org/2000/svg">
<g clip-path="url(#clip0)">
<g filter="url(#filter0_d)">
<rect x="2" y="2.5" width="20" height="20" rx="4" fill="#BFBFBF"/>
</g>
<path fill-rule="evenodd" clip-rule="evenodd" d="M18.6683 15.15L13.9051 6.89999C13.0583 5.43332 10.9414 5.43332 10.0946 6.89999L5.33147 15.15C4.48469 16.6167 5.54317 18.45 7.23673 18.45H16.763C18.4566 18.45 19.515 16.6167 18.6683 15.15ZM11.1338 7.49999C11.5187 6.83332 12.481 6.83332 12.8659 7.49999L17.629 15.75C18.0139 16.4167 17.5328 17.25 16.763 17.25H7.23673C6.46693 17.25 5.9858 16.4167 6.3707 15.75L11.1338 7.49999ZM11 10.5C11 9.94772 11.4477 9.5 12 9.5C12.5523 9.5 13 9.94772 13 10.5V12.5C13 13.0523 12.5523 13.5 12 13.5C11.4477 13.5 11 13.0523 11 12.5V10.5ZM13 15.3C13 15.8523 12.5523 16.3 12 16.3C11.4477 16.3 11 15.8523 11 15.3C11 14.7477 11.4477 14.3 12 14.3C12.5523 14.3 13 14.7477 13 15.3Z" fill="white"/>
</g>
<defs>
<filter id="filter0_d" x="0" y="1.5" width="24" height="24" filterUnits="userSpaceOnUse" color-interpolation-filters="sRGB">
<feFlood flood-opacity="0" result="BackgroundImageFix"/>
<feColorMatrix in="SourceAlpha" type="matrix" values="0 0 0 0 0 0 0 0 0 0 0 0 0 0 0 0 0 0 127 0"/>
<feOffset dy="1"/>
<feGaussianBlur stdDeviation="1"/>
<feColorMatrix type="matrix" values="0 0 0 0 0 0 0 0 0 0 0 0 0 0 0 0 0 0 0.05 0"/>
<feBlend mode="normal" in2="BackgroundImageFix" result="effect1_dropShadow"/>
<feBlend mode="normal" in="SourceGraphic" in2="effect1_dropShadow" result="shape"/>
</filter>
<clipPath id="clip0">
<rect width="24" height="24" fill="white" transform="translate(0 0.5)"/>
</clipPath>
</defs>
</svg>
