<svg width="24" height="24" viewBox="0 0 24 24" fill="none" xmlns="http://www.w3.org/2000/svg">
<mask id="path-1-outside-1" maskUnits="userSpaceOnUse" x="4.46338" y="5.5" width="15" height="13" fill="black">
<rect fill="white" x="4.46338" y="5.5" width="15" height="13"/>
<path d="M11.362 7C11.7469 6.33333 12.7091 6.33333 13.094 7L17.8572 15.25C18.2421 15.9167 17.761 16.75 16.9912 16.75H7.46487C6.69507 16.75 6.21395 15.9167 6.59885 15.25L11.362 7Z"/>
</mask>
<path d="M11.362 7C11.7469 6.33333 12.7091 6.33333 13.094 7L17.8572 15.25C18.2421 15.9167 17.761 16.75 16.9912 16.75H7.46487C6.69507 16.75 6.21395 15.9167 6.59885 15.25L11.362 7Z" fill="#FAAD14"/>
<path d="M6.59885 15.25L5.73282 14.75L6.59885 15.25ZM17.8572 15.25L18.7232 14.75L17.8572 15.25ZM13.094 7L12.228 7.5L13.094 7ZM11.362 7L12.228 7.5L11.362 7ZM12.228 7.5L16.9912 15.75L18.7232 14.75L13.9601 6.5L12.228 7.5ZM16.9912 15.75H7.46487V17.75H16.9912V15.75ZM7.46487 15.75L12.228 7.5L10.496 6.5L5.73282 14.75L7.46487 15.75ZM7.46487 15.75H7.46487L5.73282 14.75C4.96302 16.0833 5.92527 17.75 7.46487 17.75V15.75ZM16.9912 15.75V15.75V17.75C18.5308 17.75 19.493 16.0833 18.7232 14.75L16.9912 15.75ZM13.9601 6.5C13.1903 5.16667 11.2658 5.16666 10.496 6.5L12.228 7.5L12.228 7.5L13.9601 6.5Z" fill="#FAAD14" mask="url(#path-1-outside-1)"/>
<path fill-rule="evenodd" clip-rule="evenodd" d="M12.2281 9C11.6759 9 11.2281 9.44772 11.2281 10V12C11.2281 12.5523 11.6759 13 12.2281 13C12.7804 13 13.2281 12.5523 13.2281 12V10C13.2281 9.44772 12.7804 9 12.2281 9ZM12.2281 15.8C12.7804 15.8 13.2281 15.3523 13.2281 14.8C13.2281 14.2477 12.7804 13.8 12.2281 13.8C11.6759 13.8 11.2281 14.2477 11.2281 14.8C11.2281 15.3523 11.6759 15.8 12.2281 15.8Z" fill="white"/>
</svg>
