<?xml version="1.0" encoding="UTF-8"?>
<svg width="38px" height="38px" viewBox="0 0 38 38" version="1.1" xmlns="http://www.w3.org/2000/svg" xmlns:xlink="http://www.w3.org/1999/xlink">
    <!-- Generator: Sketch 60.1 (88133) - https://sketch.com -->
    <title>编组 3</title>
    <desc>Created with Sketch.</desc>
    <defs>
        <circle id="path-1" cx="15" cy="15" r="15"></circle>
        <filter x="-20.0%" y="-20.0%" width="140.0%" height="140.0%" filterUnits="objectBoundingBox" id="filter-2">
            <feMorphology radius="0.5" operator="dilate" in="SourceAlpha" result="shadowSpreadOuter1"></feMorphology>
            <feOffset dx="0" dy="0" in="shadowSpreadOuter1" result="shadowOffsetOuter1"></feOffset>
            <feGaussianBlur stdDeviation="1.5" in="shadowOffsetOuter1" result="shadowBlurOuter1"></feGaussianBlur>
            <feColorMatrix values="0 0 0 0 0.0941176471   0 0 0 0 0.564705882   0 0 0 0 1  0 0 0 0.505272072 0" type="matrix" in="shadowBlurOuter1"></feColorMatrix>
        </filter>
    </defs>
    <g id="MDT" stroke="none" stroke-width="1" fill="none" fill-rule="evenodd">
        <g id="在线问诊入口-按钮" transform="translate(-1280.000000, -681.000000)">
            <g id="编组-3" transform="translate(1284.000000, 685.000000)">
                <g id="椭圆形">
                    <use fill="black" fill-opacity="1" filter="url(#filter-2)" xlink:href="#path-1"></use>
                    <use fill="#1890FF" fill-rule="evenodd" xlink:href="#path-1"></use>
                </g>
                <g id="消息" transform="translate(7.000000, 8.000000)" fill-rule="nonzero">
                    <rect id="矩形" fill="#000000" opacity="0" x="0" y="0" width="16" height="16"></rect>
                    <path d="M12.9453125,2.28125 L3.0484375,2.28125 C1.9203125,2.28125 1.003125,3.203125 1.003125,4.3375 L1.003125,9.671875 C1.003125,10.80625 1.9203125,11.728125 3.0484375,11.728125 L5.5171875,11.728125 C5.7859375,11.9890625 5.7,11.90625 5.778125,11.98125 L7.259375,13.4125 C7.4578125,13.603125 7.7171875,13.709375 7.9890625,13.709375 C8.2609375,13.709375 8.5203125,13.6046875 8.71875,13.4125 L10.2,11.98125 L10.4546875,11.7265625 L12.94375,11.7265625 C14.071875,11.7265625 14.9890625,10.8046875 14.9890625,9.6703125 L14.9890625,4.3375 C14.9890625,3.203125 14.071875,2.28125 12.9453125,2.28125 L12.9453125,2.28125 Z M14.059375,9.671875 C14.059375,10.290625 13.559375,10.79375 12.94375,10.79375 L10.01875,10.79375 L9.0578125,11.728125 L8.796875,11.9828125 L8.0375,12.7171875 C8.009375,12.74375 7.9671875,12.74375 7.940625,12.7171875 L7.159375,11.9625 L5.946875,10.79375 L3.0484375,10.79375 C2.4328125,10.79375 1.9328125,10.290625 1.9328125,9.671875 L1.9328125,4.3375 C1.9328125,3.71875 2.4328125,3.215625 3.0484375,3.215625 L12.9453125,3.215625 C13.559375,3.215625 14.0609375,3.71875 14.0609375,4.3375 L14.0609375,9.671875 L14.059375,9.671875 Z" id="形状" fill="#FFFFFF"></path>
                    <path d="M11.3125,6.11875 C10.8421875,6.11875 10.4609375,6.503125 10.4609375,6.975 C10.4609375,7.446875 10.84375,7.83125 11.3125,7.83125 C11.7828125,7.83125 12.1640673,7.446875 12.1640673,6.975 C12.165625,6.503125 11.7828125,6.11875 11.3125,6.11875 Z M7.996875,6.11875 C7.5265625,6.11875 7.1453125,6.503125 7.1453125,6.975 C7.1453125,7.446875 7.528125,7.83125 7.996875,7.83125 C8.4671875,7.83125 8.8484375,7.446875 8.8484375,6.975 C8.8484375,6.503125 8.465625,6.11875 7.996875,6.11875 L7.996875,6.11875 Z M4.6796875,6.11875 C4.209375,6.11875 3.828125,6.503125 3.828125,6.975 C3.828125,7.446875 4.2109375,7.83125 4.6796875,7.83125 C5.15,7.83125 5.53125,7.446875 5.53125,6.975 C5.53125,6.503125 5.15,6.11875 4.6796875,6.11875 Z" id="形状" fill="#FFFFFF"></path>
                </g>
            </g>
        </g>
    </g>
</svg>