<svg width="22" height="22" viewBox="0 0 22 22" fill="none" xmlns="http://www.w3.org/2000/svg">
<path d="M0 4C0 1.79086 1.79086 0 4 0H18C20.2091 0 22 1.79086 22 4V18C22 20.2091 20.2091 22 18 22H4C1.79086 22 0 20.2091 0 18V4Z" fill="#E3F2FD"/>
<path d="M7.23077 5H6C4.89543 5 4 5.89543 4 7V16C4 17.1046 4.89543 18 6 18H16C17.1046 18 18 17.1046 18 16V7C18 5.89543 17.1046 5 16 5H14.7692M7.23077 5V8.41667C7.23077 9.52124 8.1262 10.4167 9.23077 10.4167H12.7692C13.8738 10.4167 14.7692 9.52124 14.7692 8.41667V5M7.23077 5H14.7692M12.0769 7.16667V8.25" stroke="#2196F3" stroke-width="1.2" stroke-linecap="round"/>
</svg>
