<svg width="24" height="24" viewBox="0 0 24 24" fill="none" xmlns="http://www.w3.org/2000/svg">
<g clip-path="url(#clip0)">
<g filter="url(#filter0_d)">
<rect x="2" y="2" width="20" height="20" rx="4" fill="#1890FF"/>
</g>
<path d="M8.22481 17.8431H15.7752V15.5126H8.22481V17.8431ZM8.22481 11.9916H15.7752V8.49078H14.4269C14.2022 8.49078 14.0112 8.40569 13.8539 8.23551C13.6966 8.06533 13.6179 7.85868 13.6179 7.61557V6.15689H8.22481V11.9916ZM17.9147 12.5701C17.9147 12.4134 17.8618 12.2778 17.7559 12.1633C17.6501 12.0489 17.5247 11.9916 17.3798 11.9916C17.235 11.9916 17.1096 12.0489 17.0038 12.1633C16.8979 12.2778 16.845 12.4134 16.845 12.5701C16.845 12.7267 16.8979 12.8623 17.0038 12.9768C17.1096 13.0913 17.235 13.1485 17.3798 13.1485C17.5247 13.1485 17.6501 13.0913 17.7559 12.9768C17.8618 12.8623 17.9147 12.7267 17.9147 12.5701ZM19 12.5833V16.375C19 16.454 18.9734 16.5224 18.9201 16.5801C18.8668 16.6378 18.8037 16.6667 18.7308 16.6667H16.8462V18.125C16.8462 18.3681 16.7676 18.5747 16.6106 18.7448C16.4535 18.9149 16.2628 19 16.0385 19H7.96153C7.73719 19 7.54648 18.9149 7.38943 18.7448C7.23237 18.5747 7.15385 18.3681 7.15385 18.125V16.6667H5.26922C5.19631 16.6667 5.13321 16.6378 5.07992 16.5801C5.02664 16.5224 5 16.454 5 16.375V12.5833C5 12.1033 5.15845 11.6916 5.47535 11.3483C5.79226 11.005 6.17228 10.8333 6.61538 10.8333H7.15385V5.87499C7.15385 5.63194 7.23237 5.42535 7.38943 5.2552C7.54648 5.08507 7.73718 5 7.96153 5H13.6154C13.8397 5 14.0865 5.06076 14.3558 5.18229C14.625 5.30383 14.8381 5.44966 14.9952 5.61979L16.274 7.0052C16.4311 7.17535 16.5657 7.40626 16.6779 7.69791C16.7901 7.98958 16.8462 8.25694 16.8462 8.5V10.8333H17.3846C17.8277 10.8333 18.2077 11.005 18.5246 11.3483C18.8415 11.6916 19 12.1033 19 12.5833V12.5833Z" fill="white"/>
</g>
<defs>
<filter id="filter0_d" x="0" y="1" width="24" height="24" filterUnits="userSpaceOnUse" color-interpolation-filters="sRGB">
<feFlood flood-opacity="0" result="BackgroundImageFix"/>
<feColorMatrix in="SourceAlpha" type="matrix" values="0 0 0 0 0 0 0 0 0 0 0 0 0 0 0 0 0 0 127 0" result="hardAlpha"/>
<feOffset dy="1"/>
<feGaussianBlur stdDeviation="1"/>
<feColorMatrix type="matrix" values="0 0 0 0 0 0 0 0 0 0 0 0 0 0 0 0 0 0 0.05 0"/>
<feBlend mode="normal" in2="BackgroundImageFix" result="effect1_dropShadow"/>
<feBlend mode="normal" in="SourceGraphic" in2="effect1_dropShadow" result="shape"/>
</filter>
<clipPath id="clip0">
<rect width="24" height="24" fill="white"/>
</clipPath>
</defs>
</svg>
