<svg width="15" height="14" viewBox="0 0 15 14" fill="none" xmlns="http://www.w3.org/2000/svg">
<path d="M0.5 2C0.5 1.17157 1.17157 0.5 2 0.5H5.52891C5.95196 0.5 6.34511 0.718145 6.569 1.0771C6.97552 1.7289 7.6894 2.125 8.45758 2.125H13C13.8284 2.125 14.5 2.79657 14.5 3.625V12C14.5 12.8284 13.8284 13.5 13 13.5H2C1.17157 13.5 0.5 12.8284 0.5 12V2Z" stroke="#757575"/>
<path d="M0.5 7C0.5 6.17157 1.17157 5.5 2 5.5H6.48649H7.5H13C13.8284 5.5 14.5 6.17157 14.5 7V12C14.5 12.8284 13.8284 13.5 13 13.5H2C1.17157 13.5 0.5 12.8284 0.5 12V7Z" stroke="#757575"/>
</svg>
