<svg width="24" height="24" viewBox="0 0 24 24" fill="none" xmlns="http://www.w3.org/2000/svg">
<g clip-path="url(#clip0)">
<g filter="url(#filter0_d)">
<rect x="2" y="2" width="20" height="20" rx="4" fill="#1890FF"/>
</g>
<path fill-rule="evenodd" clip-rule="evenodd" d="M16 10.5C16 13.5376 13.5376 16 10.5 16C7.46243 16 5 13.5376 5 10.5C5 7.46243 7.46243 5 10.5 5C13.5376 5 16 7.46243 16 10.5ZM17 10.5C17 14.0899 14.0899 17 10.5 17C6.91015 17 4 14.0899 4 10.5C4 6.91015 6.91015 4 10.5 4C14.0899 4 17 6.91015 17 10.5ZM13.8333 10.5C13.8333 12.341 12.3409 13.8334 10.4999 13.8334C8.65898 13.8334 7.16659 12.341 7.16659 10.5C7.16659 8.65909 8.65898 7.1667 10.4999 7.1667C12.3409 7.1667 13.8333 8.65909 13.8333 10.5ZM14.8333 10.5C14.8333 12.8933 12.8932 14.8334 10.4999 14.8334C8.10669 14.8334 6.16659 12.8933 6.16659 10.5C6.16659 8.1068 8.10669 6.1667 10.4999 6.1667C12.8932 6.1667 14.8333 8.1068 14.8333 10.5Z" fill="white"/>
<mask id="path-3-outside-1" maskUnits="userSpaceOnUse" x="7.07275" y="7.09668" width="15" height="15" fill="black">
<rect fill="white" x="7.07275" y="7.09668" width="15" height="15"/>
<path fill-rule="evenodd" clip-rule="evenodd" d="M14.7233 8.63775C13.5032 7.73322 11.7809 7.98901 10.8764 9.20907L10.3732 9.88773L8.60195 12.2769C7.71727 13.4702 7.96745 15.1547 9.16073 16.0394L14.0983 19.7C15.3184 20.6045 17.0407 20.3487 17.9452 19.1287L19.4495 17.0996L20.1837 16.1093C21.0882 14.8893 20.8324 13.167 19.6124 12.2624L14.7233 8.63775ZM12.0813 10.1024C12.4925 9.54783 13.2753 9.43157 13.8299 9.84271L18.719 13.4674C19.2736 13.8786 19.3899 14.6614 18.9787 15.216L18.2446 16.2063L17.9108 16.6564L11.0134 11.5428L11.5782 10.7811L12.0813 10.1024ZM9.60345 13.6096L16.3258 18.5934C15.9129 18.8139 15.3926 18.7923 14.9917 18.495L10.0541 14.8344C9.66165 14.5435 9.49983 14.057 9.60345 13.6096ZM13.1397 10.6724C12.9178 10.508 12.6047 10.5545 12.4402 10.7763C12.2758 10.9981 12.3223 11.3113 12.5441 11.4757L14.7255 13.093C14.9474 13.2574 15.2605 13.2109 15.425 12.9891C15.5894 12.7673 15.5429 12.4541 15.3211 12.2897L13.1397 10.6724Z"/>
</mask>
<path fill-rule="evenodd" clip-rule="evenodd" d="M14.7233 8.63775C13.5032 7.73322 11.7809 7.98901 10.8764 9.20907L10.3732 9.88773L8.60195 12.2769C7.71727 13.4702 7.96745 15.1547 9.16073 16.0394L14.0983 19.7C15.3184 20.6045 17.0407 20.3487 17.9452 19.1287L19.4495 17.0996L20.1837 16.1093C21.0882 14.8893 20.8324 13.167 19.6124 12.2624L14.7233 8.63775ZM12.0813 10.1024C12.4925 9.54783 13.2753 9.43157 13.8299 9.84271L18.719 13.4674C19.2736 13.8786 19.3899 14.6614 18.9787 15.216L18.2446 16.2063L17.9108 16.6564L11.0134 11.5428L11.5782 10.7811L12.0813 10.1024ZM9.60345 13.6096L16.3258 18.5934C15.9129 18.8139 15.3926 18.7923 14.9917 18.495L10.0541 14.8344C9.66165 14.5435 9.49983 14.057 9.60345 13.6096ZM13.1397 10.6724C12.9178 10.508 12.6047 10.5545 12.4402 10.7763C12.2758 10.9981 12.3223 11.3113 12.5441 11.4757L14.7255 13.093C14.9474 13.2574 15.2605 13.2109 15.425 12.9891C15.5894 12.7673 15.5429 12.4541 15.3211 12.2897L13.1397 10.6724Z" fill="white"/>
<path d="M10.8764 9.20907L10.0731 8.61351V8.61351L10.8764 9.20907ZM14.7233 8.63775L14.1277 9.44106H14.1277L14.7233 8.63775ZM10.3732 9.88773L11.1765 10.4833L10.3732 9.88773ZM8.60195 12.2769L7.79863 11.6813H7.79863L8.60195 12.2769ZM9.16073 16.0394L9.75629 15.2361H9.75629L9.16073 16.0394ZM14.0983 19.7L13.5028 20.5033L14.0983 19.7ZM17.9452 19.1287L18.7485 19.7242L18.7485 19.7242L17.9452 19.1287ZM19.4495 17.0996L18.6462 16.5041L18.6462 16.5041L19.4495 17.0996ZM20.1837 16.1093L20.987 16.7049L20.987 16.7049L20.1837 16.1093ZM19.6124 12.2624L19.0168 13.0657V13.0657L19.6124 12.2624ZM13.8299 9.84271L13.2344 10.646H13.2344L13.8299 9.84271ZM12.0813 10.1024L12.8846 10.698L12.8846 10.698L12.0813 10.1024ZM18.719 13.4674L18.1235 14.2707L18.719 13.4674ZM18.9787 15.216L19.782 15.8116V15.8116L18.9787 15.216ZM18.2446 16.2063L17.4412 15.6107V15.6107L18.2446 16.2063ZM17.9108 16.6564L17.3153 17.4597L18.1186 18.0553L18.7141 17.252L17.9108 16.6564ZM11.0134 11.5428L10.2101 10.9473L9.61456 11.7506L10.4179 12.3461L11.0134 11.5428ZM11.5782 10.7811L10.7749 10.1855L11.5782 10.7811ZM16.3258 18.5934L16.7968 19.4755L18.1908 18.7312L16.9213 17.7901L16.3258 18.5934ZM9.60345 13.6096L10.199 12.8063L8.97352 11.8977L8.62925 13.3839L9.60345 13.6096ZM14.9917 18.495L15.5872 17.6917L15.5872 17.6917L14.9917 18.495ZM10.0541 14.8344L9.45851 15.6377L9.45851 15.6377L10.0541 14.8344ZM12.4402 10.7763L11.6369 10.1807L11.6369 10.1807L12.4402 10.7763ZM13.1397 10.6724L12.5441 11.4757L12.5441 11.4757L13.1397 10.6724ZM12.5441 11.4757L11.9486 12.279H11.9486L12.5441 11.4757ZM14.7255 13.093L15.3211 12.2897L15.3211 12.2897L14.7255 13.093ZM15.425 12.9891L16.2283 13.5847L16.2283 13.5847L15.425 12.9891ZM15.3211 12.2897L14.7255 13.093L15.3211 12.2897ZM11.6797 9.80463C12.2553 9.02823 13.3513 8.86545 14.1277 9.44106L15.3188 7.83443C13.6551 6.60099 11.3065 6.9498 10.0731 8.61351L11.6797 9.80463ZM11.1765 10.4833L11.6797 9.80463L10.0731 8.61351L9.56991 9.29217L11.1765 10.4833ZM9.40526 12.8724L11.1765 10.4833L9.56991 9.29217L7.79863 11.6813L9.40526 12.8724ZM9.75629 15.2361C9.00666 14.6803 8.8495 13.6221 9.40526 12.8724L7.79863 11.6813C6.58504 13.3183 6.92823 15.6291 8.56517 16.8427L9.75629 15.2361ZM14.6939 18.8967L9.75629 15.2361L8.56517 16.8427L13.5028 20.5033L14.6939 18.8967ZM17.1419 18.5331C16.5663 19.3095 15.4703 19.4723 14.6939 18.8967L13.5028 20.5033C15.1665 21.7368 17.5151 21.3879 18.7485 19.7242L17.1419 18.5331ZM18.6462 16.5041L17.1419 18.5331L18.7485 19.7242L20.2528 17.6952L18.6462 16.5041ZM19.3804 15.5138L18.6462 16.5041L20.2528 17.6952L20.987 16.7049L19.3804 15.5138ZM19.0168 13.0657C19.7932 13.6414 19.956 14.7374 19.3804 15.5138L20.987 16.7049C22.2205 15.0412 21.8717 12.6926 20.2079 11.4591L19.0168 13.0657ZM14.1277 9.44106L19.0168 13.0657L20.2079 11.4591L15.3188 7.83443L14.1277 9.44106ZM14.4255 9.0394C13.4272 8.29934 12.0181 8.50862 11.278 9.50685L12.8846 10.698C12.9669 10.587 13.1234 10.5638 13.2344 10.646L14.4255 9.0394ZM19.3146 12.6641L14.4255 9.0394L13.2344 10.646L18.1235 14.2707L19.3146 12.6641ZM19.782 15.8116C20.5221 14.8133 20.3128 13.4042 19.3146 12.6641L18.1235 14.2707C18.2344 14.3529 18.2577 14.5095 18.1754 14.6204L19.782 15.8116ZM19.0479 16.8018L19.782 15.8116L18.1754 14.6204L17.4412 15.6107L19.0479 16.8018ZM18.7141 17.252L19.0479 16.8018L17.4412 15.6107L17.1075 16.0609L18.7141 17.252ZM10.4179 12.3461L17.3153 17.4597L18.5064 15.8531L11.609 10.7395L10.4179 12.3461ZM10.7749 10.1855L10.2101 10.9473L11.8167 12.1384L12.3815 11.3766L10.7749 10.1855ZM11.278 9.50685L10.7749 10.1855L12.3815 11.3766L12.8846 10.698L11.278 9.50685ZM16.9213 17.7901L10.199 12.8063L9.0079 14.4129L15.7302 19.3967L16.9213 17.7901ZM14.3961 19.2983C15.119 19.8343 16.0559 19.8711 16.7968 19.4755L15.8548 17.7113C15.7699 17.7566 15.6662 17.7503 15.5872 17.6917L14.3961 19.2983ZM9.45851 15.6377L14.3961 19.2983L15.5872 17.6917L10.6496 14.0311L9.45851 15.6377ZM8.62925 13.3839C8.43903 14.2051 8.73498 15.1013 9.45851 15.6377L10.6496 14.0311C10.5883 13.9856 10.5606 13.9088 10.5777 13.8353L8.62925 13.3839ZM13.2436 11.3718C13.0791 11.5937 12.7659 11.6402 12.5441 11.4757L13.7352 9.8691C13.0698 9.37572 12.1303 9.51525 11.6369 10.1807L13.2436 11.3718ZM13.1397 10.6724C13.3615 10.8369 13.408 11.15 13.2436 11.3718L11.6369 10.1807C11.1436 10.8462 11.2831 11.7857 11.9486 12.279L13.1397 10.6724ZM15.3211 12.2897L13.1397 10.6724L11.9486 12.279L14.13 13.8963L15.3211 12.2897ZM14.6217 12.3935C14.7861 12.1717 15.0993 12.1252 15.3211 12.2897L14.13 13.8963C14.7955 14.3897 15.7349 14.2501 16.2283 13.5847L14.6217 12.3935ZM14.7255 13.093C14.5037 12.9285 14.4572 12.6154 14.6217 12.3935L16.2283 13.5847C16.7217 12.9192 16.5821 11.9797 15.9166 11.4863L14.7255 13.093ZM12.5441 11.4757L14.7255 13.093L15.9166 11.4863L13.7352 9.8691L12.5441 11.4757Z" fill="#1890FF" mask="url(#path-3-outside-1)"/>
<path d="M16 13H18V15H16L15.5 14L16 13Z" fill="#1890FF"/>
</g>
<defs>
<filter id="filter0_d" x="0" y="1" width="24" height="24" filterUnits="userSpaceOnUse" color-interpolation-filters="sRGB">
<feFlood flood-opacity="0" result="BackgroundImageFix"/>
<feColorMatrix in="SourceAlpha" type="matrix" values="0 0 0 0 0 0 0 0 0 0 0 0 0 0 0 0 0 0 127 0" result="hardAlpha"/>
<feOffset dy="1"/>
<feGaussianBlur stdDeviation="1"/>
<feColorMatrix type="matrix" values="0 0 0 0 0 0 0 0 0 0 0 0 0 0 0 0 0 0 0.05 0"/>
<feBlend mode="normal" in2="BackgroundImageFix" result="effect1_dropShadow"/>
<feBlend mode="normal" in="SourceGraphic" in2="effect1_dropShadow" result="shape"/>
</filter>
<clipPath id="clip0">
<rect width="24" height="24" fill="white"/>
</clipPath>
</defs>
</svg>
