<svg width="15" height="14" viewBox="0 0 15 14" fill="none" xmlns="http://www.w3.org/2000/svg">
<path d="M0.6 2C0.6 1.2268 1.2268 0.6 2 0.6H5.52891C5.91745 0.6 6.27853 0.800349 6.48415 1.13002C6.90893 1.8111 7.65489 2.225 8.45758 2.225H13C13.7732 2.225 14.4 2.8518 14.4 3.625V12C14.4 12.7732 13.7732 13.4 13 13.4H2C1.2268 13.4 0.6 12.7732 0.6 12V2Z" stroke="#2196F3" stroke-width="1.2"/>
<path d="M0.6 7C0.6 6.2268 1.2268 5.6 2 5.6H6.48649H7.5H13C13.7732 5.6 14.4 6.2268 14.4 7V12C14.4 12.7732 13.7732 13.4 13 13.4H2C1.2268 13.4 0.6 12.7732 0.6 12V7Z" stroke="#2196F3" stroke-width="1.2"/>
</svg>
