<svg width="24" height="24" viewBox="0 0 24 24" fill="none" xmlns="http://www.w3.org/2000/svg">
<g opacity="0.9">
<path d="M0 4C0 1.79086 1.79086 0 4 0H20C22.2091 0 24 1.79086 24 4V20C24 22.2091 22.2091 24 20 24H4C1.79086 24 0 22.2091 0 20V4Z" fill="#4CAF50"/>
<path d="M18 10.8333V17C18 18.1046 17.1046 19 16 19H8C6.89543 19 6 18.1046 6 17V15.5V10.1333V7C6 5.89543 6.89543 5 8 5H12M18 10.8333H12V5M18 10.8333L12 5" stroke="white" stroke-width="1.5" stroke-linecap="round" stroke-linejoin="round"/>
</g>
</svg>
