<svg width="24" height="24" viewBox="0 0 24 24" fill="none" xmlns="http://www.w3.org/2000/svg">
<g opacity="0.9">
<path d="M0 4C0 1.79086 1.79086 0 4 0H20C22.2091 0 24 1.79086 24 4V20C24 22.2091 22.2091 24 20 24H4C1.79086 24 0 22.2091 0 20V4Z" fill="#FFA726"/>
<path d="M17 18.8333H7C5.89543 18.8333 5 17.9379 5 16.8333V15.3333V9.96667V8C5 6.89543 5.89543 6 7 6H11.1667C12.2712 6 13.1667 6.89543 13.1667 8V8.33333H17C18.1046 8.33333 19 9.22877 19 10.3333V12.125V13.5833V14.1667V16.8333C19 17.9379 18.1046 18.8333 17 18.8333Z" stroke="white" stroke-width="1.5" stroke-linecap="round" stroke-linejoin="round"/>
</g>
</svg>
