<svg width="22" height="22" viewBox="0 0 22 22" fill="none" xmlns="http://www.w3.org/2000/svg">
<path d="M0 4C0 1.79086 1.79086 0 4 0H18C20.2091 0 22 1.79086 22 4V18C22 20.2091 20.2091 22 18 22H4C1.79086 22 0 20.2091 0 18V4Z" fill="#E3F2FD"/>
<path fill-rule="evenodd" clip-rule="evenodd" d="M15.4319 4.30576C14.9633 3.83713 14.2035 3.83713 13.7349 4.30576L5.66913 12.3715C5.5374 12.5032 5.43815 12.6638 5.37923 12.8406L4.57266 15.2603C4.42893 15.6915 4.54115 16.1669 4.86255 16.4883C5.18395 16.8097 5.65935 16.9219 6.09055 16.7782L8.51028 15.9716C8.68701 15.9127 8.8476 15.8134 8.97933 15.6817L17.0451 7.61596C17.5137 7.14733 17.5137 6.38753 17.0451 5.9189L15.4319 4.30576ZM6.51765 13.22L6.18542 14.2167L5.71108 15.6397L7.13411 15.1654L8.1308 14.8332L15.348 7.61596L16.1965 6.76743L15.4319 6.00281L15.348 5.9189L14.5834 5.15428L13.7349 6.00281L6.51765 13.22ZM11.1209 17.0443C10.7895 17.0443 10.5209 17.3129 10.5209 17.6443C10.5209 17.9756 10.7895 18.2443 11.1209 18.2443H17.3945C17.7259 18.2443 17.9945 17.9756 17.9945 17.6443C17.9945 17.3129 17.7259 17.0443 17.3945 17.0443H11.1209Z" fill="#2196F3"/>
</svg>
