<svg width="24" height="24" viewBox="0 0 24 24" fill="none" xmlns="http://www.w3.org/2000/svg">
<g clip-path="url(#clip0)">
<g filter="url(#filter0_d)">
<rect x="2" y="2" width="20" height="20" rx="4" fill="#1890FF"/>
</g>
<path fill-rule="evenodd" clip-rule="evenodd" d="M4.75 9C4.75 7.48122 5.98122 6.25 7.5 6.25H16.5C18.0188 6.25 19.25 7.48122 19.25 9V11.1667V15C19.25 16.5188 18.0188 17.75 16.5 17.75H7.5C5.98122 17.75 4.75 16.5188 4.75 15V14.5V10.6667V9ZM7.5 7.75C6.80964 7.75 6.25 8.30964 6.25 9V10.6667V12.25H17.75V11.1667V9C17.75 8.30964 17.1904 7.75 16.5 7.75H7.5ZM17.75 14.75H6.25V15C6.25 15.6904 6.80964 16.25 7.5 16.25H16.5C17.1904 16.25 17.75 15.6904 17.75 15V14.75ZM7.5 10C7.5 9.72386 7.72386 9.5 8 9.5H11.5C11.7761 9.5 12 9.72386 12 10C12 10.2761 11.7761 10.5 11.5 10.5H8C7.72386 10.5 7.5 10.2761 7.5 10Z" fill="white"/>
<mask id="path-3-outside-1" maskUnits="userSpaceOnUse" x="9.34276" y="3.59423" width="13.2864" height="14.8291" fill="black">
<rect fill="white" x="9.34276" y="3.59423" width="13.2864" height="14.8291"/>
<path fill-rule="evenodd" clip-rule="evenodd" d="M17.5674 6.64041L19.3569 8.07598L20.0471 7.21564C20.3927 6.78484 20.3236 6.15546 19.8928 5.80986L19.6634 5.6258C19.2326 5.28021 18.6032 5.34928 18.2576 5.78007L17.5674 6.64041ZM17.1289 7.18721L18.9184 8.62277L14.5319 14.0907L12.7424 12.6551L17.1289 7.18721ZM14.0931 14.6374L11.8824 15.56L12.3036 13.2018L14.0931 14.6374Z"/>
</mask>
<path fill-rule="evenodd" clip-rule="evenodd" d="M17.5674 6.64041L19.3569 8.07598L20.0471 7.21564C20.3927 6.78484 20.3236 6.15546 19.8928 5.80986L19.6634 5.6258C19.2326 5.28021 18.6032 5.34928 18.2576 5.78007L17.5674 6.64041ZM17.1289 7.18721L18.9184 8.62277L14.5319 14.0907L12.7424 12.6551L17.1289 7.18721ZM14.0931 14.6374L11.8824 15.56L12.3036 13.2018L14.0931 14.6374Z" fill="white"/>
<path d="M19.3569 8.07598L18.7312 8.856C18.938 9.02196 19.2024 9.09894 19.466 9.07001C19.7296 9.04108 19.971 8.90861 20.1369 8.70173L19.3569 8.07598ZM17.5674 6.64041L16.7874 6.01466C16.4418 6.44546 16.5109 7.07484 16.9417 7.42044L17.5674 6.64041ZM18.9184 8.62277L19.6984 9.24853C19.8643 9.04165 19.9413 8.77732 19.9124 8.51369C19.8835 8.25005 19.751 8.00871 19.5441 7.84275L18.9184 8.62277ZM17.1289 7.18721L17.7546 6.40718C17.3238 6.06159 16.6944 6.13066 16.3488 6.56146L17.1289 7.18721ZM14.5319 14.0907L13.9062 14.8707C14.3369 15.2163 14.9663 15.1472 15.3119 14.7164L14.5319 14.0907ZM12.7424 12.6551L11.9624 12.0293C11.7964 12.2362 11.7194 12.5005 11.7484 12.7642C11.7773 13.0278 11.9098 13.2692 12.1167 13.4351L12.7424 12.6551ZM11.8824 15.56L10.898 15.3841C10.8337 15.7444 10.9712 16.111 11.2567 16.34C11.5421 16.569 11.9299 16.6238 12.2676 16.4828L11.8824 15.56ZM14.0931 14.6374L14.4783 15.5602C14.804 15.4243 15.0339 15.1267 15.0833 14.7773C15.1327 14.4278 14.9942 14.0782 14.7189 13.8574L14.0931 14.6374ZM12.3036 13.2018L12.9294 12.4218C12.6541 12.2009 12.2828 12.1416 11.9523 12.2656C11.6219 12.3895 11.3813 12.6785 11.3192 13.026L12.3036 13.2018ZM19.9827 7.29596L18.1932 5.86039L16.9417 7.42044L18.7312 8.856L19.9827 7.29596ZM19.2671 6.58989L18.5769 7.45023L20.1369 8.70173L20.8271 7.84139L19.2671 6.58989ZM19.2671 6.58989L19.2671 6.58989L20.8271 7.84139C21.5183 6.9798 21.3802 5.72103 20.5186 5.02984L19.2671 6.58989ZM19.0376 6.40582L19.2671 6.58989L20.5186 5.02984L20.2891 4.84578L19.0376 6.40582ZM19.0376 6.40582L19.0376 6.40582L20.2891 4.84578C19.4275 4.15459 18.1688 4.29273 17.4776 5.15432L19.0376 6.40582ZM18.3474 7.26616L19.0376 6.40582L17.4776 5.15432L16.7874 6.01466L18.3474 7.26616ZM19.5441 7.84275L17.7546 6.40718L16.5031 7.96723L18.2926 9.4028L19.5441 7.84275ZM15.3119 14.7164L19.6984 9.24853L18.1383 7.99702L13.7519 13.4649L15.3119 14.7164ZM12.1167 13.4351L13.9062 14.8707L15.1577 13.3106L13.3682 11.8751L12.1167 13.4351ZM16.3488 6.56146L11.9624 12.0293L13.5224 13.2808L17.9089 7.81296L16.3488 6.56146ZM12.2676 16.4828L14.4783 15.5602L13.708 13.7145L11.4973 14.6371L12.2676 16.4828ZM11.3192 13.026L10.898 15.3841L12.8669 15.7358L13.2881 13.3776L11.3192 13.026ZM14.7189 13.8574L12.9294 12.4218L11.6779 13.9818L13.4674 15.4174L14.7189 13.8574Z" fill="#1890FF" mask="url(#path-3-outside-1)"/>
</g>
<defs>
<filter id="filter0_d" x="0" y="1" width="24" height="24" filterUnits="userSpaceOnUse" color-interpolation-filters="sRGB">
<feFlood flood-opacity="0" result="BackgroundImageFix"/>
<feColorMatrix in="SourceAlpha" type="matrix" values="0 0 0 0 0 0 0 0 0 0 0 0 0 0 0 0 0 0 127 0" result="hardAlpha"/>
<feOffset dy="1"/>
<feGaussianBlur stdDeviation="1"/>
<feColorMatrix type="matrix" values="0 0 0 0 0 0 0 0 0 0 0 0 0 0 0 0 0 0 0.05 0"/>
<feBlend mode="normal" in2="BackgroundImageFix" result="effect1_dropShadow"/>
<feBlend mode="normal" in="SourceGraphic" in2="effect1_dropShadow" result="shape"/>
</filter>
<clipPath id="clip0">
<rect width="24" height="24" fill="white"/>
</clipPath>
</defs>
</svg>
