<svg width="22" height="22" viewBox="0 0 22 22" fill="none" xmlns="http://www.w3.org/2000/svg">
<path d="M0 4C0 1.79086 1.79086 0 4 0H18C20.2091 0 22 1.79086 22 4V18C22 20.2091 20.2091 22 18 22H4C1.79086 22 0 20.2091 0 18V4Z" fill="#FFEBEE"/>
<path d="M9.42105 4H12.5789M5 6.54545H17M6.26316 9.09091V14.8421C6.26316 16.5862 7.67699 18 9.42105 18V18M15.7368 9.09091V14.8421C15.7368 16.5862 14.323 18 12.5789 18V18M9.42105 9.09091V18M9.42105 18H12.5789M12.5789 9.09091V18" stroke="#E53935" stroke-width="1.2" stroke-linecap="round"/>
</svg>
