<svg width="24" height="24" viewBox="0 0 24 24" fill="none" xmlns="http://www.w3.org/2000/svg">
<rect x="1" y="1" width="22" height="22" rx="11" fill="#BDBDBD"/>
<path fill-rule="evenodd" clip-rule="evenodd" d="M13.5 6.5C13.5 5.67157 12.8284 5 12 5C11.1716 5 10.5 5.67157 10.5 6.5V6.7C10.5 7.52843 11.1716 8.2 12 8.2C12.8284 8.2 13.5 7.52843 13.5 6.7V6.5ZM13.5 11.5C13.5 10.6716 12.8284 10 12 10C11.1716 10 10.5 10.6716 10.5 11.5V17.5C10.5 18.3284 11.1716 19 12 19C12.8284 19 13.5 18.3284 13.5 17.5V11.5Z" fill="white"/>
</svg>
