<svg width="14" height="14" viewBox="0 0 14 14" fill="none" xmlns="http://www.w3.org/2000/svg">
<path d="M14 0H0V14H14V0Z" fill="white" fill-opacity="0.01"/>
<path d="M5.33273 12.5915C4.35533 12.3005 3.48532 11.7602 2.79642 11.0444C3.05342 10.7398 3.20829 10.3463 3.20829 9.91656C3.20829 8.95006 2.42479 8.16656 1.45829 8.16656C1.39983 8.16656 1.34203 8.16942 1.28504 8.17502C1.2074 7.79544 1.16663 7.40242 1.16663 6.99989C1.16663 6.39014 1.26018 5.80222 1.43373 5.24972C1.4419 5.24984 1.45009 5.24989 1.45829 5.24989C2.42479 5.24989 3.20829 4.46639 3.20829 3.49989C3.20829 3.22243 3.14372 2.96005 3.0288 2.72697C3.7034 2.09971 4.52677 1.63028 5.44015 1.37744C5.72958 1.94475 6.31941 2.33323 6.99996 2.33323C7.6805 2.33323 8.27034 1.94475 8.55976 1.37744C9.47315 1.63028 10.2965 2.09971 10.9711 2.72697C10.8562 2.96005 10.7916 3.22243 10.7916 3.49989C10.7916 4.46639 11.5751 5.24989 12.5416 5.24989C12.5498 5.24989 12.558 5.24984 12.5662 5.24972C12.7397 5.80222 12.8333 6.39014 12.8333 6.99989C12.8333 7.40242 12.7925 7.79544 12.7149 8.17502C12.6579 8.16942 12.6001 8.16656 12.5416 8.16656C11.5751 8.16656 10.7916 8.95006 10.7916 9.91656C10.7916 10.3463 10.9465 10.7398 11.2035 11.0444C10.5146 11.7602 9.64459 12.3005 8.66718 12.5915C8.44161 11.8858 7.78046 11.3749 6.99996 11.3749C6.21946 11.3749 5.55831 11.8858 5.33273 12.5915Z" stroke="#1890FF" stroke-width="1.16667" stroke-linejoin="round"/>
<path d="M7.00004 9.04159C8.12762 9.04159 9.04171 8.1275 9.04171 6.99992C9.04171 5.87234 8.12762 4.95825 7.00004 4.95825C5.87246 4.95825 4.95837 5.87234 4.95837 6.99992C4.95837 8.1275 5.87246 9.04159 7.00004 9.04159Z" stroke="#1890FF" stroke-width="1.16667" stroke-linejoin="round"/>
</svg>
