<svg width="156" height="156" viewBox="0 0 156 156" fill="none" xmlns="http://www.w3.org/2000/svg">
<circle cx="78" cy="78" r="77.5" fill="white" stroke="#E8E8E8"/>
<circle cx="78" cy="78" r="67.75" fill="#E0E0E0" stroke="#D1D1D1"/>
<path fill-rule="evenodd" clip-rule="evenodd" d="M87.75 94.25H68.25V104.911C56.8275 106.818 48.75 111.512 48.75 117C48.75 124.18 62.5732 130 79.625 130C96.6768 130 110.5 124.18 110.5 117C110.5 111.004 100.86 105.957 87.75 104.455V94.25Z" fill="#E8D7CC"/>
<path d="M87.75 100.75C87.75 105.625 71.5 113.75 60.125 107.25L68.25 104V97.5004C74.75 93.7087 87.75 92.9504 87.75 100.75Z" fill="#C5B1A2"/>
<mask id="mask0" style="mask-type:alpha" maskUnits="userSpaceOnUse" x="10" y="10" width="136" height="136">
<ellipse cx="78" cy="78" rx="67.275" ry="67.275" fill="#F4ABC5"/>
</mask>
<g mask="url(#mask0)">
<path d="M136.5 144.625C136.5 157.625 109.411 157.625 78 157.625C46.5888 157.625 22.75 157.625 22.75 144.625C22.75 118.61 37.549 108.649 58.5 105.385C65.0311 104.367 72.1601 120.25 79.625 120.25C87.0899 120.25 94.2189 104.367 100.75 105.385C121.701 108.649 136.5 118.61 136.5 144.625Z" fill="#F8FCFF"/>
<mask id="mask1" style="mask-type:alpha" maskUnits="userSpaceOnUse" x="22" y="105" width="115" height="53">
<path d="M136.5 144.625C136.5 157.625 109.411 157.625 78 157.625C46.5888 157.625 22.75 157.625 22.75 144.625C22.75 118.61 37.549 108.649 58.5 105.385C65.0311 104.367 72.1601 120.25 79.625 120.25C87.0899 120.25 94.2189 104.367 100.75 105.385C121.701 108.649 136.5 118.61 136.5 144.625Z" fill="#FFF7FA"/>
</mask>
<g mask="url(#mask1)">
<path fill-rule="evenodd" clip-rule="evenodd" d="M42.25 104H48.75V139.75H42.25V104ZM58.5 104H65V149.5H58.5V104ZM81.25 104H74.75V149.5H81.25V104ZM91 104H97.5V149.5H91V104ZM113.75 104H107.25V149.5H113.75V104Z" fill="#C9D7E4"/>
</g>
</g>
<ellipse cx="77.4138" cy="47.122" rx="44.4138" ry="46.122" fill="#4B4B4B"/>
<path fill-rule="evenodd" clip-rule="evenodd" d="M78.1901 11.2494C56.5194 11.2494 40.2125 30.9911 44.3049 52.2718L44.3184 52.3416C42.5392 51.1927 40.7134 50.8203 39.1705 51.4752C35.6968 52.9497 34.9726 59.073 37.553 65.152C40.1037 71.1612 44.9287 74.8776 48.3946 73.538L48.751 75.3914C51.5066 89.7203 64.0446 100.077 78.6361 100.077C93.6568 100.077 106.431 89.1178 108.715 74.2718L108.788 73.7985C112.103 74.0464 116.186 70.5108 118.461 65.1518C121.042 59.0728 120.317 52.9495 116.844 51.475C115.426 50.8732 113.769 51.1388 112.13 52.0773L112.295 51.0023C115.511 30.1 99.3383 11.2494 78.1901 11.2494Z" fill="#E2D5CB"/>
<mask id="mask2" style="mask-type:alpha" maskUnits="userSpaceOnUse" x="36" y="11" width="85" height="90">
<path fill-rule="evenodd" clip-rule="evenodd" d="M77.4135 11.2494C56.1457 11.2494 40.142 30.624 44.1584 51.5091L44.3185 52.3419C42.5394 51.1929 40.7135 50.8206 39.1706 51.4755C35.6969 52.95 34.9727 59.0733 37.5531 65.1523C40.1038 71.1615 44.9289 74.8779 48.3948 73.5382L49.1531 77.4818C51.6754 90.5973 63.1517 100.077 76.5076 100.077H78.3194C91.6753 100.077 103.152 90.5973 105.674 77.4817L106.551 72.9207C106.84 73.1526 107.156 73.3436 107.499 73.4893C110.973 74.9638 115.881 71.2311 118.461 65.1521C121.042 59.0731 120.318 52.9498 116.844 51.4753C114.894 50.6475 112.492 51.4608 110.303 53.409L110.669 51.509C114.685 30.6239 98.6813 11.2494 77.4135 11.2494Z" fill="#FFE6D4"/>
</mask>
<g mask="url(#mask2)">
<path d="M109.87 64.2041C77.0723 53.2715 51.2211 63.0653 38.1247 67.6206C31.2918 62.1543 36.4165 44.8443 39.833 36.8725L97.9126 21.4985C117.272 39.7196 142.668 75.1367 109.87 64.2041Z" fill="#C2AB9A"/>
</g>
<path d="M41.5414 45.8411C41.5414 25.4515 58.0705 8.92249 78.46 8.92249C99.3596 8.92249 116.092 26.2554 115.356 47.142L114.995 57.3716C114.995 57.3716 109.87 59.0798 109.87 43.7058C109.87 32.422 92.5683 28.2412 91.0799 28.3318C89.3057 28.4398 84.247 38.323 70.5812 45.8297C56.9155 53.3363 41.5414 59.0798 41.5414 59.0798V45.8411Z" fill="#575656"/>
</svg>
