<svg width="22" height="22" viewBox="0 0 22 22" fill="none" xmlns="http://www.w3.org/2000/svg">
<path d="M13.5 5.54407C14.2547 5.89046 14.9252 6.38884 15.4722 7.00003C15.9887 7.57712 16.3952 8.25479 16.6586 9.00003C16.8797 9.62558 17 10.2988 17 11C17 11.7013 16.8797 12.3745 16.6586 13C16.3952 13.7453 15.9887 14.4229 15.4722 15C14.9252 15.6112 14.2547 16.1096 13.5 16.456L14 13M8.5 16.456C7.96308 16.2096 7.46879 15.8862 7.03126 15.5C6.27308 14.8308 5.68532 13.973 5.34141 13C5.12031 12.3745 5 11.7013 5 11C5 10.1078 5.19474 9.26108 5.54404 8.50003C5.79636 7.95027 6.12932 7.44522 6.52779 7.00003C7.07481 6.38884 7.74528 5.89046 8.5 5.54407L8 9.00003" stroke="#2196F3" stroke-width="1.5" stroke-linecap="round" stroke-linejoin="round"/>
</svg>
