<svg width="28" height="23" viewBox="0 0 28 23" fill="none" xmlns="http://www.w3.org/2000/svg">
<path d="M4.70588 15.42V14.67C4.29167 14.67 3.95588 15.0058 3.95588 15.42H4.70588ZM23.2353 15.42H23.9853C23.9853 15.0058 23.6495 14.67 23.2353 14.67V15.42ZM1 20.95C0.585786 20.95 0.25 21.2858 0.25 21.7C0.25 22.1142 0.585786 22.45 1 22.45V20.95ZM26.9412 22.45C27.3554 22.45 27.6912 22.1142 27.6912 21.7C27.6912 21.2858 27.3554 20.95 26.9412 20.95V22.45ZM7.48529 9.7625V9.0125C7.07108 9.0125 6.73529 9.34829 6.73529 9.7625H7.48529ZM20.4559 9.7625H21.2059C21.2059 9.34829 20.8701 9.0125 20.4559 9.0125V9.7625ZM11.0147 4.6225C11.0147 4.20829 10.6789 3.8725 10.2647 3.8725C9.85049 3.8725 9.51471 4.20829 9.51471 4.6225H11.0147ZM18.4265 4.6225C18.4265 4.20829 18.0907 3.8725 17.6765 3.8725C17.2623 3.8725 16.9265 4.20829 16.9265 4.6225H18.4265ZM14.7206 4.6225C14.7206 4.20829 14.3848 3.8725 13.9706 3.8725C13.5564 3.8725 13.2206 4.20829 13.2206 4.6225H14.7206ZM9.51471 1.5175C9.51471 1.93171 9.85049 2.2675 10.2647 2.2675C10.6789 2.2675 11.0147 1.93171 11.0147 1.5175H9.51471ZM11.0147 1C11.0147 0.585786 10.6789 0.25 10.2647 0.25C9.85049 0.25 9.51471 0.585786 9.51471 1H11.0147ZM13.2206 1.5175C13.2206 1.93171 13.5564 2.2675 13.9706 2.2675C14.3848 2.2675 14.7206 1.93171 14.7206 1.5175H13.2206ZM14.7206 1C14.7206 0.585786 14.3848 0.25 13.9706 0.25C13.5564 0.25 13.2206 0.585786 13.2206 1H14.7206ZM16.9265 1.5175C16.9265 1.93171 17.2623 2.2675 17.6765 2.2675C18.0907 2.2675 18.4265 1.93171 18.4265 1.5175H16.9265ZM18.4265 1C18.4265 0.585786 18.0907 0.25 17.6765 0.25C17.2623 0.25 16.9265 0.585786 16.9265 1H18.4265ZM23.2353 20.95H4.70588V22.45H23.2353V20.95ZM1 22.45H4.70588V20.95H1V22.45ZM23.2353 22.45H26.9412V20.95H23.2353V22.45ZM4.70588 16.17H7.48529V14.67H4.70588V16.17ZM8.23529 15.42V9.7625H6.73529V15.42H8.23529ZM7.48529 16.17H20.4559V14.67H7.48529V16.17ZM20.4559 16.17H23.2353V14.67H20.4559V16.17ZM19.7059 9.7625V15.42H21.2059V9.7625H19.7059ZM7.48529 10.5125H10.2647V9.0125H7.48529V10.5125ZM11.0147 9.7625V4.6225H9.51471V9.7625H11.0147ZM17.6765 10.5125H20.4559V9.0125H17.6765V10.5125ZM18.4265 9.7625V4.6225H16.9265V9.7625H18.4265ZM10.2647 10.5125H13.9706V9.0125H10.2647V10.5125ZM13.9706 10.5125H17.6765V9.0125H13.9706V10.5125ZM14.7206 9.7625V4.6225H13.2206V9.7625H14.7206ZM11.0147 1.5175V1H9.51471V1.5175H11.0147ZM14.7206 1.5175V1H13.2206V1.5175H14.7206ZM18.4265 1.5175V1H16.9265V1.5175H18.4265ZM3.95588 15.42V21.7H5.45588V15.42H3.95588ZM22.4853 15.42V21.7H23.9853V15.42H22.4853Z" fill="#90CAF9"/>
</svg>
