<svg width="24" height="24" viewBox="0 0 24 24" fill="none" xmlns="http://www.w3.org/2000/svg">
<g opacity="0.9">
<path d="M0 4C0 1.79086 1.79086 0 4 0H20C22.2091 0 24 1.79086 24 4V20C24 22.2091 22.2091 24 20 24H4C1.79086 24 0 22.2091 0 20V4Z" fill="#4CAF50"/>
<path d="M14.9332 16.3547C14.0442 17.0031 13.0036 17.3281 11.9395 17.3133C11.7989 17.3117 11.659 17.304 11.5208 17.2916C11.4645 17.286 11.4083 17.2763 11.3512 17.2691C11.2426 17.2539 11.134 17.2387 11.0286 17.2174C10.9629 17.2044 10.8988 17.1872 10.8348 17.1716C10.7309 17.1463 10.6278 17.1206 10.5262 17.0892C10.4778 17.0736 10.4301 17.0555 10.3817 17.0387C10.2653 16.9982 10.1489 16.9561 10.0356 16.9067C10.0098 16.8958 9.98482 16.8834 9.95979 16.8713C9.82702 16.8107 9.69654 16.7474 9.56993 16.6758C9.56372 16.6727 9.55901 16.6699 9.55275 16.6667C9.12461 16.4221 8.73322 16.1168 8.38948 15.7599C8.38404 15.7542 8.37853 15.7478 8.37308 15.7414C8.26604 15.6302 8.16451 15.5134 8.06763 15.3921C8.04732 15.3661 8.02778 15.3384 8.00747 15.312C7.30821 14.4019 6.88636 13.2502 6.88636 11.9976H8.07229C8.1028 11.9976 8.13244 11.9808 8.14813 11.9511C8.16373 11.9217 8.16143 11.8868 8.14417 11.8607L6.15123 8.75029C6.13563 8.72618 6.10917 8.7101 6.07911 8.7101C6.04946 8.7101 6.02291 8.72618 6.0073 8.75029L4.01426 11.8603C3.99744 11.8868 3.9947 11.9213 4.01034 11.951C4.02594 11.9807 4.05567 11.9976 4.08614 11.9976H5.2721C5.2721 13.4703 5.71346 14.8355 6.46291 15.9642C6.4723 15.9798 6.47851 15.9967 6.48869 16.0123C6.56679 16.128 6.65273 16.2343 6.73635 16.3435C6.76681 16.3848 6.7965 16.4273 6.82852 16.468C6.95118 16.6229 7.08165 16.7682 7.21525 16.9107C7.2285 16.9247 7.24024 16.9388 7.25272 16.9512C7.70277 17.42 8.21137 17.815 8.76526 18.1304C8.77934 18.1398 8.79337 18.1486 8.80899 18.157C8.96837 18.2462 9.13244 18.3268 9.29885 18.403C9.34023 18.4215 9.38007 18.442 9.42223 18.4604C9.56444 18.5215 9.71051 18.5753 9.85742 18.6265C9.92692 18.6511 9.99571 18.6761 10.066 18.6985C10.1949 18.7383 10.3262 18.7711 10.4582 18.8041C10.5465 18.8254 10.6332 18.8482 10.7231 18.8659C10.7597 18.8739 10.7949 18.8855 10.8316 18.8916C10.9566 18.9146 11.0816 18.9273 11.2066 18.9433C11.2519 18.9486 11.2964 18.9565 11.3409 18.9618C11.566 18.9846 11.7894 19 12.0128 19C13.3809 19 14.7152 18.5647 15.8598 17.7303C16.2247 17.4637 16.3137 16.9408 16.0581 16.5606C15.8021 16.1801 15.298 16.0881 14.9332 16.3547ZM18.7286 11.9976C18.7279 10.5293 18.2896 9.16694 17.5435 8.04059C17.5324 8.0213 17.5248 8.00166 17.513 7.984C17.42 7.84631 17.3191 7.71786 17.2185 7.58901C17.2067 7.57333 17.1958 7.5569 17.1833 7.54166C16.5005 6.67988 15.6434 6.01396 14.6715 5.5788C14.6449 5.56674 14.6184 5.55313 14.5918 5.54107C14.4363 5.47488 14.2779 5.41628 14.1184 5.36045C14.0606 5.34079 14.0035 5.3191 13.9449 5.30105C13.8059 5.25729 13.6646 5.2216 13.5223 5.18747C13.4435 5.16858 13.3652 5.14773 13.2857 5.13165C13.2457 5.12361 13.2091 5.1116 13.17 5.1044C13.0638 5.08508 12.9567 5.07662 12.8505 5.0626C12.7769 5.053 12.7043 5.04095 12.63 5.03291C12.4512 5.01567 12.2738 5.00844 12.0965 5.00522C12.0645 5.00522 12.0324 5 12.0004 5C11.9949 5 11.9894 5.00161 11.9832 5.00201C10.6176 5.00322 9.28556 5.4323 8.14255 6.26562C7.77694 6.53132 7.68789 7.05514 7.94339 7.43527C8.19882 7.81539 8.70351 7.90775 9.06839 7.64121C9.9512 6.99774 10.9817 6.6722 12.0379 6.68189C12.1903 6.68305 12.3395 6.6907 12.4871 6.70512C12.5333 6.71072 12.5778 6.71758 12.6231 6.72361C12.745 6.73888 12.8653 6.75692 12.984 6.7814C13.0364 6.7918 13.0887 6.80592 13.1394 6.81793C13.2559 6.84518 13.3724 6.87452 13.4865 6.91024C13.5223 6.92225 13.5575 6.93551 13.5933 6.94794C13.7238 6.99215 13.8512 7.03985 13.9769 7.09407C13.9896 7.09967 14.0028 7.10649 14.0153 7.11171C14.7676 7.44851 15.4278 7.96709 15.9428 8.61534C15.9457 8.61941 15.9489 8.62459 15.952 8.62821C16.677 9.54621 17.1137 10.7199 17.1137 11.9975H15.9277C15.8974 11.9975 15.8676 12.0143 15.852 12.044C15.8364 12.0737 15.8386 12.1083 15.856 12.1348L17.8496 15.2449C17.8646 15.2689 17.8912 15.2845 17.9215 15.2845C17.9512 15.2845 17.9778 15.2689 17.9934 15.2449L19.9857 12.1348C20.0028 12.1083 20.0051 12.0737 19.9896 12.044C19.9739 12.0143 19.9443 11.9975 19.9137 11.9975H18.7286V11.9976H18.7286Z" fill="white"/>
</g>
</svg>
