<svg width="24" height="24" viewBox="0 0 24 24" fill="none" xmlns="http://www.w3.org/2000/svg">
<g opacity="0.9">
<path d="M0 4C0 1.79086 1.79086 0 4 0H20C22.2091 0 24 1.79086 24 4V20C24 22.2091 22.2091 24 20 24H4C1.79086 24 0 22.2091 0 20V4Z" fill="#4CAF50"/>
<path d="M5 12V17C5 18.1046 5.89543 19 7 19H17C18.1046 19 19 18.1046 19 17V12M5 12V9C5 7.89543 5.89543 7 7 7H17C18.1046 7 19 7.89543 19 9V12M5 12H19M9 5V9M15 5V9" stroke="white" stroke-width="1.5" stroke-linecap="round" stroke-linejoin="round"/>
</g>
</svg>
