<svg width="48" height="44" viewBox="0 0 48 44" fill="none" xmlns="http://www.w3.org/2000/svg">
<path d="M9.30028 21.9328L8.42002 25.0322C11.3108 25.4832 13.709 26.1009 15.5974 26.8558L16.4267 23.6681C14.34 22.9099 11.9759 22.3511 9.30028 21.9328ZM12.7122 29.5424L11.8319 32.6417C14.9288 32.9738 17.4277 33.494 19.4045 34.1979L20.2508 31.0397C18.0463 30.3494 15.535 29.8756 12.7122 29.5424ZM20.2591 35.746C21.0794 40.0229 21.5837 44.3644 21.8479 48.766L25.1315 48.4013C24.8005 44.1561 24.1569 39.7772 23.247 35.2773L20.2591 35.746ZM18.3328 26.4936L19.8288 29.0847L25.7767 25.6507L27.2557 28.2125L22.3089 31.0685L30.6049 45.4375L33.1077 43.9925L30.1497 38.8691L32.7245 39.3848C32.9503 37.0559 32.7378 34.7838 32.1163 32.5514C32.9241 33.0665 33.8928 33.7243 35.0518 34.5078L35.2469 31.9218C33.8694 31.3037 32.5722 30.7571 31.3261 30.2987L30.8875 29.3349L34.1853 27.4309C35.899 30.6031 36.4958 33.9489 36.0099 37.5273L38.7535 38.0633C39.1286 35.177 38.9012 32.4031 38.0712 29.7415C38.913 30.3155 39.9621 31.0447 41.2061 31.9754L41.3718 29.4063C39.9262 28.6705 38.5317 28.0231 37.2345 27.4764L36.5409 26.0709L38.9848 24.6599L43.7958 32.9928C44.2208 33.7289 44.0885 34.3157 43.4407 34.6897L41.1054 35.881L43.1936 37.9339L45.5787 36.5569C47.3748 35.5199 47.7266 34.0212 46.6216 32.1073L40.0936 20.8005L35.1469 23.6565L33.6679 21.0947L39.3507 17.8137L37.8547 15.2226L18.3328 26.4936ZM28.5908 30.6609C29.7786 33.1944 30.2416 35.8323 29.9967 38.6041L26.2057 32.0379L28.5908 30.6609ZM29.5523 26.8865L28.0733 24.3247L31.3417 22.4377L32.8207 24.9995L29.5523 26.8865ZM15.9625 20.7561L17.4925 23.4061L21.6442 21.0091L22.6642 22.7758L25.4026 21.1948L24.3826 19.4281L28.711 16.9291L29.714 18.6664L32.4229 17.1024L31.4199 15.3651L35.8661 12.7981L34.3361 10.1481L29.8899 12.7151L28.6829 10.6245L25.974 12.1885L27.181 14.2791L22.8526 16.7781L21.6456 14.6875L18.9072 16.2685L20.1142 18.3591L15.9625 20.7561Z" fill="#EEEEEE"/>
<path d="M39.9006 49.5022C28.6608 55.9916 14.2884 52.1405 7.79904 40.9006L5.20096 42.4006C12.5187 55.0754 28.7259 59.4181 41.4006 52.1003L39.9006 49.5022ZM48.5022 17.4006C54.9916 28.6405 51.1405 43.0129 39.9006 49.5022L41.4006 52.1003C54.0754 44.7825 58.4181 28.5754 51.1003 15.9006L48.5022 17.4006ZM16.4006 8.79904C27.6405 2.30969 42.0129 6.16076 48.5022 17.4006L51.1003 15.9006C43.7825 3.22588 27.5754 -1.11681 14.9006 6.20096L16.4006 8.79904ZM14.9006 6.20096C2.22588 13.5187 -2.11681 29.7259 5.20096 42.4006L7.79904 40.9006C1.30969 29.6608 5.16076 15.2884 16.4006 8.79904L14.9006 6.20096Z" fill="#EEEEEE"/>
</svg>
