<svg width="60" height="90" viewBox="0 0 60 90" fill="none" xmlns="http://www.w3.org/2000/svg">
<ellipse cx="30.5" cy="53.0271" rx="29.5" ry="4" fill="#EBF0F3"/>
<rect x="10" y="19" width="43" height="13" rx="4" fill="#D1DDE6"/>
<rect x="10" y="27" width="43" height="24" rx="4" fill="#E1EBF3"/>
<path d="M16 16H10C7.79086 16 6 17.7909 6 20V26.5V47C6 49.2091 7.79086 51 10 51H49C51.2091 51 53 49.2091 53 47V26.5V20C53 17.7909 51.2091 16 49 16H43M20 16H39M7.5 26.5H51.5M20 13V19M39 13V19" stroke="#B6C9DB" stroke-linecap="round" stroke-linejoin="round"/>
<circle cx="23" cy="34.0271" r="1" fill="#8EA7BE"/>
<circle cx="39" cy="34.0271" r="1" fill="#8EA7BE"/>
<path d="M37.3887 43.9601C36.7821 42.4987 35.7558 41.2501 34.4396 40.372C33.1233 39.4939 31.5762 39.0259 29.994 39.0271C28.4117 39.0283 26.8654 39.4986 25.5504 40.3787C24.2355 41.2587 23.2111 42.5089 22.6067 43.9712L23.346 44.2768C23.89 42.9607 24.812 41.8356 25.9954 41.0435C27.1788 40.2515 28.5706 39.8282 29.9946 39.8271C31.4186 39.826 32.811 40.2473 33.9956 41.0375C35.1802 41.8278 36.1039 42.9516 36.6499 44.2668L37.3887 43.9601Z" fill="#8EA7BE"/>
<path d="M9.014 77.616C8.37 77.672 7.684 77.728 6.956 77.784V76.678H9.14V75.852H6.956V74.928H6.032V75.852H4.408C4.758 75.39 5.094 74.858 5.402 74.27H9.238V73.374H5.822C5.934 73.122 6.032 72.87 6.13 72.618L5.122 72.45C5.01 72.758 4.884 73.066 4.758 73.374H2.812V74.27H4.31C3.974 74.9 3.596 75.432 3.204 75.88L3.428 76.678H6.032V77.84C5.08 77.896 4.058 77.938 2.994 77.994L3.12 78.89C4.128 78.834 5.108 78.764 6.032 78.708V79.716H6.956V78.638C7.67 78.568 8.356 78.498 9.014 78.442V77.616ZM10.974 76.692H12.794V79.73H13.76V76.692H15.244V75.81H11.044V74.354C12.556 74.186 13.816 73.864 14.852 73.416L14.208 72.66C13.228 73.108 11.856 73.416 10.12 73.584V75.782C10.092 77.042 9.756 78.12 9.14 79.03L9.84 79.758C10.442 78.89 10.82 77.868 10.974 76.692ZM13.676 80.136H4.492V85.4H5.528V84.854H12.64V85.4H13.676V80.136ZM5.528 83.986V82.894H12.64V83.986H5.528ZM5.528 82.082V80.99H12.64V82.082H5.528ZM17.862 73.318V74.298H21.88V75.236C21.866 76.104 21.81 76.93 21.698 77.686H16.924V78.652H21.53C21.348 79.534 21.096 80.332 20.76 81.032C20.004 82.46 18.674 83.594 16.742 84.462L17.302 85.358C19.248 84.518 20.648 83.328 21.516 81.816C21.992 80.92 22.342 79.87 22.566 78.652H23.7V83.748C23.7 84.7 24.148 85.176 25.072 85.176H27.34C27.928 85.176 28.348 85.05 28.614 84.798C28.922 84.49 29.132 83.664 29.244 82.292L28.292 81.984C28.222 83.076 28.096 83.72 27.9 83.944C27.746 84.126 27.494 84.224 27.158 84.224H25.38C24.932 84.224 24.708 83.986 24.708 83.538V78.652H29.048V77.686H22.72C22.818 76.93 22.874 76.104 22.902 75.236V74.298H27.914V73.318H17.862ZM39.212 75.67H41.284C41.228 77.56 40.934 79.212 40.388 80.626C39.828 79.45 39.38 78.036 39.03 76.398L39.212 75.67ZM39.926 81.634C39.282 82.824 38.428 83.79 37.336 84.546L37.854 85.386C38.904 84.63 39.772 83.692 40.444 82.572C41.144 83.748 41.984 84.7 42.964 85.4L43.51 84.574C42.502 83.888 41.648 82.922 40.92 81.662C41.704 80.01 42.138 78.008 42.208 75.67H43.118V74.704H39.422C39.534 74.088 39.646 73.416 39.73 72.702L38.75 72.534C38.47 75.194 37.91 77.308 37.084 78.876L37.714 79.646C38.008 79.142 38.288 78.568 38.54 77.924C38.918 79.324 39.38 80.556 39.926 81.634ZM33.29 79.072C33.192 79.352 33.08 79.646 32.954 79.954H30.91V80.836H32.562C32.282 81.396 31.96 81.97 31.596 82.586C32.282 82.838 32.926 83.104 33.542 83.37C32.73 83.832 31.736 84.21 30.588 84.518L31.064 85.358C32.464 84.966 33.626 84.448 34.55 83.804C35.376 84.168 36.09 84.546 36.706 84.91L37.252 84.126C36.636 83.79 35.992 83.482 35.32 83.174C36.048 82.502 36.566 81.704 36.874 80.78V79.954H33.948C34.032 79.702 34.13 79.45 34.228 79.184L33.29 79.072ZM34.396 82.782C33.892 82.572 33.36 82.376 32.8 82.18C33.08 81.76 33.332 81.312 33.556 80.836H35.964C35.628 81.564 35.096 82.222 34.396 82.782ZM32.016 72.828L31.218 73.094C31.554 73.626 31.862 74.228 32.156 74.914L32.884 74.578C32.632 73.962 32.352 73.374 32.016 72.828ZM36.272 72.786C36.02 73.374 35.656 73.962 35.208 74.564L35.922 74.928C36.37 74.34 36.72 73.738 37 73.122L36.272 72.786ZM30.938 75.25V76.132H32.926C32.506 76.902 31.75 77.602 30.672 78.232L31.162 79.044C32.366 78.232 33.206 77.28 33.668 76.174V78.834H34.606V77.014C35.11 77.35 35.712 77.798 36.412 78.358L36.93 77.574C36.146 77.098 35.362 76.664 34.606 76.286V76.132H37.154V75.25H34.606V72.576H33.668V75.25H30.938ZM46.296 85.274C47.08 85.274 47.472 84.854 47.472 84.042V79.954C47.906 79.758 48.34 79.562 48.774 79.338V78.344C48.354 78.568 47.92 78.778 47.472 78.974V76.216H48.816V75.25H47.472V72.604H46.492V75.25H44.812V76.216H46.492V79.38C45.876 79.604 45.232 79.8 44.588 79.954L44.84 80.934C45.386 80.766 45.932 80.57 46.492 80.36V83.79C46.492 84.182 46.31 84.392 45.96 84.392C45.624 84.392 45.26 84.364 44.896 84.322L45.106 85.274H46.296ZM50.482 79.086H53.338V80.808H51V85.4H51.938V84.714H55.732V85.4H56.67V80.808H54.318V79.086H57.314V78.176H54.318V76.524H56.95V73.122H49.572V77.504C49.558 80.444 49.054 82.852 48.06 84.7L48.844 85.4C49.768 83.58 50.314 81.48 50.482 79.086ZM53.338 76.524V78.176H50.538C50.538 77.952 50.552 77.728 50.552 77.504V76.524H53.338ZM51.938 83.818V81.704H55.732V83.818H51.938ZM55.97 74.06V75.614H50.552V74.06H55.97Z" fill="#B6C9DB"/>
</svg>
