<svg width="20" height="22" viewBox="0 0 20 22" fill="none" xmlns="http://www.w3.org/2000/svg">
<path fill-rule="evenodd" clip-rule="evenodd" d="M5.3982 6.35065C5.3982 3.80978 7.45798 1.75 9.99885 1.75C12.5397 1.75 14.5995 3.80978 14.5995 6.35065C14.5995 8.88418 12.5516 10.9394 10.0208 10.9512C10.0135 10.9512 10.0062 10.9512 9.99881 10.9512C9.99149 10.9512 9.98416 10.9512 9.97683 10.9512C7.44609 10.9394 5.3982 8.88417 5.3982 6.35065ZM6.72965 11.5023C5.02754 10.4199 3.8982 8.51717 3.8982 6.35065C3.8982 2.98135 6.62955 0.25 9.99885 0.25C13.3681 0.25 16.0995 2.98135 16.0995 6.35065C16.0995 8.51718 14.9701 10.4199 13.268 11.5023C16.4833 12.6238 18.9441 15.3534 19.6884 18.7272C20.0546 20.387 18.6323 21.6237 17.1714 21.6237H2.82628C1.36538 21.6237 -0.0569358 20.387 0.309239 18.7272C1.05355 15.3533 3.51435 12.6238 6.72965 11.5023ZM9.9755 12.4512C5.96095 12.4621 2.60527 15.2824 1.77402 19.0504C1.66427 19.5478 2.07804 20.1237 2.82628 20.1237H17.1714C17.9196 20.1237 18.3334 19.5478 18.2236 19.0504C17.3924 15.2824 14.0367 12.4621 10.0222 12.4512C10.0144 12.4513 10.0066 12.4513 9.99885 12.4513C9.99106 12.4513 9.98328 12.4513 9.9755 12.4512Z" fill="#90CAF9"/>
</svg>
