<svg width="48" height="49" viewBox="0 0 48 49" fill="none" xmlns="http://www.w3.org/2000/svg">
<g opacity="0.8">
<circle cx="24" cy="24.5" r="23.5" fill="white" stroke="#E8E8E8"/>
<circle cx="24" cy="24.5" r="20.5" fill="#C3DFFE" stroke="#A3CCEE"/>
<path fill-rule="evenodd" clip-rule="evenodd" d="M27 29.5H21V32.7802C17.4854 33.367 15 34.8113 15 36.5C15 38.7091 19.2533 40.5 24.5 40.5C29.7467 40.5 34 38.7091 34 36.5C34 34.6552 31.0338 33.102 27 32.6399V29.5Z" fill="#F4DCCB"/>
<path d="M27 31.5C27 32.9999 22 35.4999 18.5 33.4999L21 32.5V30.4999C23 29.3333 27 29.1 27 31.5Z" fill="#D5AA8C"/>
<mask id="mask0_8074_5961" style="mask-type:alpha" maskUnits="userSpaceOnUse" x="4" y="4" width="40" height="41">
<circle cx="24" cy="24.5" r="20" fill="#F4ABC5"/>
</mask>
<g mask="url(#mask0_8074_5961)">
<path d="M42 44.9999C42 48.9999 33.665 48.9999 24 48.9999C14.335 48.9999 7 48.9999 7 44.9999C7 36.9953 11.5535 33.9306 18 32.9261C20.0096 32.6129 22.2031 37.4999 24.5 37.4999C26.7969 37.4999 28.9904 32.6129 31 32.9261C37.4465 33.9306 42 36.9953 42 44.9999Z" fill="#E8F4FF"/>
<mask id="mask1_8074_5961" style="mask-type:alpha" maskUnits="userSpaceOnUse" x="7" y="32" width="35" height="17">
<path d="M42 44.9999C42 48.9999 33.665 48.9999 24 48.9999C14.335 48.9999 7 48.9999 7 44.9999C7 36.9953 11.5535 33.9306 18 32.9261C20.0096 32.6129 22.2031 37.4999 24.5 37.4999C26.7969 37.4999 28.9904 32.6129 31 32.9261C37.4465 33.9306 42 36.9953 42 44.9999Z" fill="#FFF7FA"/>
</mask>
<g mask="url(#mask1_8074_5961)">
<path fill-rule="evenodd" clip-rule="evenodd" d="M13 32.5H15V43.5H13V32.5ZM18 32.5H20V46.5H18V32.5ZM25 32.5H23V46.5H25V32.5ZM28 32.5H30V46.5H28V32.5ZM35 32.5H33V46.5H35V32.5Z" fill="#AFDCF6"/>
</g>
</g>
<circle cx="24" cy="15.5" r="13" fill="#140606"/>
<path fill-rule="evenodd" clip-rule="evenodd" d="M23.6561 5.5C17.5273 5.5 12.8405 10.963 13.7724 17.0206L14.1425 19.4264C13.6768 19.1715 13.2086 19.1036 12.8061 19.2744C11.7893 19.706 11.5773 21.4983 12.3326 23.2776C12.9905 24.8275 14.1652 25.8562 15.1292 25.8107C15.7547 29.0997 18.634 31.5 22.0054 31.5H24.5H26.7612C30.1598 31.5 33.0424 29.0647 33.6462 25.765C34.5102 25.5486 35.4517 24.6039 36.0146 23.2776C36.7699 21.4983 36.5579 19.706 35.5412 19.2744C35.1962 19.128 34.803 19.157 34.4044 19.3287L34.7139 16.6462C35.399 10.7086 30.7568 5.5 24.7798 5.5H23.6561Z" fill="#FFE6D4"/>
<mask id="mask2_8074_5961" style="mask-type:alpha" maskUnits="userSpaceOnUse" x="11" y="5" width="26" height="27">
<path fill-rule="evenodd" clip-rule="evenodd" d="M23.6561 5.5C17.5273 5.5 12.8405 10.963 13.7724 17.0206L14.1425 19.4264C13.6768 19.1715 13.2086 19.1036 12.8061 19.2744C11.7893 19.706 11.5773 21.4983 12.3326 23.2776C13.0689 25.0123 14.4527 26.0942 15.4638 25.7476C16.9949 29.1749 20.4281 31.5 24.338 31.5C28.2355 31.5 31.6442 29.1932 33.185 25.8087C34.155 25.8798 35.3492 24.8452 36.0146 23.2776C36.7699 21.4983 36.5579 19.706 35.5412 19.2744C35.1962 19.128 34.803 19.157 34.4044 19.3287L34.7139 16.6462C35.399 10.7086 30.7568 5.5 24.7798 5.5H23.6561Z" fill="#FFE6D4"/>
</mask>
<g mask="url(#mask2_8074_5961)">
<path d="M36 24C26.4 20.8 16.3333 22.6667 12.5 24C10.5 22.4 12 17.3333 13 15L16 6L29.5 5C35.1667 10.3333 45.6 27.2 36 24Z" fill="#E0C0A8"/>
</g>
<path d="M15 16.4999C14.8253 17.7224 14.4998 20.4999 14.4998 20.4999C14.4998 20.4999 12.6546 16.5326 12.4999 14.4999C12.3658 12.7368 12.9054 12.1651 13.5 10.4999C15.0662 6.11338 18.3491 4.75509 22.9998 4.49988C26.2681 4.32052 28.7983 4.65205 31.5 6.49988C34.0176 8.22176 34.2641 9.03991 35 11.9999C35.7206 14.8986 34.4998 20.4999 34.4998 20.4999C34.4998 20.4999 33.2781 17.9607 33 16.4999C32.633 14.5721 33.6241 13.3604 33 11.4999C31.7198 7.68346 27.5251 9.95021 23.5 9.9999C19.664 10.0473 16.1992 7.85586 15 11.4999C14.3176 13.5736 15.3087 14.3387 15 16.4999Z" fill="#382727"/>
</g>
</svg>
