<svg width="24" height="20" viewBox="0 0 24 20" fill="none" xmlns="http://www.w3.org/2000/svg">
<path fill-rule="evenodd" clip-rule="evenodd" d="M18.0979 18.3942C15.7792 18.3942 13.8995 16.5145 13.8995 14.1958C13.8995 11.8796 15.7751 10.0014 18.0904 9.99737L18.0979 9.9974L18.1054 9.99737C20.4207 10.0014 22.2964 11.8796 22.2964 14.1958C22.2964 16.5145 20.4166 18.3942 18.0979 18.3942ZM12.3995 14.1958C12.3995 11.3029 14.5552 8.91343 17.3479 8.54628V2.68402L14.476 5.2688C14.1681 5.5459 13.6939 5.52094 13.4168 5.21305C13.1397 4.90517 13.1646 4.43095 13.4725 4.15386L17.5962 0.44253C17.8814 0.185823 18.3144 0.185823 18.5997 0.44253L22.7234 4.15386C23.0312 4.43095 23.0562 4.90517 22.7791 5.21305C22.502 5.52094 22.0278 5.5459 21.7199 5.2688L18.8479 2.68402V8.54628C21.6406 8.91346 23.7964 11.3029 23.7964 14.1958C23.7964 17.343 21.2451 19.8942 18.0979 19.8942C14.9508 19.8942 12.3995 17.343 12.3995 14.1958ZM6.44844 1.75008C4.12971 1.75008 2.25 3.62978 2.25 5.94852C2.25 8.26475 4.12565 10.1429 6.44093 10.147L6.44847 10.1469L6.45597 10.147C8.77124 10.1429 10.6469 8.26474 10.6469 5.94852C10.6469 3.62978 8.76718 1.75008 6.44844 1.75008ZM0.75 5.94852C0.75 8.84146 2.90575 11.2309 5.69847 11.598V14.683H2.32477C1.91055 14.683 1.57477 15.0188 1.57477 15.433C1.57477 15.8472 1.91055 16.183 2.32477 16.183H5.69847V19.1443C5.69847 19.5585 6.03425 19.8943 6.44847 19.8943C6.86268 19.8943 7.19847 19.5585 7.19847 19.1443V16.183H10.5722C10.9864 16.183 11.3222 15.8472 11.3222 15.433C11.3222 15.0188 10.9864 14.683 10.5722 14.683H7.19847V11.598C9.99116 11.2309 12.1469 8.84144 12.1469 5.94852C12.1469 2.80136 9.5956 0.250077 6.44844 0.250077C3.30128 0.250077 0.75 2.80136 0.75 5.94852Z" fill="#90CAF9"/>
</svg>
