<svg width="64" height="68" viewBox="0 0 64 68" fill="none" xmlns="http://www.w3.org/2000/svg">
<g clip-path="url(#clip0)">
<path d="M32 41C49.6731 41 64 37.8893 64 34.052C64 30.2147 49.6731 27.1039 32 27.1039C14.3269 27.1039 0 30.2147 0 34.052C0 37.8893 14.3269 41 32 41Z" fill="#F5F5F5"/>
<path d="M55 13.9622L44.854 2.5456C44.367 1.76742 43.656 1.29694 42.907 1.29694H21.093C20.344 1.29694 19.633 1.76742 19.146 2.54461L9 13.9632V23.1336H55V13.9622Z" stroke="#D9D9D9"/>
<path d="M41.613 17.1097C41.613 15.5166 42.607 14.2014 43.84 14.2004H55V32.2028C55 34.31 53.68 36.0371 52.05 36.0371H11.95C10.32 36.0371 9 34.309 9 32.2028V14.2004H20.16C21.393 14.2004 22.387 15.5136 22.387 17.1067V17.1285C22.387 18.7216 23.392 20.008 24.624 20.008H39.376C40.608 20.008 41.613 18.7097 41.613 17.1166V17.1097V17.1097Z" fill="#FAFAFA" stroke="#D9D9D9"/>
<path d="M12.513 59.15V59.748C11.6723 59.8347 11.0007 59.8953 10.498 59.93V61.009H9.835V59.982C9.185 60.0253 8.25333 60.0817 7.04 60.151L6.949 59.527C7.98033 59.475 8.94233 59.423 9.835 59.371V58.11H7.313L7.17 57.538C7.56 57.122 7.94567 56.5673 8.327 55.874H6.78V55.224H8.652L9.029 54.327L9.731 54.444L9.393 55.224H12.695V55.874H9.068C8.704 56.5413 8.34867 57.0917 8.002 57.525H9.835V56.602H10.498V57.525H12.63V58.11H10.498V59.319L12.513 59.15ZM14.229 58.11C14.099 59.2193 13.748 60.1857 13.176 61.009L12.682 60.502C13.2887 59.6093 13.6093 58.565 13.644 57.369V55.419C15.204 55.2717 16.452 54.9813 17.388 54.548L17.856 55.068C16.92 55.5013 15.7283 55.796 14.281 55.952V57.473H18.272V58.11H16.816V61.035H16.127V58.11H14.229ZM16.712 61.49V66.274H16.01V65.715H9.146V66.274H8.444V61.49H16.712ZM9.146 65.104H16.01V63.908H9.146V65.104ZM9.146 63.31H16.01V62.088H9.146V63.31ZM23.732 55.432V64.909H23.056V63.999H20.859V65.208H20.157V55.432H23.732ZM20.859 63.336H23.056V59.956H20.859V63.336ZM20.859 59.293H23.056V56.082H20.859V59.293ZM25.552 59.28C26.3493 60.45 26.982 61.5247 27.45 62.504L26.865 62.907C26.397 61.9277 25.7687 60.84 24.98 59.644L25.552 59.28ZM26.371 66.131L26.215 65.455C27.2203 65.4897 27.9397 65.507 28.373 65.507C28.8237 65.507 29.049 65.273 29.049 64.805V57.564H24.408V56.875H29.049V54.522H29.764V56.875H31.454V57.564H29.764V64.987C29.764 65.7497 29.3827 66.131 28.62 66.131H26.371ZM33.794 55.198H42.998V55.9H38.318V56.836C38.3093 57.6593 38.2487 58.4653 38.136 59.254H44.09V59.943H39.969V64.766C39.969 65.1907 40.1813 65.403 40.606 65.403H42.4C42.7727 65.403 43.037 65.3163 43.193 65.143C43.3923 64.9437 43.5267 64.324 43.596 63.284L44.259 63.505C44.1723 64.6923 43.9817 65.4333 43.687 65.728C43.4443 65.9533 43.063 66.066 42.543 66.066H40.398C39.644 66.066 39.267 65.6803 39.267 64.909V59.943H38.032C37.8327 61.0523 37.5033 62.036 37.044 62.894C36.2553 64.298 34.9553 65.403 33.144 66.209L32.728 65.585C34.5133 64.7963 35.783 63.713 36.537 62.335C36.8577 61.659 37.1133 60.8617 37.304 59.943H32.897V59.254H37.421C37.5337 58.4653 37.5943 57.6593 37.603 56.836V55.9H33.794V55.198ZM47.821 54.925H55.179V58.266H47.821V54.925ZM54.477 57.629V55.575H48.523V57.629H54.477ZM48.757 60.268H45.715V59.579H57.272V60.268H49.485L48.991 61.984H55.4C55.3133 63.986 55.1227 65.1907 54.828 65.598C54.5247 65.9707 53.9483 66.157 53.099 66.157C52.631 66.157 52.0503 66.1397 51.357 66.105L51.11 65.455C51.89 65.4983 52.501 65.52 52.943 65.52C53.6537 65.52 54.1043 65.3597 54.295 65.039C54.4683 64.7183 54.594 63.9167 54.672 62.634H48.159L48.757 60.268Z" fill="black" fill-opacity="0.25"/>
</g>
<defs>
<clipPath id="clip0">
<rect width="64" height="68" fill="white"/>
</clipPath>
</defs>
</svg>
