<svg width="38" height="30" viewBox="0 0 38 30" fill="none" xmlns="http://www.w3.org/2000/svg">
<path d="M38 1H4C1.79086 1 0 2.79086 0 5V30L38 1Z" fill="#2196F3"/>
<path d="M9.99 13H9.19L9 12.16C8.66667 12.54 8.33333 12.8033 8 12.95C7.66667 13.0967 7.28333 13.17 6.85 13.17C6.31667 13.17 5.83667 13.0733 5.41 12.88C4.99 12.68 4.63333 12.41 4.34 12.07C4.04667 11.73 3.82 11.3333 3.66 10.88C3.50667 10.4267 3.43 9.94333 3.43 9.43C3.43 8.92333 3.50667 8.44333 3.66 7.99C3.82 7.53667 4.04667 7.14 4.34 6.8C4.63333 6.46 4.99 6.19 5.41 5.99C5.83667 5.79 6.31667 5.69 6.85 5.69C7.23667 5.69 7.60333 5.74333 7.95 5.85C8.30333 5.95 8.61667 6.10333 8.89 6.31C9.16333 6.51 9.39 6.76333 9.57 7.07C9.75 7.37667 9.86333 7.73 9.91 8.13H8.69C8.65667 7.89667 8.58333 7.69333 8.47 7.52C8.36333 7.34 8.22667 7.19 8.06 7.07C7.89333 6.95 7.70667 6.86 7.5 6.8C7.29333 6.74 7.07667 6.71 6.85 6.71C6.47 6.71 6.14 6.78667 5.86 6.94C5.58667 7.09333 5.36333 7.3 5.19 7.56C5.01667 7.81333 4.88667 8.10333 4.8 8.43C4.72 8.75667 4.68 9.09 4.68 9.43C4.68 9.77 4.72 10.1033 4.8 10.43C4.88667 10.7567 5.01667 11.05 5.19 11.31C5.36333 11.5633 5.58667 11.7667 5.86 11.92C6.14 12.0733 6.47 12.15 6.85 12.15C7.17 12.1567 7.45333 12.1167 7.7 12.03C7.94667 11.9367 8.15333 11.8067 8.32 11.64C8.49333 11.4667 8.62333 11.2567 8.71 11.01C8.79667 10.7633 8.84333 10.49 8.85 10.19H6.95V9.24H9.99V13ZM16.1679 8.13C16.1146 7.92333 16.0412 7.73333 15.9479 7.56C15.8546 7.38667 15.7346 7.23667 15.5879 7.11C15.4412 6.98333 15.2679 6.88667 15.0679 6.82C14.8746 6.74667 14.6479 6.71 14.3879 6.71C14.0079 6.71 13.6779 6.78667 13.3979 6.94C13.1246 7.09333 12.9012 7.3 12.7279 7.56C12.5546 7.81333 12.4246 8.10333 12.3379 8.43C12.2579 8.75667 12.2179 9.09 12.2179 9.43C12.2179 9.77 12.2579 10.1033 12.3379 10.43C12.4246 10.7567 12.5546 11.05 12.7279 11.31C12.9012 11.5633 13.1246 11.7667 13.3979 11.92C13.6779 12.0733 14.0079 12.15 14.3879 12.15C14.6679 12.15 14.9146 12.1033 15.1279 12.01C15.3412 11.91 15.5246 11.7767 15.6779 11.61C15.8312 11.4367 15.9512 11.2367 16.0379 11.01C16.1246 10.7833 16.1812 10.54 16.2079 10.28H17.4279C17.4012 10.7067 17.3079 11.0967 17.1479 11.45C16.9946 11.8033 16.7846 12.11 16.5179 12.37C16.2512 12.6233 15.9379 12.82 15.5779 12.96C15.2179 13.1 14.8212 13.17 14.3879 13.17C13.8546 13.17 13.3746 13.0733 12.9479 12.88C12.5279 12.68 12.1712 12.41 11.8779 12.07C11.5846 11.73 11.3579 11.3333 11.1979 10.88C11.0446 10.4267 10.9679 9.94333 10.9679 9.43C10.9679 8.92333 11.0446 8.44333 11.1979 7.99C11.3579 7.53667 11.5846 7.14 11.8779 6.8C12.1712 6.46 12.5279 6.19 12.9479 5.99C13.3746 5.79 13.8546 5.69 14.3879 5.69C14.7879 5.69 15.1646 5.74667 15.5179 5.86C15.8712 5.96667 16.1812 6.12667 16.4479 6.34C16.7212 6.54667 16.9412 6.8 17.1079 7.1C17.2746 7.4 17.3779 7.74333 17.4179 8.13H16.1679ZM18.5647 5.86H21.7147C22.2214 5.86 22.6347 5.93333 22.9547 6.08C23.2747 6.22667 23.5214 6.41 23.6947 6.63C23.868 6.85 23.9847 7.09 24.0447 7.35C24.1114 7.61 24.1447 7.85 24.1447 8.07C24.1447 8.29 24.1114 8.53 24.0447 8.79C23.9847 9.04333 23.868 9.28 23.6947 9.5C23.5214 9.72 23.2747 9.90333 22.9547 10.05C22.6347 10.19 22.2214 10.26 21.7147 10.26H19.8147V13H18.5647V5.86ZM19.8147 9.24H21.6447C21.7847 9.24 21.928 9.22 22.0747 9.18C22.2214 9.14 22.3547 9.07667 22.4747 8.99C22.6014 8.89667 22.7014 8.77667 22.7747 8.63C22.8547 8.47667 22.8947 8.28667 22.8947 8.06C22.8947 7.82667 22.8614 7.63333 22.7947 7.48C22.728 7.32667 22.638 7.20667 22.5247 7.12C22.4114 7.02667 22.2814 6.96333 22.1347 6.93C21.988 6.89667 21.8314 6.88 21.6647 6.88H19.8147V9.24Z" fill="white"/>
</svg>
