<svg width="12" height="12" viewBox="0 0 12 12" fill="none" xmlns="http://www.w3.org/2000/svg">
<path d="M6.00014 10.0817C8.25443 10.0817 10.0819 8.2543 10.0819 6.00002C10.0819 3.74573 8.25443 1.9183 6.00014 1.9183C3.74585 1.9183 1.91843 3.74573 1.91843 6.00002C1.91843 8.2543 3.74585 10.0817 6.00014 10.0817ZM6.00014 10.5714C3.47528 10.5714 1.42871 8.52487 1.42871 6.00002C1.42871 3.47516 3.47528 1.42859 6.00014 1.42859C8.525 1.42859 10.5716 3.47516 10.5716 6.00002C10.5716 8.52487 8.525 10.5714 6.00014 10.5714ZM2.10985 4.08402L1.911 3.94116L2.19671 3.54345L2.39557 3.6863C2.66643 3.88059 3.04557 4.0343 3.53214 4.1463C3.899 3.00487 4.641 2.15316 5.755 1.6043V1.46945H6.245V1.64373C7.315 2.19373 8.03043 3.03116 8.38871 4.14459C8.87157 4.03316 9.24871 3.87973 9.51814 3.6863L9.717 3.54345L10.0027 3.94145L9.80357 4.0843C9.483 4.3143 9.05385 4.49173 8.51557 4.61773C8.60985 5.04916 8.65728 5.51716 8.65728 6.02059C8.65728 6.44716 8.62328 6.8483 8.55557 7.22345C9.11328 7.34887 9.55728 7.52573 9.88814 7.75602L10.089 7.89602L9.809 8.29802L9.60814 8.15802C9.331 7.96516 8.94357 7.8123 8.447 7.70116C8.11157 8.91259 7.37643 9.81545 6.245 10.3969V10.5306H6.05614L6.03671 10.5714L5.96071 10.5352L5.88471 10.5714L5.86528 10.5306H5.75528V10.4366C4.57843 9.85659 3.81671 8.93945 3.47385 7.69973C2.97414 7.81116 2.58471 7.9643 2.30643 8.15802L2.10528 8.29802L1.82528 7.89602L2.02643 7.75602C2.35843 7.52487 2.80443 7.34745 3.36557 7.2223C3.2959 6.82547 3.26186 6.4232 3.26385 6.0203C3.26385 5.51773 3.311 5.05059 3.40528 4.61945C2.86357 4.49316 2.43214 4.31545 2.10985 4.08402ZM6.245 6.99487C6.93785 7.00459 7.54785 7.0503 8.07471 7.13287C8.13671 6.78802 8.16757 6.41745 8.16757 6.0203C8.16757 5.54716 8.12357 5.11145 8.03557 4.71202C7.51985 4.79602 6.92328 4.8423 6.245 4.85259V6.99487ZM7.90385 4.23716C7.60528 3.35287 7.05328 2.67745 6.245 2.20287V4.36259C6.87643 4.35287 7.42957 4.31059 7.90385 4.23687V4.23716ZM3.88557 4.71345C3.79757 5.1123 3.75357 5.54773 3.75357 6.0203C3.75357 6.41687 3.78471 6.78716 3.84643 7.13173C4.39357 7.04659 5.02957 7.00087 5.755 6.99373V4.85373C5.04443 4.8463 4.42128 4.80002 3.88557 4.71345ZM5.75528 2.15745C4.90385 2.63459 4.325 3.32487 4.017 4.23802C4.51128 4.3143 5.09071 4.35659 5.75528 4.36373V2.15716V2.15745ZM6.245 9.8383C7.11071 9.32945 7.68271 8.59059 7.96385 7.61145C7.47328 7.53687 6.90014 7.4943 6.245 7.48459V9.8383ZM3.95728 7.61059C4.24643 8.61945 4.845 9.37345 5.75528 9.88345V7.48345C5.067 7.49059 4.46757 7.53316 3.95728 7.61059Z" fill="#1890FF"/>
</svg>
