<svg width="11" height="10" viewBox="0 0 11 10" fill="none" xmlns="http://www.w3.org/2000/svg">
<path d="M3.4025 7.21592L3.31492 7.22471L1.46751 5.66999L1.50241 5.45131L5.11789 1.87622L6.91495 3.69028L3.4025 7.21592ZM7.5326 3.07074L5.67301 1.32696L6.98837 0.0266782L7.52372 0L8.8618 1.31687L8.78146 1.81733L7.5326 3.07074ZM0.913694 8.11108L0.512329 8.24287L0.673012 7.66334L1.2008 6.4122L2.47689 7.44613L0.913694 8.11108ZM1.02003 8.99875H10.1271C10.4053 8.99875 10.6309 9.22165 10.6309 9.49661C10.6309 9.77156 10.4053 9.99446 10.1271 9.99446H1.02003C0.741827 9.99446 0.516285 9.77156 0.516285 9.49661C0.516285 9.22165 0.741827 8.99875 1.02003 8.99875ZM10.1222 7.74925H5.0708C4.78995 7.74925 4.56212 7.52408 4.56212 7.24652C4.56212 6.96897 4.78995 6.74379 5.0708 6.74379H10.1222C10.403 6.74379 10.6309 6.96897 10.6309 7.24652C10.6309 7.52408 10.403 7.74925 10.1222 7.74925Z" fill="#1890FF"/>
</svg>
