<?xml version="1.0" encoding="UTF-8"?>
<svg width="16px" height="18px" viewBox="0 0 16 18" version="1.1" xmlns="http://www.w3.org/2000/svg" xmlns:xlink="http://www.w3.org/1999/xlink">
    <!-- Generator: Sketch 53.2 (72643) - https://sketchapp.com -->
    <title>shanchu3 copy 10</title>
    <desc>Created with Sketch.</desc>
    <defs>
        <polygon id="path-1" points="0.00130612245 0.0219745732 15.9889415 0.0219745732 15.9889415 17.4863388 0.00130612245 17.4863388"></polygon>
    </defs>
    <g id="1.6" stroke="none" stroke-width="1" fill="none" fill-rule="evenodd">
        <g id="今日就诊" transform="translate(-1162.000000, -441.000000)">
            <g id="shanchu3-copy-10" transform="translate(1162.000000, 441.000000)">
                <g id="分组">
                    <mask id="mask-2" fill="white">
                        <use xlink:href="#path-1"></use>
                    </mask>
                    <g id="Clip-2"></g>
                    <path d="M8.11922721,0.0219745732 C6.37252789,0.0219745732 4.95484082,1.4353018 4.89456327,3.20977635 L0.822617687,3.20977635 C0.370155102,3.20977635 0,3.58481055 0,4.04940946 C0,4.51116434 0.367434014,4.88906479 0.822617687,4.88906479 L1.73017687,4.88906479 L1.73017687,14.281695 C1.73017687,16.0449712 2.90111565,17.4863388 4.34888707,17.4863388 L11.7249959,17.4863388 C13.1701551,17.4863388 14.3437061,16.0533922 14.3437061,14.281695 L14.3437061,4.89461953 L15.1663238,4.89461953 C15.6187864,4.89461953 15.9889415,4.51958534 15.9889415,4.05496421 C15.9889415,3.59323154 15.6215075,3.2153311 15.1663238,3.2153311 L11.3384272,3.2153311 C11.2863129,1.43539067 9.86590476,0.0219745732 8.11922721,0.0219745732 Z M6.43563537,3.20977635 C6.49591293,2.30019789 7.22261769,1.59492296 8.1219483,1.59492296 C9.02134422,1.59492296 9.74804898,2.30297526 9.80007619,3.20977635 L6.43563537,3.20977635 Z M4.34616599,15.91619 C3.83342585,15.91619 3.26852789,15.244488 3.26852789,14.281695 L3.26852789,4.89461953 L12.7999129,4.89461953 L12.7999129,14.290116 C12.7999129,15.2501316 12.2350367,15.9245888 11.7222748,15.9245888 L4.34616599,15.9245888 L4.34616599,15.91619 Z" id="Fill-1" fill="#1890FF" mask="url(#mask-2)"></path>
                </g>
                <path d="M5.19863505,14.2222222 C5.61199321,14.2222222 5.95292147,13.8130373 5.95292147,13.2993867 L5.95292147,8.03404144 C5.95292147,7.52029602 5.61498717,7.11111111 5.19863505,7.11111111 C4.7852769,7.11111111 4.44444444,7.52029602 4.44444444,8.03404144 L4.44444444,13.2993867 C4.44444444,13.8100736 4.77629502,14.2222222 5.19863505,14.2222222 Z M7.92903116,14.2222222 C8.34238932,14.2222222 8.68331758,13.8130373 8.68331758,13.2993867 L8.68331758,8.03404144 C8.68331758,7.52029602 8.34538328,7.11111111 7.92903116,7.11111111 C7.51576882,7.11111111 7.17484055,7.52029602 7.17484055,8.03404144 L7.17484055,13.2993867 C7.17484055,13.8100736 7.51576882,14.2222222 7.92903116,14.2222222 Z M10.8012691,14.2222222 C11.2146273,14.2222222 11.5555556,13.8130373 11.5555556,13.2993867 L11.5555556,8.03404144 C11.5555556,7.52029602 11.2176213,7.11111111 10.8012691,7.11111111 C10.387911,7.11111111 10.0470785,7.52029602 10.0470785,8.03404144 L10.0470785,13.2993867 C10.0470785,13.8100736 10.3758393,14.2222222 10.8012691,14.2222222 Z" id="Fill-3" fill="#1890FF"></path>
            </g>
        </g>
    </g>
</svg>