<?xml version="1.0" encoding="UTF-8"?>
<svg width="14px" height="14px" viewBox="0 0 14 14" version="1.1" xmlns="http://www.w3.org/2000/svg" xmlns:xlink="http://www.w3.org/1999/xlink">
    <!-- Generator: Sketch 53.2 (72643) - https://sketchapp.com -->
    <title>分组 2</title>
    <desc>Created with Sketch.</desc>
    <g id="1.6" stroke="none" stroke-width="1" fill="none" fill-rule="evenodd">
        <g id="接诊-copy" transform="translate(-847.000000, -152.000000)">
            <g id="分组-2" transform="translate(847.000000, 152.000000)">
                <g id="fsux_图表_分布曲线图" transform="translate(2.000000, 1.000000)" fill-rule="nonzero">
                    <g id="分组">
                        <rect id="矩形" fill="#000000" opacity="0" x="0" y="0" width="13" height="13"></rect>
                        <path d="M7.52631743,8.65394798 C6.21942571,8.65394798 5.7405162,7.21177213 5.31431747,5.94020742 C4.88817324,4.6686209 4.5472535,3.7789511 3.87352336,3.7789511 C2.73305864,3.7789511 2.25007265,6.39517775 2.25007266,7.43520967 C2.25002907,7.65955274 2.06835343,7.84140123 1.8442236,7.84140123 C1.62006108,7.84140123 1.43838545,7.65955275 1.43834185,7.43520967 C1.43834185,6.54958749 1.87262813,2.96644798 3.87352336,2.96644798 C5.18041508,2.96644798 5.65932459,4.40861293 6.08547972,5.68018853 C6.51163486,6.95176414 6.85258729,7.84144487 7.52631743,7.84144487 C8.20004757,7.84144487 8.66273837,6.57800814 8.74388638,6.13521341 C8.78761583,5.91083762 9.00475898,5.7644031 9.2289215,5.80816326 C9.45305132,5.85192341 9.59933574,6.06927315 9.55561719,6.29361623 C9.52721266,6.39113013 9.06048897,8.65394798 7.52631743,8.65394798 L7.52631743,8.65394798 Z" id="路径" fill="#F91E1E"></path>
                    </g>
                </g>
                <rect id="矩形" stroke="#F91E1E" x="0.5" y="0.5" width="13" height="13" rx="2"></rect>
            </g>
        </g>
    </g>
</svg>