<?xml version="1.0" encoding="UTF-8"?>
<svg width="11px" height="39px" viewBox="0 0 11 39" version="1.1" xmlns="http://www.w3.org/2000/svg" xmlns:xlink="http://www.w3.org/1999/xlink">
    <!-- Generator: Sketch 60.1 (88133) - https://sketch.com -->
    <title>编组</title>
    <desc>Created with Sketch.</desc>
    <g id="页面-1" stroke="none" stroke-width="1" fill="none" fill-rule="evenodd">
        <g id="待审阅" transform="translate(-197.000000, -396.000000)">
            <g id="编组" transform="translate(197.158203, 396.000000)">
                <polygon id="路径-2" fill-opacity="0.599431818" fill="#D8D8D8" points="10.841797 6.39488462e-14 2.13162821e-14 9.77393375 2.13162821e-14 31.0860449 10.841797 38.2229026"></polygon>
                <g id="展开" transform="translate(5.841797, 19.000000) scale(-1, 1) translate(-5.841797, -19.000000) translate(0.841797, 12.000000)" fill="#000000" fill-rule="nonzero">
                    <g id="分组">
                        <rect id="矩形" opacity="0" x="0" y="0" width="10" height="13.3333333"></rect>
                        <path d="M2.81537617,10.8349739 C2.81537617,11.042713 2.6879026,11.2126778 2.53209823,11.2126778 L1.83709944,11.2126778 C1.68129508,11.2126778 1.5538215,11.042713 1.5538215,10.8349739 L1.5538215,2.44989897 C1.5538215,2.24215982 1.68129508,2.07219505 1.83709944,2.07219505 L2.53209823,2.07219505 C2.6879026,2.07219505 2.81537617,2.24215982 2.81537617,2.44989897 L2.81537617,10.8349739 Z M3.82623082,2.44989897 C3.82623082,2.24215982 3.9284615,2.17371289 4.05342678,2.29778876 L8.2059114,6.42085999 C8.33086668,6.54493586 8.33086668,6.74797154 8.2059114,6.87203409 L4.05342678,10.995092 C3.9284615,11.1191679 3.82623082,11.0507209 3.82623082,10.8429818 L3.82623082,2.44989897 Z" id="形状"></path>
                    </g>
                </g>
            </g>
        </g>
    </g>
</svg>