<svg width="14" height="14" viewBox="0 0 14 14" fill="none" xmlns="http://www.w3.org/2000/svg">
<path fill-rule="evenodd" clip-rule="evenodd" d="M5.05556 2.72228V1.9445H8.94444V2.72228H5.05556ZM3.88889 1.55561C3.88889 1.12606 4.23711 0.777832 4.66667 0.777832H9.33333C9.76289 0.777832 10.1111 1.12606 10.1111 1.55561V2.72228V3.88894H8.94444H5.05556H3.88889V2.72228V1.55561ZM3.5 6.70553L4.37214 5.83339H9.62786L10.5 6.70553V8.55561H11.6667V6.22228L10.1111 4.66672H3.88889L2.33333 6.22228V12.4445C2.33333 12.8741 2.68156 13.2223 3.11111 13.2223H7V12.0556H3.5V6.70553ZM6.61111 8.55561V7.77783H7.38889V8.55561H8.16667V9.33339H7.38889V10.1112H6.61111V9.33339H5.83333V8.55561H6.61111ZM9.21138 9.57233L9.26435 9.40916L8.52605 9.06261L8.45969 9.27553C8.28092 9.84908 8.00256 10.3419 7.63249 10.7601L7.55979 10.8422L7.82806 11.7007L8.05032 11.4636V13.1678H8.83977V10.4189C8.98999 10.1498 9.11515 9.86869 9.21138 9.57233ZM11.0834 9.29757L11.022 9.13007L10.2311 9.34509L10.3225 9.55198C10.3579 9.63209 10.3915 9.71332 10.4238 9.79617H9.49699V10.5817H10.5042V10.9823H9.61755V11.7562H10.5042V12.2539H9.44255V13.0395H12.3709V12.2539H11.3053V11.7562H12.1764V10.9823H11.3053V10.5817H12.2814V9.79617H11.25C11.2045 9.64275 11.1495 9.47764 11.0834 9.29757Z" fill="#333333"/>
</svg>
