<svg width="14" height="14" viewBox="0 0 14 14" fill="none" xmlns="http://www.w3.org/2000/svg">
<path fill-rule="evenodd" clip-rule="evenodd" d="M12.0556 5.16238V11.6669C12.0556 11.8817 11.8814 12.0558 11.6667 12.0558H2.33333C2.11856 12.0558 1.94445 11.8817 1.94445 11.6669V5.10566C1.94445 4.9731 2.01196 4.84968 2.12357 4.77819L6.45153 2.00592C6.57285 1.92821 6.7272 1.92394 6.85264 1.99483L11.858 4.82382C11.9801 4.89281 12.0556 5.02217 12.0556 5.16238ZM0.777779 5.10566C0.777779 4.57545 1.04783 4.08176 1.4943 3.79578L5.82225 1.02352C6.30755 0.712656 6.92495 0.695589 7.42668 0.979164L12.4321 3.80816C12.9203 4.08411 13.2222 4.60154 13.2222 5.16238V11.6669C13.2222 12.526 12.5258 13.2224 11.6667 13.2224H2.33333C1.47422 13.2224 0.777779 12.526 0.777779 11.6669V5.10566ZM9.52777 8.94449H5.83333L6.35989 8.41793C6.58769 8.19013 6.58769 7.82078 6.35989 7.59297C6.13208 7.36517 5.76274 7.36517 5.53493 7.59297L4.16 8.9679C4.11139 9.01651 4.07315 9.07157 4.04529 9.13032C3.94825 9.23449 3.88888 9.37423 3.88888 9.52782C3.88888 9.84999 4.15005 10.1112 4.47222 10.1112H9.52777C9.84994 10.1112 10.1111 9.84999 10.1111 9.52782C10.1111 9.20566 9.84994 8.94449 9.52777 8.94449Z" fill="#333333"/>
</svg>
