<svg width="14" height="14" viewBox="0 0 14 14" fill="none" xmlns="http://www.w3.org/2000/svg">
<path fill-rule="evenodd" clip-rule="evenodd" d="M5.05555 2.72228V1.9445H8.94444V2.72228H5.05555ZM3.88889 1.55561C3.88889 1.12606 4.23711 0.777832 4.66667 0.777832H9.33333C9.76289 0.777832 10.1111 1.12606 10.1111 1.55561V2.72228V3.88894H8.94444H5.05555H3.88889V2.72228V1.55561ZM3.5 6.70553L4.37214 5.83339H9.62786L10.5 6.70553V8.55561H11.6667V6.22228L10.1111 4.66672H3.88889L2.33333 6.22228V12.4445C2.33333 12.8741 2.68155 13.2223 3.11111 13.2223H7V12.0556H3.5V6.70553ZM6.61111 8.55561V7.77783H7.38889V8.55561H8.16667V9.33339H7.38889V10.1112H6.61111V9.33339H5.83333V8.55561H6.61111ZM8.88378 9.43952L8.78197 9.33324L7.99328 9.65069L8.16804 9.83789C8.22517 9.89908 8.28113 9.96342 8.33577 10.0311H7.77778V13.2221H8.62065V10.435C8.63157 10.4528 8.64241 10.4707 8.65317 10.4888L8.75011 10.6519L9.51379 10.2979L9.51174 10.2945H10.8238V12.454L10.8236 12.4635L10.2315 12.4454L10.4703 13.1887H10.9615C11.1591 13.1887 11.3454 13.1441 11.4809 13.0235C11.6164 12.903 11.6667 12.7374 11.6667 12.5617V9.56725H9.27158V9.91368C9.1546 9.74551 9.02585 9.58783 8.88378 9.43952Z" fill="#333333"/>
</svg>
