<svg width="14" height="14" viewBox="0 0 14 14" fill="none" xmlns="http://www.w3.org/2000/svg">
<path fill-rule="evenodd" clip-rule="evenodd" d="M12.0556 5.16238V11.6669C12.0556 11.8817 11.8814 12.0558 11.6667 12.0558H2.33333C2.11856 12.0558 1.94445 11.8817 1.94445 11.6669V5.10566C1.94445 4.9731 2.01196 4.84968 2.12357 4.77819L6.45153 2.00592C6.57285 1.92821 6.7272 1.92394 6.85264 1.99483L11.858 4.82382C11.9801 4.89281 12.0556 5.02217 12.0556 5.16238ZM0.777779 5.10566C0.777779 4.57545 1.04783 4.08176 1.4943 3.79578L5.82225 1.02352C6.30755 0.712656 6.92495 0.695589 7.42668 0.979164L12.4321 3.80816C12.9203 4.08411 13.2222 4.60154 13.2222 5.16238V11.6669C13.2222 12.526 12.5258 13.2224 11.6667 13.2224H2.33333C1.47422 13.2224 0.777779 12.526 0.777779 11.6669V5.10566ZM4.47222 8.94435H8.16667L7.64011 8.4178C7.4123 8.18999 7.4123 7.82064 7.64011 7.59284C7.86792 7.36503 8.23726 7.36503 8.46507 7.59284L9.84 8.96777C9.88861 9.01638 9.92685 9.07143 9.95471 9.13018C10.0517 9.23436 10.1111 9.37409 10.1111 9.52769C10.1111 9.84985 9.84994 10.111 9.52778 10.111H4.47222C4.15006 10.111 3.88889 9.84985 3.88889 9.52769C3.88889 9.20552 4.15006 8.94435 4.47222 8.94435Z" fill="#333333"/>
</svg>
