<svg width="14" height="14" viewBox="0 0 14 14" fill="none" xmlns="http://www.w3.org/2000/svg">
<path fill-rule="evenodd" clip-rule="evenodd" d="M8.43138 1.9445H5.32027C5.10549 1.9445 4.93138 2.11861 4.93138 2.33339V3.11143L6.48694 3.11152L8.82027 3.1114V2.33339C8.82027 2.11861 8.64616 1.9445 8.43138 1.9445ZM9.98694 3.11133V2.33339C9.98694 1.47428 9.29049 0.777832 8.43138 0.777832H5.32027C4.46116 0.777832 3.76471 1.47428 3.76471 2.33339V3.11136L2.33351 3.11127C1.42735 3.11121 0.712946 3.88264 0.782445 4.78613L1.3209 11.786C1.38324 12.5965 2.05904 13.2223 2.87187 13.2223H10.8798C11.6926 13.2223 12.3684 12.5965 12.4307 11.786L12.9692 4.78612C13.0387 3.88263 12.3243 3.11121 11.4181 3.11126L9.98694 3.11133ZM8.82027 4.27806V4.86117C8.82027 5.18333 9.08144 5.4445 9.4036 5.4445C9.72577 5.4445 9.98694 5.18333 9.98694 4.86117V4.278L11.4182 4.27792C11.6447 4.27791 11.8233 4.47077 11.806 4.69664L11.2675 11.6965C11.2519 11.8992 11.083 12.0556 10.8798 12.0556H2.87187C2.66866 12.0556 2.49971 11.8992 2.48413 11.6965L1.94568 4.69665C1.9283 4.47078 2.1069 4.27792 2.33344 4.27793L3.76471 4.27802V4.86117C3.76471 5.18333 4.02588 5.4445 4.34805 5.4445C4.67021 5.4445 4.93138 5.18333 4.93138 4.86117V4.27809L6.48686 4.27819H6.487L8.82027 4.27806ZM4.54209 9.52783C4.54209 9.20567 4.80326 8.9445 5.12543 8.9445H8.62543C8.94759 8.9445 9.20876 9.20567 9.20876 9.52783C9.20876 9.85 8.94759 10.1112 8.62543 10.1112H5.12543C4.80326 10.1112 4.54209 9.85 4.54209 9.52783Z" fill="#1890FF"/>
</svg>
