<svg width="14" height="14" viewBox="0 0 14 14" fill="none" xmlns="http://www.w3.org/2000/svg">
<path fill-rule="evenodd" clip-rule="evenodd" d="M12.0555 5.16238V11.6669C12.0555 11.8817 11.8814 12.0558 11.6667 12.0558H2.33333C2.11855 12.0558 1.94444 11.8817 1.94444 11.6669V5.10566C1.94444 4.9731 2.01195 4.84968 2.12357 4.77819L6.45152 2.00592C6.57285 1.92821 6.7272 1.92394 6.85263 1.99483L11.858 4.82382C11.9801 4.89281 12.0555 5.02217 12.0555 5.16238ZM0.777771 5.10566C0.777771 4.57545 1.04783 4.08176 1.49429 3.79578L5.82224 1.02352C6.30754 0.712656 6.92494 0.695589 7.42668 0.979164L12.4321 3.80816C12.9203 4.08411 13.2222 4.60154 13.2222 5.16238V11.6669C13.2222 12.526 12.5258 13.2224 11.6667 13.2224H2.33333C1.47422 13.2224 0.777771 12.526 0.777771 11.6669V5.10566ZM6.02777 6.49708C6.34994 6.49708 6.6111 6.75825 6.6111 7.08041V8.31952H7.97222C8.29438 8.31952 8.55555 8.58068 8.55555 8.90285C8.55555 9.22502 8.29438 9.48618 7.97222 9.48618H6.04004L6.02777 9.48631C5.70561 9.48631 5.44444 9.22514 5.44444 8.90298V8.90285V7.08041C5.44444 6.75825 5.70561 6.49708 6.02777 6.49708Z" fill="#333333"/>
</svg>
