<svg width="14" height="14" viewBox="0 0 14 14" fill="none" xmlns="http://www.w3.org/2000/svg">
<path fill-rule="evenodd" clip-rule="evenodd" d="M5.81207 1.99087C5.81207 1.9712 5.81521 1.95579 5.81893 1.9445H7.03418V4.19485C7.03418 4.51702 7.29535 4.77818 7.61751 4.77818H10.2718C10.594 4.77818 10.8552 4.51702 10.8552 4.19485V1.9445H12.0706C12.0744 1.95579 12.0775 1.9712 12.0775 1.99087V7.02854C12.0775 7.3507 12.3387 7.61187 12.6608 7.61187C12.983 7.61187 13.2442 7.3507 13.2442 7.02854V1.99087C13.2442 1.41824 12.8347 0.777832 12.13 0.777832H5.7596C5.05486 0.777832 4.6454 1.41824 4.6454 1.99087V4.50971C4.6454 4.83187 4.90657 5.09304 5.22873 5.09304C5.5509 5.09304 5.81207 4.83187 5.81207 4.50971V1.99087ZM9.6885 1.9445H8.20085V3.61152H9.6885V1.9445Z" fill="#333333"/>
<path fill-rule="evenodd" clip-rule="evenodd" d="M7.38656 11.1845C7.2903 11.203 7.19089 11.1971 7.09756 11.1671L5.48439 10.6485C5.17768 10.55 5.00896 10.2214 5.10755 9.91468C5.20613 9.60797 5.53469 9.43925 5.8414 9.53784L7.31264 10.0107L7.34094 10.0053C7.45264 9.98398 7.61272 9.95351 7.80646 9.91696C8.19383 9.84388 8.7163 9.74636 9.25595 9.64879C9.79501 9.55133 10.3539 9.45333 10.8131 9.37952C11.2455 9.31002 11.6542 9.2506 11.8467 9.2506C12.0673 9.2506 12.3193 9.30333 12.5254 9.47721C12.7446 9.66222 12.8333 9.91795 12.8333 10.158C12.8333 10.5875 12.564 10.9896 12.2516 11.2909C11.9578 11.5742 11.3198 12.1203 10.5386 12.5996C9.77264 13.0697 8.785 13.5284 7.81379 13.5284C6.91191 13.5284 6.16772 13.3095 5.55161 13.1115C5.49416 13.093 5.43842 13.075 5.38424 13.0575C4.82729 12.8774 4.43537 12.7506 4.04973 12.7506H1.36119L1.36113 11.5839H4.04973C4.63227 11.5839 5.20878 11.7724 5.72563 11.9413C5.78751 11.9615 5.84854 11.9815 5.90862 12.0008C6.50238 12.1917 7.1025 12.3617 7.81379 12.3617C8.45574 12.3617 9.21571 12.0426 9.92845 11.6053C10.6118 11.186 11.1745 10.7062 11.4265 10.4658C11.3012 10.4837 11.1569 10.5059 10.9983 10.5314C10.5501 10.6034 9.99991 10.6999 9.46353 10.7968C8.92773 10.8937 8.40836 10.9907 8.02276 11.0634C7.83001 11.0998 7.67081 11.1301 7.55986 11.1513L7.38656 11.1845ZM11.8658 10.4182L11.8638 10.418L11.8658 10.4182ZM1.36113 11.5839C1.03896 11.5839 0.777779 11.8451 0.777779 12.1673C0.777779 12.4894 1.03902 12.7506 1.36119 12.7506L1.36113 11.5839Z" fill="#333333"/>
<path fill-rule="evenodd" clip-rule="evenodd" d="M2.83099 8.49921C2.39984 8.75112 2.02532 9.06989 1.77815 9.32261C1.55289 9.55293 1.18356 9.55704 0.953241 9.33177C0.722918 9.10651 0.718815 8.73719 0.944076 8.50687C1.25014 8.19393 1.70545 7.80563 2.24244 7.49188C2.77434 7.18111 3.43131 6.91726 4.12724 6.91726C4.48435 6.91726 4.91714 7.00516 5.34196 7.12467C5.77702 7.24706 6.24466 7.41451 6.68583 7.59863C7.12643 7.78251 7.55163 7.98759 7.89999 8.1884C8.07397 8.28868 8.23591 8.39198 8.37381 8.49514C8.50446 8.59286 8.64449 8.71308 8.7468 8.85255C8.99905 9.19644 8.97333 9.57487 8.86948 9.85802C8.77275 10.1218 8.59728 10.3472 8.44707 10.511C8.29034 10.6819 8.1232 10.8262 7.99955 10.9254C7.93672 10.9758 7.88276 11.0164 7.84368 11.045C7.82409 11.0593 7.80811 11.0707 7.79647 11.0789L7.78232 11.0888L7.77783 11.0919L7.77626 11.093L7.77539 11.0936C7.77539 11.0936 7.77515 11.0937 7.4466 10.6117L7.77539 11.0936C7.50918 11.275 7 10.8062 7 10.8062C7 10.8062 6.8517 10.3119 7.11725 10.1302L7.11799 10.1297L7.12448 10.1252C7.13087 10.1207 7.14123 10.1133 7.15486 10.1033C7.18224 10.0833 7.22228 10.0532 7.26966 10.0152C7.36644 9.93761 7.48456 9.83443 7.58715 9.72253C7.67372 9.62812 7.72806 9.55021 7.75679 9.49486C7.73541 9.47622 7.70837 9.45432 7.67499 9.42935C7.58545 9.36237 7.46538 9.28448 7.31736 9.19916C7.02173 9.02875 6.64302 8.84495 6.2365 8.67529C5.83053 8.50587 5.40783 8.35515 5.02602 8.24774C4.63397 8.13745 4.32336 8.08393 4.12724 8.08393C3.71672 8.08393 3.26724 8.24433 2.83099 8.49921Z" fill="#333333"/>
</svg>
