<svg width="14" height="14" viewBox="0 0 14 14" fill="none" xmlns="http://www.w3.org/2000/svg">
<path fill-rule="evenodd" clip-rule="evenodd" d="M12.0556 5.16238V11.6669C12.0556 11.8817 11.8814 12.0558 11.6667 12.0558H2.33333C2.11856 12.0558 1.94444 11.8817 1.94444 11.6669V5.10566C1.94444 4.9731 2.01196 4.84968 2.12357 4.77819L6.45153 2.00592C6.57285 1.92821 6.7272 1.92394 6.85264 1.99483L11.858 4.82382C11.9801 4.89281 12.0556 5.02217 12.0556 5.16238ZM0.777778 5.10566C0.777778 4.57545 1.04783 4.08176 1.4943 3.79578L5.82225 1.02352C6.30755 0.712656 6.92495 0.695589 7.42668 0.979164L12.4321 3.80816C12.9203 4.08411 13.2222 4.60154 13.2222 5.16238V11.6669C13.2222 12.526 12.5258 13.2224 11.6667 13.2224H2.33333C1.47422 13.2224 0.777778 12.526 0.777778 11.6669V5.10566ZM5.41126 8.9445V6.25005C5.41126 5.92789 5.67243 5.66672 5.99459 5.66672C6.31676 5.66672 6.57793 5.92789 6.57793 6.25005V10.3056C6.57793 10.6278 6.31676 10.8889 5.99459 10.8889C5.84099 10.8889 5.70126 10.8296 5.59709 10.7325C5.53834 10.7047 5.48328 10.6664 5.43467 10.6178L4.05974 9.2429C3.83194 9.01509 3.83194 8.64575 4.05974 8.41794C4.28755 8.19014 4.6569 8.19014 4.8847 8.41794L5.41126 8.9445ZM8.58874 6.61117V9.30561C8.58874 9.62778 8.32757 9.88894 8.00541 9.88894C7.68324 9.88894 7.42207 9.62778 7.42207 9.30561V5.25005C7.42207 4.92789 7.68324 4.66672 8.00541 4.66672C8.15901 4.66672 8.29874 4.72609 8.40291 4.82312C8.46166 4.85099 8.51672 4.88923 8.56533 4.93784L9.94026 6.31277C10.1681 6.54057 10.1681 6.90992 9.94026 7.13772C9.71245 7.36553 9.3431 7.36553 9.1153 7.13772L8.58874 6.61117Z" fill="#333333"/>
</svg>
