<svg width="14" height="14" viewBox="0 0 14 14" fill="none" xmlns="http://www.w3.org/2000/svg">
<path fill-rule="evenodd" clip-rule="evenodd" d="M12.0556 5.16238V11.6669C12.0556 11.8817 11.8814 12.0558 11.6667 12.0558H2.33333C2.11856 12.0558 1.94445 11.8817 1.94445 11.6669V5.10566C1.94445 4.9731 2.01196 4.84968 2.12357 4.77819L6.45153 2.00592C6.57285 1.92821 6.7272 1.92394 6.85264 1.99483L11.858 4.82382C11.9801 4.89281 12.0556 5.02217 12.0556 5.16238ZM0.777779 5.10566C0.777779 4.57545 1.04783 4.08176 1.4943 3.79578L5.82225 1.02352C6.30755 0.712656 6.92495 0.695589 7.42668 0.979164L12.4321 3.80816C12.9203 4.08411 13.2222 4.60154 13.2222 5.16238V11.6669C13.2222 12.526 12.5258 13.2224 11.6667 13.2224H2.33333C1.47422 13.2224 0.777779 12.526 0.777779 11.6669V5.10566ZM7 6.80561C6.46306 6.80561 6.02778 7.24089 6.02778 7.77783C6.02778 8.31478 6.46306 8.75005 7 8.75005C7.53694 8.75005 7.97222 8.31478 7.97222 7.77783C7.97222 7.24089 7.53694 6.80561 7 6.80561ZM4.86111 7.77783C4.86111 6.59656 5.81873 5.63894 7 5.63894C8.18128 5.63894 9.13889 6.59656 9.13889 7.77783C9.13889 8.14421 9.04677 8.48906 8.88444 8.79051L9.61213 9.51821C9.83994 9.74601 9.83994 10.1154 9.61213 10.3432C9.38433 10.571 9.01498 10.571 8.78717 10.3432L8.0727 9.62869C7.75736 9.81184 7.39093 9.91672 7 9.91672C5.81873 9.91672 4.86111 8.95911 4.86111 7.77783Z" fill="#1890FF"/>
</svg>
