<svg width="24" height="24" viewBox="0 0 24 24" fill="none" xmlns="http://www.w3.org/2000/svg">
<ellipse cx="11.8235" cy="12" rx="11.8235" ry="12" fill="url(#paint0_linear)"/>
<path d="M9.22062 10.4031C9.22062 9.62969 9.84694 9.00544 10.6197 9.00544C11.3924 9.00544 12.0188 9.63106 12.0188 10.4024C12.0188 10.7735 11.8713 11.1293 11.609 11.3917C11.3466 11.6541 10.9907 11.8015 10.6197 11.8015C10.2486 11.8015 9.89278 11.6541 9.6304 11.3917C9.36803 11.1293 9.22062 10.7742 9.22062 10.4031ZM18 7.89856V17.1001C18 17.5964 17.5971 17.9993 17.1007 17.9993H7.89925C7.66087 17.9993 7.43225 17.9047 7.26363 17.7362C7.095 17.5677 7.00018 17.3391 7 17.1007V7.89925C7 7.40287 7.40287 7 7.89925 7H17.1007C17.3391 7.00036 17.5677 7.09522 17.7362 7.26379C17.9048 7.43235 17.9996 7.66018 18 7.89856ZM17.0774 7.92262H7.924V16.35L10.289 13.2459C10.3643 13.1583 10.47 13.1025 10.5848 13.0897C10.6997 13.077 10.8151 13.1082 10.9078 13.1772L12.7124 14.7818L16.2689 10.1164C16.3442 10.0288 16.4499 9.97298 16.5647 9.96022C16.6795 9.94747 16.7949 9.97872 16.8876 10.0477L17.0774 10.2161V7.92262Z" fill="white"/>
<defs>
<linearGradient id="paint0_linear" x1="15.3929" y1="-2.26415" x2="11.7182" y2="23.9853" gradientUnits="userSpaceOnUse">
<stop stop-color="#636B74"/>
</linearGradient>
</defs>
</svg>
