<svg width="14" height="14" viewBox="0 0 14 14" fill="none" xmlns="http://www.w3.org/2000/svg">
<circle cx="7" cy="7" r="7" fill="url(#paint0_linear)"/>
<path d="M9.33333 5.09098H8.6758C9.03888 5.09098 9.33332 4.80604 9.33332 4.45462V3.81826C9.33332 3.46674 9.03888 3.18188 8.6758 3.18188H5.3879C5.02481 3.18188 4.73036 3.46673 4.73036 3.81826V4.45462C4.73036 4.80605 5.02481 5.09098 5.38789 5.09098H4.73036C4.36719 5.09098 4.07275 5.37592 4.07275 5.72734V10.1819C4.07275 10.5333 4.36719 10.8182 4.73036 10.8182H9.33333C9.6965 10.8182 9.99094 10.5333 9.99094 10.1819V5.72734C9.99094 5.37591 9.69649 5.09099 9.33332 5.09099L9.33333 5.09098ZM8.01826 8.90917H7.35176V9.54554C7.35176 9.72126 7.21344 9.86373 7.03185 9.86373C6.85035 9.86373 6.70303 9.72126 6.70303 9.54554V8.90917H6.04551C5.86392 8.90917 5.7167 8.7667 5.7167 8.59098C5.7167 8.41527 5.86392 8.27281 6.04551 8.27281H6.70303V7.63642C6.70303 7.4607 6.85033 7.31825 7.03185 7.31825C7.21344 7.31825 7.35176 7.4607 7.35176 7.63642V8.27281H8.01827C8.19977 8.27281 8.347 8.41527 8.347 8.59098C8.347 8.7667 8.19977 8.90916 8.01827 8.90916L8.01826 8.90917ZM9.43112 6.68189H4.63258V5.72734H9.43112V6.68189Z" fill="white"/>
<defs>
<linearGradient id="paint0_linear" x1="9.11321" y1="-1.32075" x2="7" y2="14" gradientUnits="userSpaceOnUse">
<stop stop-color="#FF7D7D"/>
</linearGradient>
</defs>
</svg>
