<svg width="17" height="16" viewBox="0 0 17 16" fill="none" xmlns="http://www.w3.org/2000/svg">
<path d="M14.732 9.55896C14.5941 9.55896 14.4618 9.61375 14.3643 9.71127C14.2668 9.80879 14.212 9.94105 14.212 10.079V12.676C14.212 13.25 13.748 13.714 13.174 13.714H3.827C3.55161 13.714 3.28749 13.6046 3.09267 13.41C2.89785 13.2154 2.78827 12.9513 2.788 12.676V3.32696C2.78826 3.05148 2.89782 2.78736 3.09261 2.59257C3.2874 2.39778 3.55152 2.28823 3.827 2.28796H6.424C6.55784 2.28209 6.68424 2.22479 6.77687 2.12801C6.8695 2.03123 6.9212 1.90243 6.9212 1.76846C6.9212 1.6345 6.8695 1.5057 6.77687 1.40892C6.68424 1.31214 6.55784 1.25484 6.424 1.24896H3.827C3.27613 1.24949 2.748 1.46863 2.35857 1.85824C1.96914 2.24785 1.75026 2.7761 1.75 3.32696V12.675C1.75 13.821 2.68 14.752 3.827 14.752H13.175C13.7258 14.7517 14.2539 14.5328 14.6434 14.1433C15.0328 13.7539 15.2517 13.2257 15.252 12.675V10.078C15.2517 9.94022 15.1968 9.80822 15.0993 9.71091C15.0019 9.61361 14.8697 9.55896 14.732 9.55896Z" fill="#FFFFFF"/>
<path d="M14.2129 1.25H10.4899C10.4216 1.25 10.354 1.26345 10.2909 1.28958C10.2278 1.31572 10.1705 1.35402 10.1222 1.4023C10.0739 1.45059 10.0356 1.50792 10.0095 1.571C9.98332 1.63409 9.96987 1.70171 9.96987 1.77C9.96987 1.83829 9.98332 1.90591 10.0095 1.969C10.0356 2.03208 10.0739 2.08941 10.1222 2.1377C10.1705 2.18598 10.2278 2.22429 10.2909 2.25042C10.354 2.27655 10.4216 2.29 10.4899 2.29H11.5609L13.4559 2.289L5.88887 9.854L5.89087 9.856C5.79544 9.95687 5.74314 10.091 5.74511 10.2299C5.74708 10.3687 5.80316 10.5013 5.90142 10.5994C5.99968 10.6976 6.13235 10.7535 6.2712 10.7553C6.41006 10.757 6.54412 10.7046 6.64487 10.609L6.64687 10.612L14.2119 3.047L14.2109 4.855V5.93C14.2109 6.06805 14.2657 6.20044 14.3633 6.29805C14.4609 6.39566 14.5933 6.4505 14.7314 6.4505C14.8694 6.4505 15.0018 6.39566 15.0994 6.29805C15.197 6.20044 15.2519 6.06805 15.2519 5.93V2.289C15.2519 1.715 14.7869 1.25 14.2129 1.25Z" fill="#FFFFFF"/>
</svg>
