<svg width="14" height="14" viewBox="0 0 14 14" fill="none" xmlns="http://www.w3.org/2000/svg">
<circle cx="7" cy="7" r="7" fill="#0AC29C"/>
<path d="M9.99943 5V4.90457C9.99944 4.80559 9.9602 4.71065 9.8903 4.64057L8.36073 3.10914C8.32574 3.07448 8.28427 3.04705 8.23869 3.02842C8.1931 3.00979 8.14429 3.00033 8.09504 3.00057H7.99962V5.00057H9.99943V5ZM9.62518 11C9.67442 11.0001 9.7232 10.9904 9.7687 10.9716C9.81421 10.9528 9.85556 10.9252 9.89038 10.8904C9.9252 10.8556 9.95281 10.8142 9.97162 10.7687C9.99043 10.7232 10.0001 10.6744 10 10.6251V5.5H7.87506C7.77564 5.49985 7.68034 5.46033 7.60999 5.39008C7.53963 5.31983 7.49997 5.22457 7.49967 5.12514V3H4.37539C4.32605 2.99985 4.27717 3.00946 4.23156 3.02827C4.18595 3.04709 4.1445 3.07473 4.10962 3.10963C4.07473 3.14452 4.04708 3.18596 4.02827 3.23158C4.00946 3.2772 3.99985 3.32609 4 3.37543V10.6251C4 10.8331 4.16741 11 4.37539 11H9.62461H9.62518ZM7.37568 9.5H6.62489C6.59175 9.49985 6.56001 9.48662 6.53658 9.46318C6.51314 9.43974 6.49991 9.408 6.49976 9.37486V8.50057H5.62556C5.59232 8.50042 5.5605 8.48711 5.53704 8.46355C5.51359 8.43999 5.50043 8.4081 5.50043 8.37486V7.62514C5.50058 7.592 5.51381 7.56026 5.53725 7.53682C5.56068 7.51338 5.59242 7.50015 5.62556 7.5H6.49976V6.62514C6.49991 6.592 6.51314 6.56026 6.53658 6.53682C6.56001 6.51338 6.59175 6.50015 6.62489 6.5H7.37511C7.40815 6.5003 7.43974 6.5136 7.46305 6.53702C7.48637 6.56044 7.49952 6.5921 7.49967 6.62514V7.5H8.37444C8.40768 7.5 8.43957 7.51317 8.46312 7.53662C8.48668 7.56007 8.49999 7.5919 8.50014 7.62514V8.37486C8.50014 8.4082 8.4869 8.44018 8.46333 8.46375C8.43975 8.48733 8.40778 8.50057 8.37444 8.50057H7.50024V9.37486C7.50024 9.4082 7.487 9.44017 7.46342 9.46375C7.43985 9.48733 7.40787 9.50057 7.37454 9.50057L7.37568 9.5Z" fill="white"/>
</svg>
