<svg width="24" height="24" viewBox="0 0 24 24" fill="none" xmlns="http://www.w3.org/2000/svg">
<circle cx="12" cy="12" r="12" fill="url(#paint0_linear_1236_15700)"/>
<path fill-rule="evenodd" clip-rule="evenodd" d="M17.4546 12.3894C17.4546 10.02 15.8984 8.00881 13.7383 7.29373C13.6199 6.43954 12.8868 5.78186 12 5.78186C11.1133 5.78186 10.3801 6.43954 10.2618 7.29371C8.1016 8.00879 6.54547 10.02 6.54547 12.3894V12.5498C6.54547 15.518 8.98756 17.9241 12 17.9241C15.0125 17.9241 17.4546 15.518 17.4546 12.5498V12.3894ZM12.0001 8.1534C12.3144 8.1534 12.5692 7.89857 12.5692 7.58423C12.5692 7.26988 12.3144 7.01506 12.0001 7.01506C11.6857 7.01506 11.4309 7.26988 11.4309 7.58423C11.4309 7.89857 11.6857 8.1534 12.0001 8.1534Z" fill="white"/>
<rect x="11.4546" y="14.4" width="4.90909" height="1.09091" transform="rotate(-90 11.4546 14.4)" fill="#00CCA8"/>
<rect x="11.8857" y="13.3091" width="2.76815" height="1.17614" transform="rotate(21.5 11.8857 13.3091)" fill="#00CCA8"/>
<defs>
<linearGradient id="paint0_linear_1236_15700" x1="15.6226" y1="-2.26415" x2="12" y2="24" gradientUnits="userSpaceOnUse">
<stop stop-color="#00CCA8"/>
</linearGradient>
</defs>
</svg>
