<svg width="16" height="16" viewBox="0 0 16 16" fill="none" xmlns="http://www.w3.org/2000/svg">
<circle cx="8" cy="8" r="8" fill="#78909C"/>
<path d="M9.42445 10.1317L8.01024 11.546C7.03393 12.5223 5.45101 12.5223 4.4747 11.546C3.49839 10.5696 3.49839 8.98673 4.4747 8.01042L5.88892 6.59621L9.42445 10.1317Z" stroke="white" stroke-linecap="round" stroke-linejoin="round"/>
<mask id="path-3-inside-1" fill="white">
<path d="M11.0145 9.24887L11.8994 8.36396C13.071 7.19239 13.071 5.29289 11.8994 4.12132C10.7278 2.94975 8.82833 2.94975 7.65675 4.12132L6.77185 5.00623L11.0145 9.24887Z"/>
</mask>
<path d="M11.0145 9.24887L11.8994 8.36396C13.071 7.19239 13.071 5.29289 11.8994 4.12132C10.7278 2.94975 8.82833 2.94975 7.65675 4.12132L6.77185 5.00623L11.0145 9.24887Z" fill="white"/>
<path d="M11.0145 9.24887L10.3074 9.95597C10.6979 10.3465 11.3311 10.3465 11.7216 9.95597L11.0145 9.24887ZM6.77185 5.00623L6.06474 4.29912C5.67422 4.68964 5.67422 5.32281 6.06474 5.71333L6.77185 5.00623ZM11.1923 7.65685L10.3074 8.54176L11.7216 9.95597L12.6065 9.07107L11.1923 7.65685ZM7.47896 5.71333L8.36386 4.82843L6.94965 3.41421L6.06474 4.29912L7.47896 5.71333ZM11.7216 8.54176L7.47896 4.29912L6.06474 5.71333L10.3074 9.95597L11.7216 8.54176ZM11.1923 4.82843C11.9733 5.60948 11.9733 6.87581 11.1923 7.65685L12.6065 9.07107C14.1686 7.50897 14.1686 4.97631 12.6065 3.41421L11.1923 4.82843ZM12.6065 3.41421C11.0444 1.85212 8.51174 1.85212 6.94965 3.41421L8.36386 4.82843C9.14491 4.04738 10.4112 4.04738 11.1923 4.82843L12.6065 3.41421Z" fill="white" mask="url(#path-3-inside-1)"/>
<path d="M10.346 6.39945C10.1508 6.59472 10.1508 6.9113 10.346 7.10656C10.5413 7.30182 10.8579 7.30182 11.0531 7.10656L10.346 6.39945ZM11.4068 4.64645C11.2115 4.45118 10.8949 4.45118 10.6997 4.64645C10.5044 4.84171 10.5044 5.15829 10.6997 5.35355L11.4068 4.64645ZM10.6997 6.04581L10.346 6.39945L11.0531 7.10656L11.4068 6.75292L10.6997 6.04581ZM10.6997 5.35355C10.8908 5.54472 10.8908 5.85465 10.6997 6.04581L11.4068 6.75292C11.9885 6.17123 11.9885 5.22813 11.4068 4.64645L10.6997 5.35355Z" fill="#78909C"/>
<path d="M3.5 4L12.5 13" stroke="white"/>
</svg>
