<svg width="14" height="14" viewBox="0 0 14 14" fill="none" xmlns="http://www.w3.org/2000/svg">
<path d="M6.99998 0.583344C3.44165 0.583344 0.583313 3.44168 0.583313 7.00001C0.583313 10.5583 3.44165 13.4167 6.99998 13.4167C10.5583 13.4167 13.4166 10.5583 13.4166 7.00001C13.4166 3.44168 10.5583 0.583344 6.99998 0.583344ZM9.44998 6.24168V7.17501H7.75831V7.87501H9.44998V8.80834H7.75831V10.5H6.29998V8.80834H4.54998V7.87501H6.29998V7.17501H4.54998V6.24168H5.94998L4.08331 3.50001H5.65831C6.35831 4.95834 6.82498 5.54168 6.99998 6.00834H7.05831C7.05831 5.95001 7.11665 6.18334 7.11665 6.12501C7.17498 5.95001 7.40831 5.48334 7.81665 4.72501L8.39998 3.55834H9.91665L8.04998 6.30001H9.44998V6.24168Z" fill="#F58722"/>
</svg>
