<svg width="16" height="16" viewBox="0 0 16 16" fill="none" xmlns="http://www.w3.org/2000/svg">
<g clip-path="url(#clip0)">
<path d="M3.2 0H12.8C14.9333 0 16 1.06667 16 3.2V12.8C16 14.9333 14.9333 16 12.8 16H3.2C1.06667 16 0 14.9333 0 12.8V3.2C0 1.06667 1.06667 0 3.2 0V0Z" fill="#4FA4F3"/>
<path d="M4.20001 10.4016H3.54161V5.93839C3.35262 6.12328 3.14266 6.28545 2.91601 6.42159C2.65841 6.58239 2.42801 6.70239 2.22241 6.78239V6.10479C2.59121 5.92079 2.91361 5.69679 3.18881 5.43599C3.46481 5.17359 3.66001 4.91999 3.77521 4.67359H4.20001V10.4016ZM9.35201 9.72879V10.4H5.80481C5.79921 10.232 5.82561 10.0696 5.88241 9.91439C5.9832 9.63873 6.12979 9.38205 6.31601 9.15519C6.51441 8.90719 6.80241 8.61919 7.17841 8.29119C7.76241 7.78319 8.15601 7.38079 8.36081 7.08399C8.56561 6.78639 8.66801 6.50639 8.66801 6.24159C8.66801 5.96399 8.57441 5.73039 8.38801 5.53919C8.20241 5.34879 7.95841 5.25279 7.65841 5.25279C7.34081 5.25279 7.08721 5.35439 6.89681 5.55679C6.70721 5.75919 6.60881 6.03919 6.60881 6.39679L5.93121 6.32319C5.97681 5.78719 6.15201 5.37679 6.45441 5.09519C6.75681 4.81439 7.16321 4.67279 7.67441 4.67279C8.18961 4.67279 8.59681 4.82479 8.89841 5.12799C9.19841 5.43199 9.34801 5.80799 9.34801 6.25599C9.34801 6.48559 9.30481 6.70879 9.21681 6.92879C9.12881 7.14879 8.98321 7.38159 8.77921 7.62479C8.57601 7.86879 8.23681 8.20399 7.76321 8.62879C7.36801 8.98159 7.11361 9.22159 7.00241 9.34639C6.88961 9.47279 6.79681 9.59919 6.72321 9.72559H9.35361V9.72799L9.35201 9.72879ZM10.0624 8.89679L10.7216 8.80239C10.7976 9.19839 10.9264 9.48479 11.1072 9.65999C11.2888 9.83519 11.5112 9.92239 11.7728 9.92239C12.0824 9.92239 12.344 9.80879 12.5568 9.57999C12.7712 9.35119 12.8768 9.06799 12.8768 8.73199C12.8768 8.41199 12.7784 8.14639 12.5808 7.93759C12.4845 7.83483 12.3674 7.75373 12.2373 7.69967C12.1073 7.6456 11.9672 7.6198 11.8264 7.62399C11.7016 7.62399 11.5464 7.65039 11.3616 7.70159L11.4352 7.08559C11.4784 7.09119 11.5136 7.09359 11.5416 7.09359C11.8224 7.09359 12.0752 7.01599 12.2984 6.85999C12.524 6.70479 12.636 6.46479 12.636 6.13999C12.636 5.88399 12.5552 5.66959 12.3912 5.50239C12.2272 5.33439 12.016 5.24959 11.7576 5.24959C11.5016 5.24959 11.2872 5.33519 11.116 5.50559C10.9448 5.67759 10.8352 5.93359 10.7864 6.27599L10.1272 6.15119C10.2072 5.68159 10.3912 5.31919 10.676 5.05999C10.9624 4.80239 11.3176 4.67279 11.7424 4.67279C12.0352 4.67279 12.3048 4.73839 12.5512 4.87279C12.7976 5.00639 12.9864 5.18879 13.1176 5.41839C13.2472 5.65039 13.3136 5.89519 13.3136 6.15439C13.3136 6.39999 13.2512 6.62479 13.1272 6.82639C12.9935 7.03696 12.8018 7.20447 12.5752 7.30879C12.8928 7.38639 13.1384 7.54719 13.3152 7.79279C13.4912 8.03759 13.5792 8.34399 13.5792 8.71279C13.5792 9.20959 13.4072 9.63279 13.0664 9.97839C12.7248 10.3248 12.2928 10.4976 11.7704 10.4976C11.2984 10.4976 10.9072 10.3488 10.596 10.0496C10.2848 9.75759 10.108 9.36959 10.0624 8.89599V8.89679Z" fill="white"/>
</g>
<defs>
<clipPath id="clip0">
<rect width="16" height="16" fill="white"/>
</clipPath>
</defs>
</svg>
