<svg width="16" height="16" viewBox="0 0 16 16" fill="none" xmlns="http://www.w3.org/2000/svg">
<g clip-path="url(#clip0)">
<circle cx="8" cy="8" r="8" fill="#47C3DF"/>
<mask id="path-2-inside-1" fill="white">
<path d="M4.12132 8.36394C2.94975 7.19236 2.94975 5.29287 4.12132 4.12129C5.29289 2.94972 7.19239 2.94972 8.36396 4.12129L10.1317 5.88906L11.8995 7.65683C13.0711 8.8284 13.0711 10.7279 11.8995 11.8995C10.7279 13.071 8.82843 13.071 7.65685 11.8995L5.88909 10.1317L4.12132 8.36394Z"/>
</mask>
<path d="M10.4853 6.24261C10.6805 6.04735 10.6805 5.73077 10.4853 5.53551C10.29 5.34025 9.97344 5.34025 9.77817 5.53551L10.4853 6.24261ZM5.53553 9.77815C5.34027 9.97341 5.34027 10.29 5.53553 10.4853C5.7308 10.6805 6.04738 10.6805 6.24264 10.4853L5.53553 9.77815ZM7.28854 6.59625C7.4838 6.79152 7.80039 6.79152 7.99565 6.59625C8.19091 6.40099 8.19091 6.08441 7.99565 5.88915L7.28854 6.59625ZM9.77817 5.53551L5.53553 9.77815L6.24264 10.4853L10.4853 6.24261L9.77817 5.53551ZM6.9349 6.24261L7.28854 6.59625L7.99565 5.88915L7.64201 5.53551L6.9349 6.24261ZM6.24264 6.24261C6.4338 6.05145 6.74374 6.05145 6.9349 6.24261L7.64201 5.53551C7.06032 4.95382 6.11722 4.95382 5.53553 5.53551L6.24264 6.24261ZM7.65685 4.8284L9.42462 6.59617L10.8388 5.18195L9.07107 3.41419L7.65685 4.8284ZM9.42462 6.59617L11.1924 8.36394L12.6066 6.94972L10.8388 5.18195L9.42462 6.59617ZM8.36396 11.1924L6.59619 9.4246L5.18198 10.8388L6.94975 12.6066L8.36396 11.1924ZM6.59619 9.4246L4.82843 7.65683L3.41421 9.07104L5.18198 10.8388L6.59619 9.4246ZM11.1924 11.1924C10.4113 11.9734 9.14501 11.9734 8.36396 11.1924L6.94975 12.6066C8.51184 14.1687 11.0445 14.1687 12.6066 12.6066L11.1924 11.1924ZM12.6066 12.6066C14.1687 11.0445 14.1687 8.51182 12.6066 6.94972L11.1924 8.36394C11.9734 9.14498 11.9734 10.4113 11.1924 11.1924L12.6066 12.6066ZM4.82843 4.8284C5.60948 4.04735 6.87581 4.04735 7.65685 4.8284L9.07107 3.41419C7.50897 1.85209 4.97631 1.85209 3.41421 3.41419L4.82843 4.8284ZM3.41421 3.41419C1.85212 4.97628 1.85212 7.50894 3.41421 9.07104L4.82843 7.65683C4.04738 6.87578 4.04738 5.60945 4.82843 4.8284L3.41421 3.41419Z" fill="white" mask="url(#path-2-inside-1)"/>
<mask id="path-4-inside-2" fill="white">
<path d="M10.1317 5.88906L8.36396 4.12129C7.19239 2.94972 5.29289 2.94972 4.12132 4.12129C2.94975 5.29287 2.94975 7.19236 4.12132 8.36394L5.88909 10.1317L10.1317 5.88906Z"/>
</mask>
<path d="M10.1317 5.88906L8.36396 4.12129C7.19239 2.94972 5.29289 2.94972 4.12132 4.12129C2.94975 5.29287 2.94975 7.19236 4.12132 8.36394L5.88909 10.1317L10.1317 5.88906Z" fill="white"/>
<path d="M10.1317 5.88906L10.8388 6.59617C11.2294 6.20564 11.2294 5.57248 10.8388 5.18195L10.1317 5.88906ZM5.88909 10.1317L5.18198 10.8388C5.5725 11.2293 6.20567 11.2293 6.59619 10.8388L5.88909 10.1317ZM7.65685 4.8284L9.42462 6.59617L10.8388 5.18195L9.07107 3.41419L7.65685 4.8284ZM6.59619 9.4246L4.82843 7.65683L3.41421 9.07104L5.18198 10.8388L6.59619 9.4246ZM9.42462 5.18195L5.18198 9.4246L6.59619 10.8388L10.8388 6.59617L9.42462 5.18195ZM4.82843 4.8284C5.60948 4.04735 6.87581 4.04735 7.65685 4.8284L9.07107 3.41419C7.50897 1.85209 4.97631 1.85209 3.41421 3.41419L4.82843 4.8284ZM3.41421 3.41419C1.85212 4.97628 1.85212 7.50894 3.41421 9.07104L4.82843 7.65683C4.04738 6.87578 4.04738 5.60945 4.82843 4.8284L3.41421 3.41419Z" fill="white" mask="url(#path-4-inside-2)"/>
<path d="M7.28861 6.59623C7.48388 6.79149 7.80046 6.79149 7.99572 6.59623C8.19098 6.40097 8.19098 6.08439 7.99572 5.88912L7.28861 6.59623ZM5.53561 5.53548C5.34034 5.73075 5.34034 6.04733 5.53561 6.24259C5.73087 6.43785 6.04745 6.43785 6.24271 6.24259L5.53561 5.53548ZM6.93497 6.24259L7.28861 6.59623L7.99572 5.88912L7.64208 5.53548L6.93497 6.24259ZM6.24271 6.24259C6.43388 6.05143 6.74381 6.05143 6.93497 6.24259L7.64208 5.53548C7.06039 4.9538 6.11729 4.9538 5.53561 5.53548L6.24271 6.24259Z" fill="#47C3DF"/>
</g>
<defs>
<clipPath id="clip0">
<rect width="16" height="16" fill="white"/>
</clipPath>
</defs>
</svg>
