<svg width="14" height="14" viewBox="0 0 14 14" fill="none" xmlns="http://www.w3.org/2000/svg">
<path d="M7.00004 0.583496C3.44171 0.583496 0.583374 3.44183 0.583374 7.00016C0.583374 10.5585 3.44171 13.4168 7.00004 13.4168C10.5584 13.4168 13.4167 10.5585 13.4167 7.00016C13.4167 3.44183 10.5584 0.583496 7.00004 0.583496Z" fill="#52C41A"/>
<path d="M10.123 3.592H6.82C6.973 3.322 7.099 3.034 7.189 2.719L6.235 2.584C6.145 2.926 6.001 3.268 5.821 3.592H3.877V10.936H4.831V10.45H9.169V10.936H10.123V3.592ZM4.831 9.559V8.38H9.169V9.559H4.831ZM4.831 7.516V6.409H9.169V7.516H4.831ZM4.831 5.545V4.492H9.169V5.545H4.831Z" fill="white"/>
</svg>
