<svg width="14" height="14" viewBox="0 0 14 14" fill="none" xmlns="http://www.w3.org/2000/svg">
<path fill-rule="evenodd" clip-rule="evenodd" d="M4.47228 0.777832C4.15011 0.777832 3.88894 1.039 3.88894 1.36117C3.88894 1.68333 4.15011 1.9445 4.47228 1.9445H9.52783C9.85 1.9445 10.1112 1.68333 10.1112 1.36117C10.1112 1.039 9.85 0.777832 9.52783 0.777832H4.47228ZM11.6667 3.88894H2.33339C2.11861 3.88894 1.9445 4.06305 1.9445 4.27783V11.2778C1.9445 11.4926 2.11861 11.6667 2.33339 11.6667H11.6667C11.8815 11.6667 12.0556 11.4926 12.0556 11.2778V4.27783C12.0556 4.06305 11.8815 3.88894 11.6667 3.88894ZM2.33339 2.72228C1.47428 2.72228 0.777832 3.41872 0.777832 4.27783V11.2778C0.777832 12.1369 1.47428 12.8334 2.33339 12.8334H11.6667C12.5258 12.8334 13.2223 12.1369 13.2223 11.2778V4.27783C13.2223 3.41872 12.5258 2.72228 11.6667 2.72228H2.33339ZM6.54438 6.22228L6.81937 6.49726C6.88224 6.56014 6.98418 6.56014 7.04706 6.49726L7.32204 6.22228L7.59703 5.94729C7.7489 5.79542 7.99513 5.79542 8.147 5.94729C8.29887 6.09916 8.29887 6.34539 8.147 6.49726L7.87202 6.77225L7.59703 7.04723L7.53041 7.11386C7.50433 7.13994 7.50433 7.18222 7.53041 7.2083C7.54293 7.22082 7.55992 7.22786 7.57763 7.22786H8.16672C8.3815 7.22786 8.55561 7.40197 8.55561 7.61675C8.55561 7.83153 8.3815 8.00564 8.16672 8.00564H7.51857C7.44698 8.00564 7.38894 8.06368 7.38894 8.13527V8.65379C7.38894 8.72538 7.44698 8.78342 7.51857 8.78342H8.16672C8.3815 8.78342 8.55561 8.95753 8.55561 9.17231C8.55561 9.38708 8.3815 9.56119 8.16672 9.56119H7.51857C7.44698 9.56119 7.38894 9.61923 7.38894 9.69082V10.339C7.38894 10.5537 7.21483 10.7279 7.00005 10.7279C6.78528 10.7279 6.61117 10.5537 6.61117 10.339V9.69082C6.61117 9.61923 6.55313 9.56119 6.48154 9.56119H5.83339C5.61861 9.56119 5.4445 9.38708 5.4445 9.17231C5.4445 8.95753 5.61861 8.78342 5.83339 8.78342H6.48154C6.55313 8.78342 6.61117 8.72538 6.61117 8.65379V8.13527C6.61117 8.06368 6.55313 8.00564 6.48154 8.00564H5.83339C5.61861 8.00564 5.4445 7.83153 5.4445 7.61675C5.4445 7.40197 5.61861 7.22786 5.83339 7.22786H6.2888C6.30651 7.22786 6.3235 7.22082 6.33602 7.2083C6.3621 7.18222 6.3621 7.13994 6.33602 7.11386L6.2694 7.04723L5.99441 6.77225L5.71943 6.49726C5.56756 6.34539 5.56756 6.09916 5.71943 5.94729C5.8713 5.79542 6.11753 5.79542 6.2694 5.94729L6.54438 6.22228Z" fill="black"/>
</svg>
