<svg width="14" height="14" viewBox="0 0 14 14" fill="none" xmlns="http://www.w3.org/2000/svg">
<path d="M12.574 12.2521V13.222H1.55566V12.2524L12.574 12.2521ZM7.04951 0.777832C8.60089 0.777832 9.70064 1.65515 9.9013 3.14171C10.0156 3.99077 9.73383 4.81727 9.02788 5.6531C8.89509 5.82555 8.79941 6.02361 8.74685 6.23482C8.69429 6.44603 8.68599 6.66583 8.72248 6.88041C8.73804 7.08284 8.82353 7.27355 8.9643 7.41985C9.10506 7.56615 9.29234 7.65893 9.49402 7.68228L9.54587 7.68384H11.4384L12.3686 11.121H1.7291L2.66009 7.68384H4.55264C4.9537 7.68384 5.28373 7.38958 5.37629 6.88015C5.41273 6.66573 5.40446 6.4461 5.352 6.23503C5.29953 6.02396 5.204 5.82602 5.07141 5.65362C4.3652 4.81701 4.08287 3.99051 4.19772 3.14145C4.39812 1.65489 5.4984 0.777832 7.04951 0.777832ZM7.04951 1.74744C5.96609 1.74744 5.29177 2.28539 5.15877 3.27134C5.08307 3.83158 5.27388 4.39002 5.81235 5.02804C6.03746 5.30949 6.20012 5.63562 6.28952 5.98476C6.37891 6.3339 6.39301 6.69807 6.33086 7.05307C6.27733 7.47587 6.07809 7.86679 5.76745 8.15855C5.45681 8.45032 5.05418 8.62468 4.62886 8.65163L4.55368 8.65319H3.40311L2.99712 10.1509H11.1037L10.698 8.65319H9.5469C9.13644 8.6474 8.7402 8.50192 8.4235 8.24074C8.1068 7.97955 7.88855 7.61826 7.80472 7.2164L7.78527 7.13422L7.7692 7.05281C7.70717 6.69776 7.72132 6.33359 7.81071 5.98442C7.9001 5.63525 8.06269 5.30908 8.28771 5.02752C8.82618 4.38976 9.01699 3.83132 8.94129 3.27108C8.80777 2.28591 8.13345 1.74744 7.04951 1.74744Z" fill="black"/>
</svg>
