<svg width="14" height="14" viewBox="0 0 14 14" fill="none" xmlns="http://www.w3.org/2000/svg">
<path fill-rule="evenodd" clip-rule="evenodd" d="M6.74786 3.15516H8.60926L9.1085 2.5602L8.01618 1.64364L6.74786 3.15516ZM10.1322 3.15516H11.6667C12.5258 3.15516 13.2223 3.85161 13.2223 4.71072V6.26628V7.43294V8.9885V10.1552V11.7107C13.2223 12.5698 12.5258 13.2663 11.6667 13.2663H2.33339C1.47428 13.2663 0.777832 12.5698 0.777832 11.7107V4.71072C0.777832 3.85161 1.47428 3.15516 2.33339 3.15516H2.89555L5.16428 0.451402L5.53924 0.00454225L5.9861 0.379502L6.90615 1.15151L7.49742 0.446859L7.87238 0L8.31924 0.374959L10.3053 2.04144L10.7521 2.4164L10.3772 2.86326L10.1322 3.15516ZM12.0556 4.71072V6.26628H8.9445C7.87061 6.26628 7.00005 7.13683 7.00005 8.21072C7.00005 9.28461 7.87061 10.1552 8.9445 10.1552H12.0556V11.7107C12.0556 11.9255 11.8815 12.0996 11.6667 12.0996H2.33339C2.11861 12.0996 1.9445 11.9255 1.9445 11.7107V4.71072C1.9445 4.49594 2.11861 4.32183 2.33339 4.32183H11.6667C11.8815 4.32183 12.0556 4.49594 12.0556 4.71072ZM8.9445 7.43294H12.0556V8.9885H8.9445C8.51494 8.9885 8.16672 8.64028 8.16672 8.21072C8.16672 7.78117 8.51494 7.43294 8.9445 7.43294ZM4.41853 3.15516L5.68304 1.64818L6.15623 2.04523L5.22488 3.15516H4.41853ZM9.13894 8.75532C9.46111 8.75532 9.72228 8.49415 9.72228 8.17198C9.72228 7.84982 9.46111 7.58865 9.13894 7.58865C8.81678 7.58865 8.55561 7.84982 8.55561 8.17198C8.55561 8.49415 8.81678 8.75532 9.13894 8.75532Z" fill="black"/>
</svg>
