<svg width="14" height="14" viewBox="0 0 14 14" fill="none" xmlns="http://www.w3.org/2000/svg">
<path fill-rule="evenodd" clip-rule="evenodd" d="M1.55566 2.13894C1.55566 1.38722 2.16505 0.777832 2.91678 0.777832H7.58344C8.33516 0.777832 8.94455 1.38722 8.94455 2.13894V3.04046H10.6946C11.4463 3.04046 12.0557 3.64985 12.0557 4.40157V11.8965C12.0557 12.6482 11.4463 13.2576 10.6946 13.2576H7.58344H6.80566H2.91678C2.16505 13.2576 1.55566 12.6482 1.55566 11.8965V2.13894ZM6.80566 12.091H7.58344C7.69083 12.091 7.77789 12.0039 7.77789 11.8965V10.8241H8.94455V11.8965C8.94455 11.9625 8.93985 12.0275 8.93077 12.091H10.6946C10.8019 12.091 10.889 12.0039 10.889 11.8965V4.40157C10.889 4.29418 10.8019 4.20713 10.6946 4.20713H8.94455V5.20292H7.77789V2.13894C7.77789 2.03155 7.69083 1.9445 7.58344 1.9445H2.91678C2.80939 1.9445 2.72233 2.03155 2.72233 2.13894V11.8965C2.72233 12.0039 2.80939 12.091 2.91678 12.091H6.80566ZM5.67546 8.08166H9.33344C9.65561 8.08166 9.91678 8.34283 9.91678 8.665C9.91678 8.98716 9.65561 9.24833 9.33344 9.24833H4.27789C3.95572 9.24833 3.69455 8.98716 3.69455 8.665C3.69455 8.51267 3.75294 8.37399 3.84855 8.27009C3.87628 8.21646 3.91322 8.16616 3.95937 8.1214L5.32171 6.80035C5.55299 6.57608 5.92798 6.57608 6.15926 6.80035C6.39054 7.02462 6.39054 7.38825 6.15926 7.61252L5.67546 8.08166Z" fill="#2196F3"/>
</svg>
