<svg width="12" height="14" viewBox="0 0 12 14" fill="none" xmlns="http://www.w3.org/2000/svg">
<path fill-rule="evenodd" clip-rule="evenodd" d="M0.555664 2.13894C0.555664 1.38722 1.16505 0.777832 1.91678 0.777832H6.58344C7.33516 0.777832 7.94455 1.38722 7.94455 2.13894V3.04046H9.69455C10.4463 3.04046 11.0557 3.64985 11.0557 4.40157V11.8965C11.0557 12.6482 10.4463 13.2576 9.69455 13.2576H6.58344H5.80566H1.91678C1.16505 13.2576 0.555664 12.6482 0.555664 11.8965V2.13894ZM5.80566 12.091H6.58344C6.69083 12.091 6.77789 12.0039 6.77789 11.8965V10.8241H7.94455V11.8965C7.94455 11.9625 7.93985 12.0275 7.93077 12.091H9.69455C9.80194 12.091 9.889 12.0039 9.889 11.8965V4.40157C9.889 4.29418 9.80194 4.20713 9.69455 4.20713H7.94455V5.20292H6.77789V2.13894C6.77789 2.03155 6.69083 1.9445 6.58344 1.9445H1.91678C1.80939 1.9445 1.72233 2.03155 1.72233 2.13894V11.8965C1.72233 12.0039 1.80939 12.091 1.91678 12.091H5.80566ZM4.67546 8.08166H8.33344C8.65561 8.08166 8.91678 8.34283 8.91678 8.665C8.91678 8.98716 8.65561 9.24833 8.33344 9.24833H3.27789C2.95572 9.24833 2.69455 8.98716 2.69455 8.665C2.69455 8.51267 2.75294 8.37399 2.84855 8.27009C2.87628 8.21646 2.91322 8.16616 2.95937 8.1214L4.32171 6.80035C4.55299 6.57608 4.92798 6.57608 5.15926 6.80035C5.39054 7.02462 5.39054 7.38825 5.15926 7.61252L4.67546 8.08166Z" fill="black"/>
</svg>
