<svg width="14" height="14" viewBox="0 0 14 14" fill="none" xmlns="http://www.w3.org/2000/svg">
<path fill-rule="evenodd" clip-rule="evenodd" d="M1.55566 2.0977C1.55566 1.36876 2.16505 0.777832 2.91678 0.777832H7.58344C8.33516 0.777832 8.94455 1.36876 8.94455 2.0977V3.04046H10.6946C11.4463 3.04046 12.0557 3.63138 12.0557 4.36032V11.9024C12.0557 12.6314 11.4463 13.2223 10.6946 13.2223H7.58344H6.80566H2.91678C2.16505 13.2223 1.55566 12.6314 1.55566 11.9024V2.0977ZM6.80566 12.091H7.58344C7.69083 12.091 7.77789 12.0065 7.77789 11.9024V10.8065H8.94455V11.9024C8.94455 11.9664 8.93985 12.0294 8.93077 12.091H10.6946C10.8019 12.091 10.889 12.0065 10.889 11.9024V4.36032C10.889 4.25619 10.8019 4.17177 10.6946 4.17177H8.94455V5.18524H7.77789V2.0977C7.77789 1.99356 7.69083 1.90915 7.58344 1.90915H2.91678C2.80939 1.90915 2.72233 1.99356 2.72233 2.0977V11.9024C2.72233 12.0065 2.80939 12.091 2.91678 12.091H6.80566ZM7.97233 8.09919H4.27789C3.95572 8.09919 3.69455 8.35244 3.69455 8.66484C3.69455 8.97725 3.95572 9.2305 4.27789 9.2305H9.33344C9.65561 9.2305 9.91678 8.97725 9.91678 8.66484C9.91678 8.5159 9.85741 8.3804 9.76037 8.27939C9.73251 8.22242 9.69427 8.16903 9.64566 8.12189L8.27073 6.78863C8.04292 6.56772 7.67358 6.56772 7.44577 6.78863C7.21797 7.00953 7.21797 7.36768 7.44577 7.58859L7.97233 8.09919Z" fill="#2196F3"/>
</svg>
