<svg width="12" height="12" viewBox="0 0 12 12" fill="none" xmlns="http://www.w3.org/2000/svg">
<path d="M9.31496 5.55011H4.0028L5.11214 4.44095C5.14908 4.40422 5.17836 4.36052 5.1983 4.3124C5.21824 4.26427 5.22844 4.21267 5.2283 4.16058C5.2283 4.05468 5.18702 3.95508 5.11214 3.88014C5.03726 3.8052 4.93766 3.76392 4.83176 3.76392C4.72586 3.76392 4.62626 3.8052 4.55132 3.88008L2.71118 5.71967C2.67422 5.7564 2.64492 5.80011 2.62497 5.84825C2.60502 5.89638 2.59482 5.948 2.59496 6.00011C2.59496 6.10619 2.63624 6.20573 2.71118 6.28049L4.55132 8.12015C4.58807 8.15707 4.63177 8.18635 4.67989 8.20628C4.72802 8.22622 4.77961 8.23643 4.8317 8.23631C4.88381 8.23644 4.93543 8.22624 4.98357 8.20629C5.0317 8.18634 5.07541 8.15704 5.11214 8.12009C5.18636 8.04564 5.22803 7.9448 5.22803 7.83968C5.22803 7.73456 5.18636 7.63372 5.11214 7.55927L4.0028 6.45011H9.31496C9.56354 6.45011 9.76497 6.24869 9.76497 6.00011C9.76496 5.88077 9.71755 5.76631 9.63316 5.68191C9.54877 5.59752 9.43431 5.55011 9.31496 5.55011Z" fill="white" fill-opacity="0.65"/>
<path d="M5.99993 0.00292969C2.69315 0.00292969 0.00286865 2.69321 0.00286865 5.99999C0.00286865 9.30677 2.69315 11.9971 5.99993 11.9971C9.30671 11.9971 11.997 9.30677 11.997 5.99999C11.997 2.69321 9.30671 0.00292969 5.99993 0.00292969ZM5.99993 11.097C3.18941 11.097 0.902869 8.81051 0.902869 5.99999C0.902869 3.18947 3.18941 0.90293 5.99993 0.90293C8.81045 0.90293 11.097 3.18947 11.097 5.99999C11.097 8.81051 8.81045 11.097 5.99993 11.097Z" fill="white" fill-opacity="0.65"/>
</svg>
