<?xml version="1.0" standalone="no"?><!DOCTYPE svg PUBLIC "-//W3C//DTD SVG 1.1//EN" "http://www.w3.org/Graphics/SVG/1.1/DTD/svg11.dtd"><svg t="1592207979340" class="icon" viewBox="0 0 1024 1024" version="1.1" xmlns="http://www.w3.org/2000/svg" p-id="2914" id="mx_n_1592207979342" xmlns:xlink="http://www.w3.org/1999/xlink" width="32" height="32"><defs><style type="text/css"></style></defs><path d="M975.8 656v40.3c-4.4 2.1-4.2 6.8-5.4 10.5-14.1 43.9-43.6 71.7-87.5 84.7-3.2 1-7.5-0.2-9.3 4H145.7c-1.7-4.1-5.8-3.9-9-4.9-43.3-13.5-71.7-41.9-85.2-85.2-1-3.2-0.8-7.4-4.9-9v-412l15.6 3-0.1-0.1c0.2 7.8 6.6 11.5 11.3 15.8 65.8 60 131.9 119.9 197.8 179.9 59.8 54.4 119.4 109.2 179.3 163.5 36.6 33.2 89.9 31.9 126.2-1.6 31-28.7 62.1-57.3 94.6-84.3 13.2-11 22.8-27.2 41-31.9 59 29 117.9 58.3 177.1 87.1 28.5 13.8 57.5 26.8 86.4 40.2z" fill="#bfbfbf" p-id="2915"></path><path d="M145.6 175.9h727.9c4 4.8 10.2 4.2 15.4 5.9 30.7 10 53.9 29.1 70.6 56.8 7.5 12.4 9.2 27 16.3 39.5v6.2h-3c-18.6 7.4-32.1 22-47.4 33.8-119 92.1-237.5 184.8-356.5 276.8-36.8 28.4-79.1 27.8-115.5-0.8-107.7-84.7-215-170-322.7-254.7-22.6-17.7-43.3-37.9-68.6-52.2l0.1 0.1c-2.7-5.7-8-8.8-12.8-12.4 11.2-47.2 39.5-78.6 85.8-93.5 3.7-1.2 8.2-1.3 10.4-5.5z m133.3 123.9c30.9 0 61.9 0.3 92.8-0.1 25.7-0.3 46.4-21.1 46.5-46 0.2-24.9-20.4-46.5-45.9-46.6-62.4-0.4-124.8-0.4-187.1 0-15 0.1-28.1 6.3-36.8 19.3-10.9 16.4-12.4 33.2-1.9 50.8 9.8 16.4 24.6 22.6 42.7 22.6 29.9 0.1 59.8 0 89.7 0z m107.4 123.9c20.1 0 40.1 0.3 60.2-0.1 20.1-0.3 33.5-12.8 33.6-30.7 0.1-17.9-13.2-30.9-33.2-31.1-39.6-0.3-79.3-0.3-118.9 0-20.1 0.2-33.5 12.8-33.6 30.7-0.1 17.9 13.2 30.7 33.2 31.1 19.5 0.4 39.1 0.1 58.7 0.1z" fill="#bfbfbf" p-id="2916"></path><path d="M972.7 284.3h3V656c-28.8-13.4-57.9-26.4-86.5-40.3-59.2-28.8-118.1-58-177.1-87.1 1.4-7.2 7.2-11.1 12.1-15.6 16.1-14.4 32.4-28.5 48.6-42.9 30.8-27.3 61.4-54.8 92.2-82.1 32.7-29 65.6-57.8 98.3-86.8 5.3-4.5 10.2-9.2 9.4-16.9z" fill="#bfbfbf" p-id="2917"></path><path d="M46.5 275c1 0.1 1.9 0.1 2.8-0.1 4.8 3.6 10 6.7 12.8 12.4l-15.6-3V275zM972.7 284.3c0.8 7.7-4.2 12.4-9.2 16.9-32.8 29-65.6 57.8-98.3 86.8-30.8 27.3-61.5 54.8-92.2 82.1-16.2 14.4-32.5 28.5-48.6 42.9-4.9 4.4-10.7 8.4-12.1 15.6-18.2 4.7-27.8 20.9-41 31.9-32.5 26.9-63.6 55.6-94.6 84.3-36.3 33.5-89.6 34.8-126.2 1.6-59.9-54.3-119.5-109-179.3-163.5-65.9-60-131.9-119.8-197.8-179.9-4.8-4.3-11.1-8-11.3-15.8 25.3 14.2 46 34.4 68.6 52.2 107.7 84.7 215 170 322.7 254.7 36.4 28.6 78.6 29.2 115.5 0.8 119.1-92 237.5-184.7 356.5-276.8 15.3-11.8 28.8-26.4 47.3-33.8z" fill="#bfbfbf" p-id="2918"></path><path d="M278.9 299.8c-29.9 0-59.8 0.1-89.7 0-18.1-0.1-32.9-6.2-42.7-22.6-10.5-17.6-9-34.4 1.9-50.8 8.6-13 21.7-19.2 36.8-19.3 62.4-0.4 124.8-0.4 187.1 0 25.5 0.2 46 21.7 45.9 46.6-0.2 24.9-20.8 45.7-46.5 46-30.9 0.4-61.9 0.1-92.8 0.1zM386.3 423.7c-19.6 0-39.1 0.3-58.7-0.1-20-0.4-33.3-13.2-33.2-31.1 0.1-17.9 13.5-30.5 33.6-30.7 39.6-0.3 79.3-0.3 118.9 0 20 0.2 33.3 13.2 33.2 31.1-0.1 17.9-13.5 30.3-33.6 30.7-20.1 0.3-40.2 0.1-60.2 0.1z" fill="#bfbfbf" p-id="2919"></path></svg>