<?xml version="1.0" encoding="UTF-8"?>
<svg width="15px" height="15px" viewBox="0 0 15 15" version="1.1" xmlns="http://www.w3.org/2000/svg" xmlns:xlink="http://www.w3.org/1999/xlink">
    <!-- Generator: Sketch 60.1 (88133) - https://sketch.com -->
    <title>Group 140备份 2</title>
    <desc>Created with Sketch.</desc>
    <g id="页面-1" stroke="none" stroke-width="1" fill="none" fill-rule="evenodd" opacity="0.478050595">
        <g id="Group-140备份-2">
            <rect id="Rectangle-45" x="0" y="0" width="15" height="15"></rect>
            <g id="scan" transform="translate(0.937500, 0.937500)" fill="#FFFFFF" fill-rule="nonzero">
                <path d="M0.52734375,3.80859375 C0.818847656,3.80859375 1.0546875,3.57275391 1.0546875,3.28125 L1.0546875,1.0546875 L3.28125,1.0546875 C3.57275391,1.0546875 3.80859375,0.818847656 3.80859375,0.52734375 C3.80859375,0.235839844 3.57275391,0 3.28125,0 L1.0546875,0 C0.473144531,0 0,0.473144531 0,1.0546875 L0,3.28125 C0,3.57275391 0.235839844,3.80859375 0.52734375,3.80859375 Z M3.5625,6.0625 L9.5625,6.0625 C9.83864237,6.0625 10.0625,6.28635763 10.0625,6.5625 C10.0625,6.83864237 9.83864237,7.0625 9.5625,7.0625 L3.5625,7.0625 C3.28635763,7.0625 3.0625,6.83864237 3.0625,6.5625 C3.0625,6.28635763 3.28635763,6.0625 3.5625,6.0625 Z M3.28125,12.0703125 L1.0546875,12.0703125 L1.0546875,9.84375 C1.0546875,9.55224609 0.818847656,9.31640625 0.52734375,9.31640625 C0.235839844,9.31640625 0,9.55224609 0,9.84375 L0,12.0703125 C0,12.6518555 0.473144531,13.125 1.0546875,13.125 L3.28125,13.125 C3.57275391,13.125 3.80859375,12.8891602 3.80859375,12.5976562 C3.80859375,12.3061523 3.57275391,12.0703125 3.28125,12.0703125 Z M12.0703125,0 L9.84375,0 C9.55224609,0 9.31640625,0.235839844 9.31640625,0.52734375 C9.31640625,0.818847656 9.55224609,1.0546875 9.84375,1.0546875 L12.0703125,1.0546875 L12.0703125,3.28125 C12.0703125,3.57275391 12.3061523,3.80859375 12.5976562,3.80859375 C12.8891602,3.80859375 13.125,3.57275391 13.125,3.28125 L13.125,1.0546875 C13.125,0.473144531 12.6518555,0 12.0703125,0 Z M12.5976562,9.31640625 C12.3061523,9.31640625 12.0703125,9.55224609 12.0703125,9.84375 L12.0703125,12.0703125 L9.84375,12.0703125 C9.55224609,12.0703125 9.31640625,12.3061523 9.31640625,12.5976562 C9.31640625,12.8891602 9.55224609,13.125 9.84375,13.125 L12.0703125,13.125 C12.6518555,13.125 13.125,12.6518555 13.125,12.0703125 L13.125,9.84375 C13.125,9.55224609 12.8891602,9.31640625 12.5976562,9.31640625 Z" id="Shape"></path>
            </g>
        </g>
    </g>
</svg>