<svg width="12" height="14" viewBox="0 0 12 14" fill="none" xmlns="http://www.w3.org/2000/svg">
<path d="M12 7.26203C12 6.48841 11.4 5.86453 10.656 5.86453C9.912 5.86453 9.312 6.48841 9.312 7.26203C9.312 7.83601 9.648 8.33512 10.128 8.55971V9.98217C10.128 11.6542 8.832 13.0018 7.248 13.0018C5.664 13.0018 4.368 11.6542 4.368 9.98217V8.63458C6.312 8.38503 7.824 6.6631 7.824 4.54189V0.499109C7.824 0.224599 7.608 0 7.344 0H6.312C6.048 0 5.832 0.224599 5.832 0.499109C5.832 0.773619 6.048 0.998218 6.312 0.998218H6.864V4.54189C6.864 6.26381 5.52 7.66132 3.888 7.66132C2.256 7.66132 0.936 6.26381 0.936 4.54189V0.998218H1.536C1.8 0.998218 2.016 0.773619 2.016 0.499109C2.016 0.224599 1.8 0 1.536 0H0.48C0.216 0 0 0.224599 0 0.499109V4.54189C0 6.63815 1.512 8.38503 3.456 8.63458V9.98217C3.456 12.2032 5.16 14 7.272 14C9.384 14 11.088 12.2032 11.088 9.98217V8.58467C11.616 8.38503 12 7.86096 12 7.26203ZM10.656 6.83779C10.872 6.83779 11.04 7.01248 11.04 7.23708C11.04 7.46168 10.872 7.63636 10.656 7.63636C10.44 7.63636 10.272 7.46168 10.272 7.23708C10.272 7.01248 10.44 6.83779 10.656 6.83779Z" fill="#1890FF"/>
</svg>
