<?xml version="1.0" encoding="UTF-8"?>
<svg width="10px" height="14px" viewBox="0 0 10 14" version="1.1" xmlns="http://www.w3.org/2000/svg" xmlns:xlink="http://www.w3.org/1999/xlink">
    <!-- Generator: Sketch 60.1 (88133) - https://sketch.com -->
    <title>患者接诊</title>
    <desc>Created with Sketch.</desc>
    <g id="门诊及框架优化" stroke="none" stroke-width="1" fill="none" fill-rule="evenodd" opacity="0.652715774">
        <g id="患者接诊" transform="translate(-2.000000, 0.000000)">
            <rect id="Rectangle-43-Copy-12" x="0" y="0" width="14" height="14"></rect>
            <g id="user" transform="translate(2.433594, 0.888672)" fill="#000000" fill-rule="nonzero">
                <path d="M8.76914063,9.96679688 C8.53945312,9.42402344 8.20996094,8.9359375 7.79160156,8.51757812 C7.37324219,8.09921875 6.88515625,7.76972656 6.34238281,7.54003906 C6.1578125,7.46210937 5.96777344,7.39648438 5.77636719,7.34316406 C6.31777344,7.15996094 6.8140625,6.85371094 7.2296875,6.43808594 C7.940625,5.72714844 8.33300781,4.78105469 8.33300781,3.77617187 C8.33300781,2.77128906 7.94199219,1.82519531 7.2296875,1.11425781 C6.51875,0.403320312 5.57265625,0.0109375 4.56777344,0.0109375 C3.56289062,0.0109375 2.61679687,0.401953125 1.90585937,1.11425781 C1.19492187,1.82519531 0.802539062,2.77128906 0.802539062,3.77617187 C0.802539062,4.78105469 1.19355469,5.72714844 1.90585937,6.43808594 C2.32148437,6.85371094 2.81777344,7.15996094 3.35917969,7.34316406 C3.16777344,7.39648438 2.97773437,7.46074219 2.79316406,7.54003906 C2.25039062,7.76972656 1.76230469,8.09921875 1.34394531,8.51757812 C0.925585937,8.9359375 0.59609375,9.42402344 0.36640625,9.96679688 C0.128515625,10.5300781 0.008203125,11.1261719 0.008203125,11.7427734 C0.008203125,12.0148438 0.228320312,12.2349609 0.500390625,12.2349609 C0.772460937,12.2349609 0.992578125,12.0148438 0.992578125,11.7427734 C0.992578125,10.7871094 1.36445312,9.88886719 2.03984375,9.21347656 C2.71523437,8.53808594 3.61347656,8.16621094 4.56914062,8.16621094 C5.52480469,8.16621094 6.42304687,8.53808594 7.0984375,9.21347656 C7.77382812,9.88886719 8.14570313,10.7871094 8.14570313,11.7427734 C8.14570313,12.0148438 8.36582031,12.2349609 8.63789063,12.2349609 C8.90996094,12.2349609 9.13007813,12.0148438 9.13007813,11.7427734 C9.12734375,11.1261719 9.00703125,10.5300781 8.76914063,9.96679688 Z M1.78554688,3.77617187 C1.78554688,2.2421875 3.03378906,0.9953125 4.56640625,0.9953125 C6.09902344,0.9953125 7.34726562,2.2421875 7.34726562,3.77617187 C7.34726562,5.31015625 6.10039063,6.55703125 4.56640625,6.55703125 C3.03242187,6.55703125 1.78554688,5.30878906 1.78554688,3.77617187 Z" id="Shape"></path>
            </g>
        </g>
    </g>
</svg>