<svg width="16" height="16" viewBox="0 0 16 16" fill="none" xmlns="http://www.w3.org/2000/svg">
<path d="M12.625 1H2.625C2.49239 1 2.36521 1.05268 2.27145 1.14645C2.17768 1.24021 2.125 1.36739 2.125 1.5V13.75C2.125 13.8826 2.17768 14.0098 2.27145 14.1036C2.36521 14.1973 2.49239 14.25 2.625 14.25H7.16563C7.19878 14.25 7.23057 14.2368 7.25401 14.2134C7.27746 14.1899 7.29063 14.1582 7.29063 14.125V13.25C7.29063 13.2168 7.27746 13.1851 7.25401 13.1616C7.23057 13.1382 7.19878 13.125 7.16563 13.125H3.25V2.125H12V7.17188C12 7.20503 12.0132 7.23682 12.0366 7.26026C12.0601 7.28371 12.0918 7.29688 12.125 7.29688H13C13.0332 7.29688 13.0649 7.28371 13.0884 7.26026C13.1118 7.23682 13.125 7.20503 13.125 7.17188V1.5C13.125 1.36739 13.0723 1.24021 12.9786 1.14645C12.8848 1.05268 12.7576 1 12.625 1Z" fill="#1890FF"/>
<path d="M10.875 3.29175H4.375C4.34185 3.29175 4.31005 3.30492 4.28661 3.32836C4.26317 3.3518 4.25 3.3836 4.25 3.41675V4.16675C4.25 4.1999 4.26317 4.23169 4.28661 4.25514C4.31005 4.27858 4.34185 4.29175 4.375 4.29175H10.875C10.9082 4.29175 10.9399 4.27858 10.9634 4.25514C10.9868 4.23169 11 4.1999 11 4.16675V3.41675C11 3.3836 10.9868 3.3518 10.9634 3.32836C10.9399 3.30492 10.9082 3.29175 10.875 3.29175ZM7.5 5.45831H4.375C4.34185 5.45831 4.31005 5.47148 4.28661 5.49492C4.26317 5.51836 4.25 5.55016 4.25 5.58331V6.33331C4.25 6.36646 4.26317 6.39826 4.28661 6.4217C4.31005 6.44514 4.34185 6.45831 4.375 6.45831H7.5C7.53315 6.45831 7.56495 6.44514 7.58839 6.4217C7.61183 6.39826 7.625 6.36646 7.625 6.33331V5.58331C7.625 5.55016 7.61183 5.51836 7.58839 5.49492C7.56495 5.47148 7.53315 5.45831 7.5 5.45831ZM13.8384 13.5141L12.6692 12.345C13.0275 11.8416 13.2196 11.2389 13.2188 10.621C13.2188 8.97487 11.8841 7.64065 10.2381 7.64065C8.59219 7.64065 7.25781 8.97487 7.25781 10.621C7.25781 12.2671 8.59203 13.6011 10.2381 13.6011C10.856 13.6021 11.4587 13.4101 11.9622 13.0521L13.1313 14.2213C13.1429 14.2329 13.1566 14.2421 13.1718 14.2484C13.187 14.2547 13.2033 14.2579 13.2197 14.2579C13.2361 14.2579 13.2524 14.2547 13.2676 14.2484C13.2827 14.2421 13.2965 14.2329 13.3081 14.2213L13.8384 13.691C13.8501 13.6794 13.8593 13.6656 13.8656 13.6504C13.8719 13.6352 13.8751 13.619 13.8751 13.6025C13.8751 13.5861 13.8719 13.5698 13.8656 13.5547C13.8593 13.5395 13.8501 13.5257 13.8384 13.5141ZM11.6383 12.0211C11.3142 12.3449 10.8879 12.5464 10.432 12.5911C9.97609 12.6359 9.51876 12.5212 9.13793 12.2665C8.75711 12.0119 8.47636 11.6331 8.34352 11.1947C8.21068 10.7562 8.23396 10.2853 8.4094 9.86211C8.58484 9.43892 8.90159 9.08966 9.30567 8.87383C9.70976 8.658 10.1762 8.58895 10.6255 8.67845C11.0747 8.76795 11.4791 9.01046 11.7696 9.36467C12.0601 9.71887 12.2189 10.1629 12.2188 10.621C12.2194 10.8811 12.1685 11.1389 12.0688 11.3792C11.9692 11.6196 11.8228 11.8377 11.6383 12.0211Z" fill="#1890FF"/>
</svg>
