<?xml version="1.0" encoding="UTF-8"?>
<svg width="12px" height="12px" viewBox="0 0 12 12" version="1.1" xmlns="http://www.w3.org/2000/svg" xmlns:xlink="http://www.w3.org/1999/xlink">
    <!-- Generator: Sketch 60.1 (88133) - https://sketch.com -->
    <title>查询统计</title>
    <desc>Created with Sketch.</desc>
    <g id="门诊及框架优化" stroke="none" stroke-width="1" fill="none" fill-rule="evenodd">
        <g id="查询统计" transform="translate(-1.000000, -1.000000)">
            <polygon id="Rectangle-46" points="0 0 14 0 14 14 0 14"></polygon>
            <g id="barschart" transform="translate(1.750000, 1.750000)" fill="#1890FF" fill-rule="nonzero">
                <path d="M0.992578125,0.4921875 L0.992578125,10.0078125 C0.992578125,10.2798828 0.772460938,10.5 0.500390625,10.5 L0.500390625,10.5 C0.228320312,10.5 0.008203125,10.2798828 0.008203125,10.0078125 L0.008203125,0.4921875 C0.008203125,0.220117187 0.228320312,0 0.500390625,0 L0.500390625,0 C0.772460938,0 0.992578125,0.220117187 0.992578125,0.4921875 Z M0.500390625,9.515625 L9.98867188,9.515625 C10.2607422,9.515625 10.4808594,9.73574219 10.4808594,10.0078125 L10.4808594,10.0078125 C10.4808594,10.2798828 10.2607422,10.5 9.98867188,10.5 L0.500390625,10.5 C0.228320313,10.5 0.008203125,10.2798828 0.008203125,10.0078125 L0.008203125,10.0078125 C0.008203125,9.73574219 0.228320313,9.515625 0.500390625,9.515625 Z M3.60664063,3.13085938 L3.60664063,8.203125 C3.60664063,8.47519531 3.38652344,8.6953125 3.11445313,8.6953125 L3.11445313,8.6953125 C2.84238281,8.6953125 2.62226563,8.47519531 2.62226563,8.203125 L2.62226563,3.13085938 C2.62226563,2.85878906 2.84238281,2.63867188 3.11445313,2.63867188 L3.11445313,2.63867188 C3.38652344,2.63867188 3.60664063,2.85878906 3.60664063,3.13085938 Z M8.84980469,1.35351562 L8.84980469,8.203125 C8.84980469,8.47519531 8.6296875,8.6953125 8.35761719,8.6953125 L8.35761719,8.6953125 C8.08554688,8.6953125 7.86542969,8.47519531 7.86542969,8.203125 L7.86542969,1.35351562 C7.86542969,1.08144531 8.08554688,0.861328125 8.35761719,0.861328125 L8.35761719,0.861328125 C8.6296875,0.861328125 8.84980469,1.08144531 8.84980469,1.35351562 Z M6.21523438,4.85351562 L6.21523438,8.203125 C6.21523438,8.47519531 5.99511719,8.6953125 5.72304688,8.6953125 L5.72304688,8.6953125 C5.45097656,8.6953125 5.23085938,8.47519531 5.23085938,8.203125 L5.23085938,4.85351562 C5.23085938,4.58144531 5.45097656,4.36132812 5.72304688,4.36132812 L5.72304688,4.36132812 C5.99375,4.36132812 6.21523438,4.58144531 6.21523438,4.85351562 Z" id="Shape"></path>
            </g>
        </g>
    </g>
</svg>