<svg width="17" height="16" viewBox="0 0 17 16" fill="none" xmlns="http://www.w3.org/2000/svg">
<path d="M15.0253 9.77659L14.006 8.90159C14.0542 8.60471 14.0791 8.30159 14.0791 7.99846C14.0791 7.69534 14.0542 7.39221 14.006 7.09534L15.0253 6.22034C15.1824 6.08596 15.24 5.86721 15.17 5.67034L15.156 5.62971C14.8743 4.84065 14.4573 4.11565 13.9157 3.47502L13.8877 3.44221C13.7539 3.2844 13.5375 3.22502 13.3415 3.29377L12.0763 3.74534C11.6094 3.36096 11.0881 3.05784 10.5247 2.84534L10.2804 1.51721C10.2431 1.31252 10.0828 1.15315 9.87891 1.11565L9.83689 1.10784C9.02611 0.960962 8.17331 0.960962 7.36253 1.10784L7.32052 1.11565C7.11665 1.15315 6.95636 1.31252 6.91902 1.51721L6.67314 2.85159C6.11446 3.06409 5.59624 3.36565 5.1325 3.74846L3.85797 3.29377C3.66344 3.22502 3.44557 3.28284 3.31174 3.44221L3.28373 3.47502C2.74217 4.11721 2.32511 4.84221 2.04344 5.62971L2.02943 5.67034C1.9594 5.86565 2.01698 6.0844 2.17416 6.22034L3.20592 7.10471C3.15768 7.39846 3.13433 7.69846 3.13433 7.9969C3.13433 8.2969 3.15768 8.5969 3.20592 8.88909L2.17416 9.77346C2.01698 9.90784 1.9594 10.1266 2.02943 10.3235L2.04344 10.3641C2.32511 11.1516 2.74217 11.8781 3.28373 12.5188L3.31174 12.5516C3.44557 12.7094 3.66189 12.7688 3.85797 12.7L5.1325 12.2453C5.59624 12.6281 6.11446 12.9313 6.67314 13.1422L6.91902 14.4766C6.95636 14.6813 7.11665 14.8406 7.32052 14.8781L7.36253 14.886C7.7687 14.9594 8.18421 14.9969 8.59971 14.9969C9.01522 14.9969 9.43228 14.9594 9.83689 14.886L9.87891 14.8781C10.0828 14.8406 10.2431 14.6813 10.2804 14.4766L10.5247 13.1485C11.0881 12.936 11.6094 12.6344 12.0763 12.2485L13.3415 12.7C13.536 12.7688 13.7539 12.711 13.8877 12.5516L13.9157 12.5188C14.4573 11.8766 14.8743 11.1516 15.156 10.3641L15.17 10.3235C15.24 10.1313 15.1824 9.91253 15.0253 9.77659ZM12.9011 7.27971C12.94 7.51565 12.9602 7.75784 12.9602 8.00002C12.9602 8.24221 12.94 8.4844 12.9011 8.72034L12.7983 9.3469L13.9608 10.3453C13.785 10.7531 13.5624 11.1375 13.2979 11.4953L11.8537 10.9813L11.3651 11.3844C10.9932 11.6906 10.5792 11.9313 10.131 12.1L9.5381 12.3235L9.25954 13.8391C8.82225 13.8891 8.37562 13.8891 7.93677 13.8391L7.65821 12.3203L7.06997 12.0938C6.62645 11.925 6.21406 11.6844 5.84524 11.3797L5.35659 10.975L3.9031 11.4938C3.63854 11.136 3.41756 10.75 3.24015 10.3438L4.41509 9.33596L4.31393 8.71096C4.27659 8.47815 4.25635 8.23752 4.25635 8.00002C4.25635 7.76096 4.27503 7.5219 4.31393 7.28909L4.41509 6.66409L3.24015 5.65627C3.41601 5.24846 3.63854 4.86409 3.9031 4.50627L5.35659 5.02502L5.84524 4.62034C6.21406 4.31565 6.62645 4.07502 7.06997 3.90627L7.65977 3.68284L7.93833 2.16409C8.37562 2.11409 8.82225 2.11409 9.2611 2.16409L9.53966 3.67971L10.1326 3.90315C10.5792 4.0719 10.9947 4.31252 11.3666 4.61877L11.8553 5.0219L13.2994 4.50784C13.564 4.86565 13.785 5.25159 13.9624 5.65784L12.7999 6.65627L12.9011 7.27971ZM8.60127 5.09377C7.08864 5.09377 5.86235 6.32502 5.86235 7.84377C5.86235 9.36252 7.08864 10.5938 8.60127 10.5938C10.1139 10.5938 11.3402 9.36252 11.3402 7.84377C11.3402 6.32502 10.1139 5.09377 8.60127 5.09377ZM9.83378 9.08127C9.50387 9.41096 9.06657 9.59377 8.60127 9.59377C8.13597 9.59377 7.69867 9.41096 7.36876 9.08127C7.0404 8.75002 6.85832 8.31096 6.85832 7.84377C6.85832 7.37659 7.0404 6.93752 7.36876 6.60627C7.69867 6.27502 8.13597 6.09377 8.60127 6.09377C9.06657 6.09377 9.50387 6.27502 9.83378 6.60627C10.1621 6.93752 10.3442 7.37659 10.3442 7.84377C10.3442 8.31096 10.1621 8.75002 9.83378 9.08127Z" fill="#1890FF"/>
</svg>
