<svg width="16" height="16" viewBox="0 0 16 16" fill="none" xmlns="http://www.w3.org/2000/svg">
<path d="M14.13 9.77659L13.1107 8.90159C13.1589 8.60471 13.1838 8.30159 13.1838 7.99846C13.1838 7.69534 13.1589 7.39221 13.1107 7.09534L14.13 6.22034C14.2872 6.08596 14.3448 5.86721 14.2747 5.67034L14.2607 5.62971C13.9791 4.84065 13.562 4.11565 13.0204 3.47502L12.9924 3.44221C12.8586 3.2844 12.6423 3.22502 12.4462 3.29377L11.181 3.74534C10.7141 3.36096 10.1928 3.05784 9.62947 2.84534L9.38515 1.51721C9.3478 1.31252 9.18751 1.15315 8.98365 1.11565L8.94163 1.10784C8.13085 0.960962 7.27805 0.960962 6.46727 1.10784L6.42525 1.11565C6.22139 1.15315 6.0611 1.31252 6.02375 1.51721L5.77787 2.85159C5.2192 3.06409 4.70098 3.36565 4.23723 3.74846L2.9627 3.29377C2.76818 3.22502 2.55031 3.28284 2.41648 3.44221L2.38846 3.47502C1.84691 4.11721 1.42984 4.84221 1.14817 5.62971L1.13417 5.67034C1.06414 5.86565 1.12172 6.0844 1.27889 6.22034L2.31065 7.10471C2.26241 7.39846 2.23907 7.69846 2.23907 7.9969C2.23907 8.2969 2.26241 8.5969 2.31065 8.88909L1.27889 9.77346C1.12172 9.90784 1.06414 10.1266 1.13417 10.3235L1.14817 10.3641C1.42984 11.1516 1.84691 11.8781 2.38846 12.5188L2.41648 12.5516C2.55031 12.7094 2.76662 12.7688 2.9627 12.7L4.23723 12.2453C4.70098 12.6281 5.2192 12.9313 5.77787 13.1422L6.02375 14.4766C6.0611 14.6813 6.22139 14.8406 6.42525 14.8781L6.46727 14.886C6.87344 14.9594 7.28894 14.9969 7.70445 14.9969C8.11996 14.9969 8.53702 14.9594 8.94163 14.886L8.98365 14.8781C9.18751 14.8406 9.3478 14.6813 9.38515 14.4766L9.62947 13.1485C10.1928 12.936 10.7141 12.6344 11.181 12.2485L12.4462 12.7C12.6407 12.7688 12.8586 12.711 12.9924 12.5516L13.0204 12.5188C13.562 11.8766 13.9791 11.1516 14.2607 10.3641L14.2747 10.3235C14.3448 10.1313 14.2872 9.91253 14.13 9.77659ZM12.0058 7.27971C12.0447 7.51565 12.0649 7.75784 12.0649 8.00002C12.0649 8.24221 12.0447 8.4844 12.0058 8.72034L11.9031 9.3469L13.0656 10.3453C12.8897 10.7531 12.6672 11.1375 12.4026 11.4953L10.9585 10.9813L10.4698 11.3844C10.0979 11.6906 9.68394 11.9313 9.23575 12.1L8.64284 12.3235L8.36428 13.8391C7.92699 13.8891 7.48036 13.8891 7.04151 13.8391L6.76295 12.3203L6.1747 12.0938C5.73119 11.925 5.31879 11.6844 4.94997 11.3797L4.46133 10.975L3.00783 11.4938C2.74328 11.136 2.5223 10.75 2.34489 10.3438L3.51982 9.33596L3.41867 8.71096C3.38132 8.47815 3.36109 8.23752 3.36109 8.00002C3.36109 7.76096 3.37977 7.5219 3.41867 7.28909L3.51982 6.66409L2.34489 5.65627C2.52074 5.24846 2.74328 4.86409 3.00783 4.50627L4.46133 5.02502L4.94997 4.62034C5.31879 4.31565 5.73119 4.07502 6.1747 3.90627L6.7645 3.68284L7.04306 2.16409C7.48036 2.11409 7.92699 2.11409 8.36584 2.16409L8.6444 3.67971L9.23731 3.90315C9.68394 4.0719 10.0994 4.31252 10.4714 4.61877L10.96 5.0219L12.4042 4.50784C12.6687 4.86565 12.8897 5.25159 13.0671 5.65784L11.9046 6.65627L12.0058 7.27971ZM7.70601 5.09377C6.19338 5.09377 4.96709 6.32502 4.96709 7.84377C4.96709 9.36252 6.19338 10.5938 7.70601 10.5938C9.21863 10.5938 10.4449 9.36252 10.4449 7.84377C10.4449 6.32502 9.21863 5.09377 7.70601 5.09377ZM8.93852 9.08127C8.6086 9.41096 8.17131 9.59377 7.70601 9.59377C7.2407 9.59377 6.80341 9.41096 6.47349 9.08127C6.14514 8.75002 5.96306 8.31096 5.96306 7.84377C5.96306 7.37659 6.14514 6.93752 6.47349 6.60627C6.80341 6.27502 7.2407 6.09377 7.70601 6.09377C8.17131 6.09377 8.6086 6.27502 8.93852 6.60627C9.26688 6.93752 9.44895 7.37659 9.44895 7.84377C9.44895 8.31096 9.26688 8.75002 8.93852 9.08127Z" fill="#262626"/>
</svg>
