<svg width="64" height="69" viewBox="0 0 64 69" fill="none" xmlns="http://www.w3.org/2000/svg">
<g clip-path="url(#clip0)">
<path d="M32 41.0015C49.6731 41.0015 64 37.8908 64 34.0535C64 30.2162 49.6731 27.1055 32 27.1055C14.3269 27.1055 0 30.2162 0 34.0535C0 37.8908 14.3269 41.0015 32 41.0015Z" fill="#F5F5F5"/>
<path d="M55 13.9641L44.854 2.54749C44.367 1.76931 43.656 1.29883 42.907 1.29883H21.093C20.344 1.29883 19.633 1.76931 19.146 2.5465L9 13.9651V23.1355H55V13.9641Z" stroke="#D9D9D9"/>
<path d="M41.613 17.1114C41.613 15.5183 42.607 14.2031 43.84 14.2021H55V32.2045C55 34.3117 53.68 36.0388 52.05 36.0388H11.95C10.32 36.0388 9 34.3108 9 32.2045V14.2021H20.16C21.393 14.2021 22.387 15.5153 22.387 17.1084V17.1302C22.387 18.7233 23.392 20.0097 24.624 20.0097H39.376C40.608 20.0097 41.613 18.7114 41.613 17.1183V17.1114Z" fill="#FAFAFA" stroke="#D9D9D9"/>
<path d="M12.513 59.074C11.915 59.126 11.278 59.178 10.602 59.23V58.203H12.63V57.436H10.602V56.578H9.744V57.436H8.236C8.561 57.007 8.873 56.513 9.159 55.967H12.721V55.135H9.549C9.653 54.901 9.744 54.667 9.835 54.433L8.899 54.277C8.795 54.563 8.678 54.849 8.561 55.135H6.754V55.967H8.145C7.833 56.552 7.482 57.046 7.118 57.462L7.326 58.203H9.744V59.282C8.86 59.334 7.911 59.373 6.923 59.425L7.04 60.257C7.976 60.205 8.886 60.14 9.744 60.088V61.024H10.602V60.023C11.265 59.958 11.902 59.893 12.513 59.841V59.074ZM14.333 58.216H16.023V61.037H16.92V58.216H18.298V57.397H14.398V56.045C15.802 55.889 16.972 55.59 17.934 55.174L17.336 54.472C16.426 54.888 15.152 55.174 13.54 55.33V57.371C13.514 58.541 13.202 59.542 12.63 60.387L13.28 61.063C13.839 60.257 14.19 59.308 14.333 58.216ZM16.842 61.414H8.314V66.302H9.276V65.795H15.88V66.302H16.842V61.414ZM9.276 64.989V63.975H15.88V64.989H9.276ZM9.276 63.221V62.207H15.88V63.221H9.276ZM20.729 55.083V55.993H24.46V56.864C24.447 57.67 24.395 58.437 24.291 59.139H19.858V60.036H24.135C23.966 60.855 23.732 61.596 23.42 62.246C22.718 63.572 21.483 64.625 19.689 65.431L20.209 66.263C22.016 65.483 23.316 64.378 24.122 62.974C24.564 62.142 24.889 61.167 25.097 60.036H26.15V64.768C26.15 65.652 26.566 66.094 27.424 66.094H29.53C30.076 66.094 30.466 65.977 30.713 65.743C30.999 65.457 31.194 64.69 31.298 63.416L30.414 63.13C30.349 64.144 30.232 64.742 30.05 64.95C29.907 65.119 29.673 65.21 29.361 65.21H27.71C27.294 65.21 27.086 64.989 27.086 64.573V60.036H31.116V59.139H25.24C25.331 58.437 25.383 57.67 25.409 56.864V55.993H30.063V55.083H20.729ZM40.554 57.267H42.478C42.426 59.022 42.153 60.556 41.646 61.869C41.126 60.777 40.71 59.464 40.385 57.943L40.554 57.267ZM41.217 62.805C40.619 63.91 39.826 64.807 38.812 65.509L39.293 66.289C40.268 65.587 41.074 64.716 41.698 63.676C42.348 64.768 43.128 65.652 44.038 66.302L44.545 65.535C43.609 64.898 42.816 64.001 42.14 62.831C42.868 61.297 43.271 59.438 43.336 57.267H44.181V56.37H40.749C40.853 55.798 40.957 55.174 41.035 54.511L40.125 54.355C39.865 56.825 39.345 58.788 38.578 60.244L39.163 60.959C39.436 60.491 39.696 59.958 39.93 59.36C40.281 60.66 40.71 61.804 41.217 62.805ZM35.055 60.426C34.964 60.686 34.86 60.959 34.743 61.245H32.845V62.064H34.379C34.119 62.584 33.82 63.117 33.482 63.689C34.119 63.923 34.717 64.17 35.289 64.417C34.535 64.846 33.612 65.197 32.546 65.483L32.988 66.263C34.288 65.899 35.367 65.418 36.225 64.82C36.992 65.158 37.655 65.509 38.227 65.847L38.734 65.119C38.162 64.807 37.564 64.521 36.94 64.235C37.616 63.611 38.097 62.87 38.383 62.012V61.245H35.666C35.744 61.011 35.835 60.777 35.926 60.53L35.055 60.426ZM36.082 63.871C35.614 63.676 35.12 63.494 34.6 63.312C34.86 62.922 35.094 62.506 35.302 62.064H37.538C37.226 62.74 36.732 63.351 36.082 63.871ZM33.872 54.628L33.131 54.875C33.443 55.369 33.729 55.928 34.002 56.565L34.678 56.253C34.444 55.681 34.184 55.135 33.872 54.628ZM37.824 54.589C37.59 55.135 37.252 55.681 36.836 56.24L37.499 56.578C37.915 56.032 38.24 55.473 38.5 54.901L37.824 54.589ZM32.871 56.877V57.696H34.717C34.327 58.411 33.625 59.061 32.624 59.646L33.079 60.4C34.197 59.646 34.977 58.762 35.406 57.735V60.205H36.277V58.515C36.745 58.827 37.304 59.243 37.954 59.763L38.435 59.035C37.707 58.593 36.979 58.19 36.277 57.839V57.696H38.643V56.877H36.277V54.394H35.406V56.877H32.871ZM47.132 66.185C47.86 66.185 48.224 65.795 48.224 65.041V61.245C48.627 61.063 49.03 60.881 49.433 60.673V59.75C49.043 59.958 48.64 60.153 48.224 60.335V57.774H49.472V56.877H48.224V54.42H47.314V56.877H45.754V57.774H47.314V60.712C46.742 60.92 46.144 61.102 45.546 61.245L45.78 62.155C46.287 61.999 46.794 61.817 47.314 61.622V64.807C47.314 65.171 47.145 65.366 46.82 65.366C46.508 65.366 46.17 65.34 45.832 65.301L46.027 66.185H47.132ZM51.019 60.439H53.671V62.038H51.5V66.302H52.371V65.665H55.894V66.302H56.765V62.038H54.581V60.439H57.363V59.594H54.581V58.06H57.025V54.901H50.174V58.97C50.161 61.7 49.693 63.936 48.77 65.652L49.498 66.302C50.356 64.612 50.863 62.662 51.019 60.439ZM53.671 58.06V59.594H51.071C51.071 59.386 51.084 59.178 51.084 58.97V58.06H53.671ZM52.371 64.833V62.87H55.894V64.833H52.371ZM56.115 55.772V57.215H51.084V55.772H56.115Z" fill="black" fill-opacity="0.25"/>
</g>
<defs>
<clipPath id="clip0">
<rect width="64" height="68" fill="white" transform="translate(0 0.00195312)"/>
</clipPath>
</defs>
</svg>
