<svg width="12" height="14" viewBox="0 0 12 14" fill="none" xmlns="http://www.w3.org/2000/svg">
<path d="M10.2041 0H1.7959C1.02207 0 0.394531 0.626172 0.394531 1.4V12.6C0.394531 13.3738 1.02207 14 1.7959 14H10.2041C10.9779 14 11.6055 13.3738 11.6055 12.6V1.4C11.6055 0.626172 10.9779 0 10.2041 0ZM2.07617 3.91973C2.07617 3.76523 2.20195 3.63945 2.35645 3.63945H6.84082C6.99531 3.63945 7.12109 3.76523 7.12109 3.91973V4.48027C7.12109 4.63477 6.99531 4.76055 6.84082 4.76055H2.35645C2.20195 4.76055 2.07617 4.63477 2.07617 4.48027V3.91973ZM9.08301 9.23945C8.95859 9.23945 8.83555 9.21074 8.72207 9.15605L7.87715 9.99961C7.93184 10.1117 7.96055 10.2348 7.96055 10.3592C7.96602 10.8227 7.59414 11.2027 7.1293 11.2082C6.66445 11.2137 6.28438 10.8418 6.27891 10.3783C6.27891 10.3223 6.28301 10.2662 6.29395 10.2102L5.23848 9.15469C5.01152 9.2668 4.74492 9.2668 4.51797 9.15469L3.67305 9.99824C3.72773 10.1104 3.75645 10.2334 3.75645 10.3578C3.75645 10.8213 3.38047 11.1973 2.91562 11.1973C2.45078 11.1973 2.07617 10.824 2.07617 10.3605C2.07617 9.89707 2.45215 9.52109 2.91699 9.52109C3.04141 9.52109 3.16445 9.5498 3.27793 9.60449L4.12285 8.76094C4.06816 8.64883 4.03945 8.52578 4.03809 8.40137C4.03809 7.93789 4.41406 7.56191 4.87891 7.56191C5.34375 7.56191 5.71973 7.93789 5.71973 8.40137C5.71973 8.52578 5.69102 8.64883 5.63633 8.76094L6.59063 9.7125C6.83945 9.50195 7.18945 9.45957 7.48203 9.60313L8.32695 8.75957C8.27227 8.64746 8.24355 8.52578 8.24219 8.40137C8.24219 7.93789 8.61816 7.56191 9.08301 7.56191C9.54785 7.56191 9.92383 7.93789 9.92383 8.40137C9.92383 8.86484 9.54785 9.23945 9.08301 9.23945V9.23945ZM9.92383 2.23945C9.92383 2.39395 9.79805 2.51973 9.64355 2.51973H2.35645C2.20195 2.51973 2.07617 2.39395 2.07617 2.23945V1.67891C2.07617 1.52441 2.20195 1.39863 2.35645 1.39863H9.64355C9.79805 1.39863 9.92383 1.52441 9.92383 1.67891V2.23945Z" fill="#1890FF"/>
</svg>
