<?xml version="1.0" standalone="no"?><!DOCTYPE svg PUBLIC "-//W3C//DTD SVG 1.1//EN" "http://www.w3.org/Graphics/SVG/1.1/DTD/svg11.dtd"><svg t="1596081012783" class="icon" viewBox="0 0 1024 1024" version="1.1" xmlns="http://www.w3.org/2000/svg" p-id="1198" width="12" height="12" xmlns:xlink="http://www.w3.org/1999/xlink"><defs><style type="text/css"></style></defs><path d="M540.7 133.4l103.5 209.8c4.6 9.4 13.6 15.9 24 17.4l231.5 33.6c26.1 3.8 36.6 35.9 17.7 54.4L749.9 612c-7.5 7.3-10.9 17.9-9.2 28.2l39.5 230.6c4.5 26-22.9 45.9-46.2 33.6L526.9 795.5c-9.3-4.9-20.4-4.9-29.7 0l-207 108.9c-23.4 12.3-50.7-7.6-46.2-33.6l39.5-230.6c1.8-10.3-1.7-20.9-9.2-28.2L106.8 448.7c-18.9-18.4-8.5-50.6 17.7-54.4L356 360.7c10.4-1.5 19.4-8 24-17.4l103.5-209.8c11.7-23.7 45.5-23.7 57.2-0.1z" fill="#E73B3B" p-id="1199"></path></svg>