<?xml version="1.0" encoding="UTF-8"?>
<svg width="15px" height="13px" viewBox="0 0 15 13" version="1.1" xmlns="http://www.w3.org/2000/svg" xmlns:xlink="http://www.w3.org/1999/xlink">
    <!-- Generator: Sketch 53.2 (72643) - https://sketchapp.com -->
    <title>文件 copy 4</title>
    <desc>Created with Sketch.</desc>
    <g id="1.6" stroke="none" stroke-width="1" fill="none" fill-rule="evenodd">
        <g id="病历书写--（新）-copy-2" transform="translate(-259.000000, -519.000000)" fill="#000000" fill-rule="nonzero">
            <g id="文件-copy-4" transform="translate(258.000000, 517.000000)">
                <g id="分组">
                    <rect id="矩形" opacity="0" x="0" y="0" width="16" height="16"></rect>
                    <path d="M13.571875,4.60625 L9.1,4.60625 C8.90625,4.60625 8.7328125,4.490625 8.659375,4.3125 L8.6484375,4.2859375 L8.1390625,3.3765625 C7.903125,2.840625 7.375,2.496875 6.7875,2.496875 L2.509375,2.496875 C1.6953125,2.496875 1.03125,3.159375 1.03125,3.975 L1.03125,12.8171875 C1.03125,13.63125 1.69375,14.2953125 2.509375,14.2953125 L13.571875,14.2953125 C14.3859375,14.2953125 15.05,13.6328125 15.05,12.8171875 L15.05,6.084375 C15.0484375,5.26875 14.3859375,4.60625 13.571875,4.60625 Z M2.509375,3.496875 L6.7875,3.496875 C6.98125,3.496875 7.1546875,3.6125 7.228125,3.790625 L7.2390625,3.8171875 L7.7484375,4.7265625 C7.984375,5.2625 8.5125,5.60625 9.1,5.60625 L13.5703125,5.60625 C13.834375,5.60625 14.0484375,5.8203125 14.0484375,6.084375 L14.0484375,6.928125 L2.03125,6.928125 L2.03125,3.975 C2.03125,3.7109375 2.2453125,3.496875 2.509375,3.496875 Z M13.571875,13.2953125 L2.509375,13.2953125 C2.2453125,13.2953125 2.03125,13.08125 2.03125,12.8171875 L2.03125,7.928125 L14.0484375,7.928125 L14.0484375,12.8171875 C14.0484375,13.0796875 13.834375,13.2953125 13.571875,13.2953125 L13.571875,13.2953125 Z" id="形状"></path>
                </g>
            </g>
        </g>
    </g>
</svg>