<?xml version="1.0" encoding="UTF-8"?>
<svg width="12px" height="13px" viewBox="0 0 12 13" version="1.1" xmlns="http://www.w3.org/2000/svg" xmlns:xlink="http://www.w3.org/1999/xlink">
    <!-- Generator: Sketch 53.2 (72643) - https://sketchapp.com -->
    <title>文件 copy 15</title>
    <desc>Created with Sketch.</desc>
    <g id="1.6" stroke="none" stroke-width="1" fill="none" fill-rule="evenodd">
        <g id="病历书写--（新）-copy-2" transform="translate(-269.000000, -489.000000)" fill="#000000" fill-rule="nonzero">
            <g id="文件-copy-15" transform="translate(267.000000, 487.000000)">
                <g id="分组">
                    <rect id="矩形" opacity="0" x="0" y="0" width="16" height="16"></rect>
                    <path d="M11.9285,14.25 L4.0715,14.25 C3.21475341,14.260979 2.51124897,13.5754931 2.5,12.71875 L2.5,5.0625 C2.51124897,4.20575691 3.21475341,3.52027096 4.0715,3.53125 L5.25,3.53125 L5.25,2.76575 L6.30825,2.76575 C6.72278315,2.26180368 7.34780819,1.97889372 8,2 C8.65218416,1.97893217 9.27719301,2.2618348 9.69175,2.76575 L10.75,2.76575 L10.75,3.53125 L11.9285,3.53125 C12.7852466,3.52027096 13.488751,4.20575691 13.5,5.0625 L13.5,12.71875 C13.488751,13.5754931 12.7852466,14.260979 11.9285,14.25 L11.9285,14.25 Z M9.96425,3.53125 L9.09125,3.53125 C9.09125,3.1085 8.60275,2.76575 8,2.76575 C7.39725,2.76575 6.90875,3.1085 6.90875,3.53125 L6.03575,3.53125 L6.03575,5.0625 L9.96425,5.0625 L9.96425,3.53125 Z M12.71425,5.0625 C12.7118134,4.85668926 12.6276071,4.66030112 12.4802029,4.51664881 C12.3327986,4.3729965 12.1343052,4.29388058 11.9285,4.29675 L10.75,4.29675 L10.75,5.828 L5.25,5.828 L5.25,4.297 L4.0715,4.297 C3.86569483,4.29413058 3.66720136,4.3732465 3.51979711,4.51689881 C3.37239286,4.66055112 3.28818662,4.85693926 3.28575,5.06275 L3.28575,12.71875 C3.28818662,12.9245607 3.37239286,13.1209489 3.51979711,13.2646012 C3.66720136,13.4082535 3.86569483,13.4873694 4.0715,13.4845 L11.9285,13.4845 C12.1342624,13.4873696 12.3327183,13.4082879 12.4801153,13.2646895 C12.6275123,13.1210911 12.7117475,12.9247672 12.71425,12.719 L12.71425,5.0625 L12.71425,5.0625 Z M10.75,11.95325 L5.25,11.95325 C5.10995723,11.9583124 4.97833042,11.8864881 4.9068067,11.765981 C4.83528298,11.6454739 4.83528298,11.4955261 4.9068067,11.375019 C4.97833042,11.2545119 5.10995723,11.1826876 5.25,11.18775 L10.75,11.18775 C10.8900428,11.1826876 11.0216696,11.2545119 11.0931933,11.375019 C11.164717,11.4955261 11.164717,11.6454739 11.0931933,11.765981 C11.0216696,11.8864881 10.8900428,11.9583124 10.75,11.95325 L10.75,11.95325 Z M10.75,10.03925 L5.25,10.03925 C5.11087935,10.0428052 4.98077771,9.97061722 4.91017079,9.85069284 C4.83956388,9.73076846 4.83956388,9.58198154 4.91017079,9.46205716 C4.98077771,9.34213278 5.11087935,9.26994476 5.25,9.2735 L10.75,9.2735 C10.8900428,9.26843757 11.0216696,9.34026187 11.0931933,9.46076898 C11.164717,9.58127609 11.164717,9.73122391 11.0931933,9.85173102 C11.0216696,9.97223813 10.8900428,10.0440624 10.75,10.039 L10.75,10.03925 Z M10.75,8.125 L5.25,8.125 C5.11087935,8.12855524 4.98077771,8.05636722 4.91017079,7.93644284 C4.83956388,7.81651846 4.83956388,7.66773154 4.91017079,7.54780716 C4.98077771,7.42788278 5.11087935,7.35569476 5.25,7.35925 L10.75,7.35925 C10.8891206,7.35569476 11.0192223,7.42788278 11.0898292,7.54780716 C11.1604361,7.66773154 11.1604361,7.81651846 11.0898292,7.93644284 C11.0192223,8.05636722 10.8891206,8.12855524 10.75,8.125 L10.75,8.125 Z" id="形状"></path>
                </g>
            </g>
        </g>
    </g>
</svg>